{
classes = (
{
automatic = 1;
code = "A Aacute Abreve Abreveacute Abrevedotbelow Abrevegrave Abrevehookabove Abrevetilde Acircumflex Acircumflexacute Acircumflexdotbelow Acircumflexgrave Acircumflexhookabove Acircumflextilde Adieresis Adotbelow Agrave Ahookabove Amacron Aogonek Aring Aringacute Atilde AE AEacute B C Cacute Ccaron Ccedilla Ccircumflex Cdotaccent D DZ DZcaron Eth Dcaron Dcroat Ddotbelow Dz Dzcaron E Eacute Ebreve Ecaron Ecircumflex Ecircumflexacute Ecircumflexdotbelow Ecircumflexgrave Ecircumflexhookabove Ecircumflextilde Edieresis Edotaccent Edotbelow Egrave Ehookabove Emacron Eogonek Etilde F G Gbreve Gcircumflex Gcommaaccent Gdotaccent H Hbar Hcircumflex Hdotbelow I IJ Iacute Ibreve Icircumflex Idieresis Idotaccent Idotbelow Igrave Ihookabove Imacron Iogonek Itilde J Jcircumflex K Kcommaaccent L LJ Lacute Lcaron Lcommaaccent Ldot Lj Lslash M N NJ Nacute Ncaron Ncommaaccent Ndotaccent Eng Nj Ntilde O Oacute Obreve Ocircumflex Ocircumflexacute Ocircumflexdotbelow Ocircumflexgrave Ocircumflexhookabove Ocircumflextilde Odieresis Odotbelow Ograve Ohookabove Ohorn Ohornacute Ohorndotbelow Ohorngrave Ohornhookabove Ohorntilde Ohungarumlaut Omacron Oogonek Oslash Oslashacute Otilde OE P Thorn Q R Racute Rcaron Rcommaaccent Rdotbelow S Sacute Scaron Scedilla Scircumflex Scommaaccent Sdotbelow Germandbls Schwa T Tbar Tcaron Tcedilla Tcommaaccent Tdotbelow U Uacute Ubreve Ucircumflex Udieresis Udotbelow Ugrave Uhookabove Uhorn Uhornacute Uhorndotbelow Uhorngrave Uhornhookabove Uhorntilde Uhungarumlaut Umacron Uogonek Uring Utilde V W Wacute Wcircumflex Wdieresis Wgrave X Y Yacute Ycircumflex Ydieresis Ydotbelow Ygrave Yhookabove Ytilde Z Zacute Zcaron Zdotaccent Zdotbelow Iacute_J.loclNLD Y.loclGUA Yacute.loclGUA Ycircumflex.loclGUA Ydieresis.loclGUA Ydotbelow.loclGUA Ygrave.loclGUA Yhookabove.loclGUA Ytilde.loclGUA Cacute.loclPLK Nacute.loclPLK Oacute.loclPLK Sacute.loclPLK Zacute.loclPLK Delta Omega";
name = Uppercase;
},
{
automatic = 1;

glyphs = (
{
glyphname = A;
lastChange = "2015-01-29 02:55:36 +0000";
layers = (
{
anchors = (
{
name = bottom;
position = "{160, 0}";
},
{
name = ogonek;
position = "{301, 0}";
},
{
name = top;
position = "{158.5, 361}";
}
);
layerId = "30990018-E5AF-4C66-A976-C36FA03CF41D";
name = Regular;
paths = (
{
closed = 1;
nodes = (
"31 -1 LINE SMOOTH",
"41.5 -1 OFFCURVE",
"49.5 1 OFFCURVE",
"51.5 7 CURVE SMOOTH",
"81 92 LINE",
"232.5 92 LINE",
"263 7 LINE SMOOTH",
"265 1 OFFCURVE",
"273.5 -1 OFFCURVE",
"284 -1 CURVE SMOOTH",
"288 -1 LINE SMOOTH",
"303.5 -1 OFFCURVE",
"310 3 OFFCURVE",
"310 7.5 CURVE SMOOTH",
"310 10 OFFCURVE",
"309.5 11.5 OFFCURVE",
"308.5 14.5 CURVE SMOOTH",
"186 353.5 LINE SMOOTH",
"184.5 360.5 OFFCURVE",
"176 362 OFFCURVE",
"165.5 362 CURVE SMOOTH",
"150.5 362 LINE SMOOTH",
"140.5 362 OFFCURVE",
"132.5 360.5 OFFCURVE",
"130 353.5 CURVE SMOOTH",
"7.5 15 LINE SMOOTH",
"6.5 11.5 OFFCURVE",
"6 10 OFFCURVE",
"6 7.5 CURVE SMOOTH",
"6 2 OFFCURVE",
"12.5 -1 OFFCURVE",
"28 -1 CURVE SMOOTH"
);
},
{
closed = 1;
nodes = (
"149.5 284.5 LINE SMOOTH",
"153.5 294.5 OFFCURVE",
"155.5 305 OFFCURVE",
"157 315 CURVE",
"158.5 315 LINE",
"160 305 OFFCURVE",
"161.5 294 OFFCURVE",
"164.5 284.5 CURVE SMOOTH",
"218.5 131 LINE",
"95 131 LINE"
);
}
);
width = 316;
},
{
anchors = (
{
name = bottom;
position = "{160, 0}";
},
{
name = ogonek;
position = "{284.5, 0}";
},
{
name = top;
position = "{158.5, 361}";
}
);
layerId = "73D3DE9D-4D16-48FA-A6EF-561C99E37BFC";
name = Bold;
paths = (
{
closed = 1;
nodes = (
"52 -1 LINE SMOOTH",
"64 -1 OFFCURVE",
"73 2 OFFCURVE",
"76 10 CURVE SMOOTH",
"96.5 72.5 LINE",
"218 72.5 LINE",
"239 10 LINE SMOOTH",
"241.5 1.5 OFFCURVE",
"253 -1 OFFCURVE",
"268 -1 CURVE SMOOTH",
"290.5 -1 LINE SMOOTH",
"308.5 -1 OFFCURVE",
"316 3.5 OFFCURVE",
"316 10.5 CURVE SMOOTH",
"316 12.5 OFFCURVE",
"315.5 16 OFFCURVE",
"315 19.5 CURVE SMOOTH",
"201 351.5 LINE SMOOTH",
"198 360 OFFCURVE",
"186.5 362 OFFCURVE",
"171.5 362 CURVE SMOOTH",
"145 362 LINE SMOOTH",
"130 362 OFFCURVE",
"118.5 360 OFFCURVE",
"115.5 351.5 CURVE SMOOTH",
"2 19.5 LINE SMOOTH",
"1 16 OFFCURVE",
"0 12.5 OFFCURVE",
"0 10.5 CURVE SMOOTH",
"0 3.5 OFFCURVE",
"10 -1 OFFCURVE",
"31.5 -1 CURVE SMOOTH"
);
},
{
closed = 1;
nodes = (
"149 232.5 LINE SMOOTH",
"153.5 243.5 OFFCURVE",
"155 254.5 OFFCURVE",
"156.5 265.5 CURVE",
"159 265.5 LINE",
"161 254.5 OFFCURVE",
"163.5 243.5 OFFCURVE",
"166.5 232.5 CURVE SMOOTH",
"196 140.5 LINE",
"118.5 140.5 LINE"
);
}
);
width = 316;
}
);
leftKerningGroup = A;
rightKerningGroup = A;
unicode = 0041;
},
{
glyphname = Aringacute;
lastChange = "2015-01-29 02:55:36 +0000";
layers = (
{
components = (
{
disableAlignment = 1;
name = ring;
transform = "{1, 0, 0, 1, 75.832, 30.952}";
}
);
layerId = "30990018-E5AF-4C66-A976-C36FA03CF41D";
name = Regular;
paths = (
{
closed = 1;
nodes = (
"31 -1 LINE SMOOTH",
"41.5 -1 OFFCURVE",
"49.5 1 OFFCURVE",
"51.5 7 CURVE SMOOTH",
"81 92 LINE",
"232.5 92 LINE",
"263 7 LINE SMOOTH",
"265 1 OFFCURVE",
"273.5 -1 OFFCURVE",
"284 -1 CURVE SMOOTH",
"288 -1 LINE SMOOTH",
"303.5 -1 OFFCURVE",
"310 3 OFFCURVE",
"310 7.5 CURVE SMOOTH",
"310 10 OFFCURVE",
"309.5 11.5 OFFCURVE",
"308.5 14.5 CURVE SMOOTH",
"186 353.5 LINE",
"165.5 331 LINE",
"150.5 331 LINE",
"130 353.5 LINE",
"7.5 15 LINE SMOOTH",
"6.5 11.5 OFFCURVE",
"6 10 OFFCURVE",
"6 7.5 CURVE SMOOTH",
"6 2 OFFCURVE",
"12.5 -1 OFFCURVE",
"28 -1 CURVE SMOOTH"
);
},
{
closed = 1;
nodes = (
"149.5 284.5 LINE SMOOTH",
"153.5 294.5 OFFCURVE",
"155.5 305 OFFCURVE",
"157 315 CURVE",
"158.5 315 LINE",
"160 305 OFFCURVE",
"161.5 294 OFFCURVE",
"164.5 284.5 CURVE SMOOTH",
"218.5 131 LINE",
"95 131 LINE"
);
},
{
closed = 1;
nodes = (
"160.5 424 OFFCURVE",
"170.5 427.5 OFFCURVE",
"176 433.5 CURVE SMOOTH",
"208.5 466.5 OFFCURVE",
"213.5 469 OFFCURVE",
"213.5 472.5 CURVE SMOOTH",
"213.5 477.5 OFFCURVE",
"205.5 479.5 OFFCURVE",
"188.5 479.5 CURVE SMOOTH",
"172 479.5 OFFCURVE",
"162.5 476 OFFCURVE",
"156.5 466 CURVE SMOOTH",
"150.5 454.5 OFFCURVE",
"147 448 OFFCURVE",
"138 429 CURVE SMOOTH",
"138 425.5 OFFCURVE",
"141 424 OFFCURVE",
"149.5 424 CURVE SMOOTH"
);
}
);
width = 316;
},
{
components = (
{
disableAlignment = 1;
name = ring;
transform = "{1, 0, 0, 1, 75.832, 24.246}";
}
);
layerId = "73D3DE9D-4D16-48FA-A6EF-561C99E37BFC";
name = Bold;
paths = (
{
closed = 1;
nodes = (
"52 -1 LINE SMOOTH",
"64 -1 OFFCURVE",
"73 2 OFFCURVE",
"76 10 CURVE SMOOTH",
"96.5 72.5 LINE",
"218 72.5 LINE",
"239 10 LINE SMOOTH",
"241.5 1.5 OFFCURVE",
"253 -1 OFFCURVE",
"268 -1 CURVE SMOOTH",
"290.5 -1 LINE SMOOTH",
"308.5 -1 OFFCURVE",
"316 3.5 OFFCURVE",
"316 10.5 CURVE SMOOTH",
"316 12.5 OFFCURVE",
"315.5 16 OFFCURVE",
"315 19.5 CURVE SMOOTH",
"201 351.5 LINE",
"171.5 326 LINE",
"145 326 LINE",
"115.5 351.5 LINE",
"2 19.5 LINE SMOOTH",
"1 16 OFFCURVE",
"0 12.5 OFFCURVE",
"0 10.5 CURVE SMOOTH",
"0 3.5 OFFCURVE",
"10 -1 OFFCURVE",
"31.5 -1 CURVE SMOOTH"
);
},
{
closed = 1;
nodes = (
"149 232.5 LINE SMOOTH",
"153.5 243.5 OFFCURVE",
"155 254.5 OFFCURVE",
"156.5 265.5 CURVE",
"159 265.5 LINE",
"161 254.5 OFFCURVE",
"163.5 243.5 OFFCURVE",
"166.5 232.5 CURVE SMOOTH",
"196 140.5 LINE",
"118.5 140.5 LINE"
);
},
{
closed = 1;
nodes = (
"175 419 OFFCURVE",
"184 425.5 OFFCURVE",
"189.5 431.5 CURVE SMOOTH",
"228 467.5 OFFCURVE",
"231 469 OFFCURVE",
"231 473 CURVE SMOOTH",
"231 479 OFFCURVE",
"220.5 480.5 OFFCURVE",
"200 480.5 CURVE SMOOTH",
"179 480.5 OFFCURVE",
"162 477 OFFCURVE",
"155.5 466.5 CURVE SMOOTH",
"148 454.5 OFFCURVE",
"143 445.5 OFFCURVE",
"134.5 426.5 CURVE SMOOTH",
"134.5 421 OFFCURVE",
"138.5 419 OFFCURVE",
"150.5 419 CURVE SMOOTH"
);
}
);
width = 316;
}
);
leftKerningGroup = A;
rightKerningGroup = A;
unicode = 01FA;
},
{
glyphname = AE;
lastChange = "2015-01-29 02:55:36 +0000";
layers = (
{
anchors = (
{
name = top;
position = "{236.5, 361}";
}
);
layerId = "30990018-E5AF-4C66-A976-C36FA03CF41D";
name = Regular;
paths = (
{
closed = 1;
nodes = (
"17 -1 LINE SMOOTH",
"26.5 -1 OFFCURVE",
"34.5 1.5 OFFCURVE",
"37.5 7 CURVE SMOOTH",
"79 92 LINE",
"231.5 92 LINE",
"247.5 15 LINE SMOOTH",
"249.5 4.5 OFFCURVE",
"255 0 OFFCURVE",
"266 0 CURVE SMOOTH",
"414 0 LINE SMOOTH",
"421 0 OFFCURVE",
"424.5 4.5 OFFCURVE",
"424.5 15.5 CURVE SMOOTH",
"424.5 24 LINE SMOOTH",
"424.5 34.5 OFFCURVE",
"421 39.5 OFFCURVE",
"414 39.5 CURVE SMOOTH",
"288.5 39.5 LINE",
"261.5 165 LINE",
"398.5 165 LINE SMOOTH",
"405.5 165 OFFCURVE",
"408.5 170 OFFCURVE",
"408.5 180.5 CURVE SMOOTH",
"408.5 188.5 LINE SMOOTH",
"408.5 200 OFFCURVE",
"405.5 204 OFFCURVE",
"398.5 204 CURVE SMOOTH",
"253 204 LINE",
"227 322 LINE",
"413.5 322 LINE SMOOTH",
"421 322 OFFCURVE",
"424 326.5 OFFCURVE",
"424 337.5 CURVE SMOOTH",
"424 345.5 LINE SMOOTH",
"424 356.5 OFFCURVE",
"421 361 OFFCURVE",
"413.5 361 CURVE SMOOTH",
"184.5 361 LINE SMOOTH",
"173 361 OFFCURVE",
"166.5 357 OFFCURVE",
"162 347 CURVE SMOOTH",
"-4 16 LINE SMOOTH",
"-5 12.5 OFFCURVE",
"-5.5 10 OFFCURVE",
"-5.5 7.5 CURVE SMOOTH",
"-5.5 2 OFFCURVE",
"-1 -1 OFFCURVE",
"14.5 -1 CURVE SMOOTH"
);
},
{
closed = 1;
nodes = (
"175.5 284.5 LINE",
"186 315 LINE",
"187 315 LINE",
"189.5 284.5 LINE",
"222.5 130.5 LINE",
"99 130.5 LINE"
);
}
);
width = 472;
},
{
anchors = (
{
name = top;
position = "{236.5, 361}";
}
);
layerId = "73D3DE9D-4D16-48FA-A6EF-561C99E37BFC";
name = Bold;
paths = (
{
closed = 1;
nodes = (
"51 -1 LINE SMOOTH",
"63.5 -1 OFFCURVE",
"71.5 3 OFFCURVE",
"74.5 10 CURVE SMOOTH",
"105.5 72.5 LINE",
"231.5 72.5 LINE",
"242 15.5 LINE SMOOTH",
"244 4.5 OFFCURVE",
"248.5 0 OFFCURVE",
"260 0 CURVE SMOOTH",
"430.5 0 LINE SMOOTH",
"441.5 0 OFFCURVE",
"446 7.5 OFFCURVE",
"446 26 CURVE SMOOTH",
"446 41.5 LINE SMOOTH",
"446 60 OFFCURVE",
"441.5 67.5 OFFCURVE",
"430.5 67.5 CURVE SMOOTH",
"310.5 67.5 LINE",
"294.5 151 LINE",
"416 151 LINE SMOOTH",
"427.5 151 OFFCURVE",
"431.5 159 OFFCURVE",
"431.5 177 CURVE SMOOTH",
"431.5 193 LINE SMOOTH",
"431.5 211 OFFCURVE",
"427.5 218.5 OFFCURVE",
"416 218.5 CURVE SMOOTH",
"281 218.5 LINE",
"267 293.5 LINE",
"430 293.5 LINE SMOOTH",
"441 293.5 OFFCURVE",
"445.5 301 OFFCURVE",
"445.5 319.5 CURVE SMOOTH",
"445.5 335.5 LINE SMOOTH",
"445.5 353 OFFCURVE",
"441 361 OFFCURVE",
"430 361 CURVE SMOOTH",
"191 361 LINE SMOOTH",
"180 361 OFFCURVE",
"173 357 OFFCURVE",
"168.5 347 CURVE SMOOTH",
"3 19.5 LINE SMOOTH",
"1 16.5 OFFCURVE",
"0.5 12.5 OFFCURVE",
"0.5 10.5 CURVE SMOOTH",
"0.5 3.5 OFFCURVE",
"10.5 -1 OFFCURVE",
"32 -1 CURVE SMOOTH"
);
},
{
closed = 1;
nodes = (
"185.5 234.5 LINE",
"200 276.5 LINE",
"201.5 276.5 LINE",
"201.5 234 LINE",
"218.5 140.5 LINE",
"139.5 140.5 LINE"
);
}
);
width = 472;
}
);
unicode = 00C6;
},
{
glyphname = B;
lastChange = "2015-01-29 02:55:36 +0000";
layers = (
{
layerId = "30990018-E5AF-4C66-A976-C36FA03CF41D";
name = Regular;
paths = (
{
closed = 1;
nodes = (
"154.5 0 LINE SMOOTH",
"241 0 OFFCURVE",
"289 32 OFFCURVE",
"289 103.5 CURVE SMOOTH",
"289 171.5 OFFCURVE",
"216.5 189.5 OFFCURVE",
"216.5 189.5 CURVE",
"216.5 191.5 LINE",
"246.5 200 OFFCURVE",
"273.5 235 OFFCURVE",
"273.5 269.5 CURVE SMOOTH",
"273.5 324 OFFCURVE",
"234.5 361 OFFCURVE",
"157.5 361 CURVE SMOOTH",
"65.5 361 LINE SMOOTH",
"55 361 OFFCURVE",
"50 356.5 OFFCURVE",
"50 345.5 CURVE SMOOTH",
"50 15.5 LINE SMOOTH",
"50 4.5 OFFCURVE",
"55 0 OFFCURVE",
"65.5 0 CURVE SMOOTH"
);
},
{
closed = 1;
nodes = (
"95 166 LINE",
"162 166 LINE SMOOTH",
"215.5 166 OFFCURVE",
"242 143.5 OFFCURVE",
"242 105.5 CURVE SMOOTH",
"242 65 OFFCURVE",
"216.5 39.5 OFFCURVE",
"170.5 39.5 CURVE SMOOTH",
"95 39.5 LINE"
);
},
{
closed = 1;
nodes = (
"95 322 LINE",
"153.5 322 LINE SMOOTH",
"205 322 OFFCURVE",
"226.5 304 OFFCURVE",
"226.5 265.5 CURVE SMOOTH",
"226.5 232 OFFCURVE",
"197 205.5 OFFCURVE",
"155.5 205.5 CURVE SMOOTH",
"95 205.5 LINE"
);
}
);
width = 306;
},
{
layerId = "73D3DE9D-4D16-48FA-A6EF-561C99E37BFC";
name = Bold;
paths = (
{
closed = 1;
nodes = (
"165.5 0 LINE SMOOTH",
"253 0 OFFCURVE",
"294.5 38 OFFCURVE",
"294.5 104.5 CURVE SMOOTH",
"294.5 144.5 OFFCURVE",
"266 181 OFFCURVE",
"224.5 189.5 CURVE",
"224 191.5 LINE",
"255 204 OFFCURVE",
"280 234.5 OFFCURVE",
"280 269.5 CURVE SMOOTH",
"280 324 OFFCURVE",
"246 361 OFFCURVE",
"158.5 361 CURVE SMOOTH",
"56.5 361 LINE SMOOTH",
"41.5 361 OFFCURVE",
"35.5 355 OFFCURVE",
"35.5 340.5 CURVE SMOOTH",
"35.5 20.5 LINE SMOOTH",
"35.5 6 OFFCURVE",
"41.5 0 OFFCURVE",
"56.5 0 CURVE SMOOTH"
);
},
{
closed = 1;
nodes = (
"115 149.5 LINE",
"157 149.5 LINE SMOOTH",
"193 149.5 OFFCURVE",
"213 136 OFFCURVE",
"213 109.5 CURVE SMOOTH",
"213 82.5 OFFCURVE",
"195.5 67.5 OFFCURVE",
"165.5 67.5 CURVE SMOOTH",
"115 67.5 LINE"
);
},
{
closed = 1;
nodes = (
"115 294 LINE",
"151.5 294 LINE SMOOTH",
"183 294 OFFCURVE",
"198.5 281 OFFCURVE",
"198.5 255.5 CURVE SMOOTH",
"198.5 234 OFFCURVE",
"181.5 217 OFFCURVE",
"150.5 217 CURVE SMOOTH",
"115 217 LINE"
);
}
);
width = 306;
}
);
unicode = 0042;
},
{
glyphname = C;
lastChange = "2015-01-29 02:55:36 +0000";
layers = (
{
anchors = (
{
name = bottom;
position = "{186, 0}";
},
{
name = top;
position = "{183, 361}";
}
);
layerId = "30990018-E5AF-4C66-A976-C36FA03CF41D";
name = Regular;
paths = (
{
closed = 1;
nodes = (
"255.5 -3.5 OFFCURVE",
"302 20 OFFCURVE",
"302 34.5 CURVE SMOOTH",
"302 40.5 OFFCURVE",
"291 62 OFFCURVE",
"284.5 62 CURVE SMOOTH",
"277.5 62 OFFCURVE",
"248.5 36 OFFCURVE",
"195.5 36 CURVE SMOOTH",
"114.5 36 OFFCURVE",
"76.5 81 OFFCURVE",
"76.5 180 CURVE SMOOTH",
"76.5 281.5 OFFCURVE",
"115 325 OFFCURVE",
"197.5 325 CURVE SMOOTH",
"247 325 OFFCURVE",
"272 302 OFFCURVE",
"277.5 302 CURVE SMOOTH",
"284.5 302 OFFCURVE",
"295 323 OFFCURVE",
"295 332 CURVE SMOOTH",
"295 346 OFFCURVE",
"247.5 364 OFFCURVE",
"196.5 364 CURVE SMOOTH",
"86.5 364 OFFCURVE",
"29.5 304 OFFCURVE",
"29.5 180.5 CURVE SMOOTH",
"29.5 55 OFFCURVE",
"82.5 -3.5 OFFCURVE",
"195.5 -3.5 CURVE SMOOTH"
);
}
);
width = 319.5;
},
{
anchors = (
{
name = bottom;
position = "{192.5, 0}";
},
{
name = top;
position = "{190, 361}";
}
);
layerId = "73D3DE9D-4D16-48FA-A6EF-561C99E37BFC";
name = Bold;
paths = (
{
closed = 1;
nodes = (
"234 -4 OFFCURVE",
"307.5 8.5 OFFCURVE",
"307.5 39.5 CURVE SMOOTH",
"307.5 48 OFFCURVE",
"294 84 OFFCURVE",
"277.5 84 CURVE SMOOTH",
"269.5 84 OFFCURVE",
"242 63.5 OFFCURVE",
"193 63.5 CURVE SMOOTH",
"133.5 63.5 OFFCURVE",
"104.5 103.5 OFFCURVE",
"104.5 181 CURVE SMOOTH",
"104.5 258.5 OFFCURVE",
"133 297 OFFCURVE",
"193.5 297 CURVE SMOOTH",
"243 297 OFFCURVE",
"263.5 280.5 OFFCURVE",
"269.5 280.5 CURVE SMOOTH",
"283 280.5 OFFCURVE",
"303.5 315 OFFCURVE",
"303.5 329.5 CURVE SMOOTH",
"303.5 351 OFFCURVE",
"241 365.5 OFFCURVE",
"195.5 365.5 CURVE SMOOTH",
"81 365.5 OFFCURVE",
"23 304.5 OFFCURVE",
"23 181.5 CURVE SMOOTH",
"23 54 OFFCURVE",
"77.5 -4 OFFCURVE",
"193 -4 CURVE SMOOTH"
);
}
);
width = 319.5;
}
);
unicode = 0043;
},
{
glyphname = D;
lastChange = "2015-01-29 02:55:36 +0000";
layers = (
{
anchors = (
{
name = bottom;
position = "{169, 0}";
},
{
name = center;
position = "{179.5, 180.5}";
},
{
name = top;
position = "{161, 361}";
}
);
layerId = "30990018-E5AF-4C66-A976-C36FA03CF41D";
name = Regular;
paths = (
{
closed = 1;
nodes = (
"170 0 LINE SMOOTH",
"258.5 0 OFFCURVE",
"329.5 46.5 OFFCURVE",
"329.5 180.5 CURVE SMOOTH",
"329.5 314.5 OFFCURVE",
"258.5 361 OFFCURVE",
"170 361 CURVE SMOOTH",
"65.5 361 LINE SMOOTH",
"55 361 OFFCURVE",
"50 356.5 OFFCURVE",
"50 345.5 CURVE SMOOTH",
"50 15.5 LINE SMOOTH",
"50 4.5 OFFCURVE",
"55 0 OFFCURVE",
"65.5 0 CURVE SMOOTH"
);
},
{
closed = 1;
nodes = (
"95 322 LINE",
"166 322 LINE SMOOTH",
"231 322 OFFCURVE",
"282.5 283.5 OFFCURVE",
"282.5 180.5 CURVE SMOOTH",
"282.5 77.5 OFFCURVE",
"231 39.5 OFFCURVE",
"166 39.5 CURVE SMOOTH",
"95 39.5 LINE"
);
}
);
width = 358.5;
},
{
anchors = (
{
name = bottom;
position = "{170.5, 0}";
},
{
name = center;
position = "{179.5, 180.5}";
},
{
name = top;
position = "{171.5, 361}";
}
);
layerId = "73D3DE9D-4D16-48FA-A6EF-561C99E37BFC";
name = Bold;
paths = (
{
closed = 1;
nodes = (
"171.5 0 LINE SMOOTH",
"278 0 OFFCURVE",
"337 64 OFFCURVE",
"337 180.5 CURVE SMOOTH",
"337 297 OFFCURVE",
"278 361 OFFCURVE",
"171.5 361 CURVE SMOOTH",
"56.5 361 LINE SMOOTH",
"41.5 361 OFFCURVE",
"35.5 355 OFFCURVE",
"35.5 340.5 CURVE SMOOTH",
"35.5 20.5 LINE SMOOTH",
"35.5 6 OFFCURVE",
"41.5 0 OFFCURVE",
"56.5 0 CURVE SMOOTH"
);
},
{
closed = 1;
nodes = (
"115.5 293.5 LINE",
"171.5 293.5 LINE SMOOTH",
"227 293.5 OFFCURVE",
"255 254 OFFCURVE",
"255 180.5 CURVE SMOOTH",
"255 107.5 OFFCURVE",
"227 67.5 OFFCURVE",
"171.5 67.5 CURVE SMOOTH",
"115.5 67.5 LINE"
);
}
);
width = 358.5;
}
);
unicode = 0044;
},
{
glyphname = Eth;
lastChange = "2015-01-29 02:55:36 +0000";
layers = (
{
layerId = "30990018-E5AF-4C66-A976-C36FA03CF41D";
name = Regular;
paths = (
{
closed = 1;
nodes = (
"170.5 0 LINE SMOOTH",
"259 0 OFFCURVE",
"330.5 46.5 OFFCURVE",
"330.5 180.5 CURVE SMOOTH",
"330.5 314.5 OFFCURVE",
"259 361 OFFCURVE",
"170.5 361 CURVE SMOOTH",
"59 361 LINE SMOOTH",
"48.5 361 OFFCURVE",
"43.5 356.5 OFFCURVE",
"43.5 345.5 CURVE SMOOTH",
"43.5 204 LINE",
"10.5 204 LINE SMOOTH",
"3.5 204 OFFCURVE",
"0 200 OFFCURVE",
"0 188.5 CURVE SMOOTH",
"0 180.5 LINE SMOOTH",
"0 170 OFFCURVE",
"3.5 165 OFFCURVE",
"10.5 165 CURVE SMOOTH",
"43.5 165 LINE",
"43.5 15.5 LINE SMOOTH",
"43.5 4.5 OFFCURVE",
"48.5 0 OFFCURVE",
"59 0 CURVE SMOOTH"
);
},
{
closed = 1;
nodes = (
"89 165 LINE",
"146 165 LINE SMOOTH",
"153.5 165 OFFCURVE",
"156 170 OFFCURVE",
"156 180.5 CURVE SMOOTH",
"156 188.5 LINE SMOOTH",
"156 200 OFFCURVE",
"153.5 204 OFFCURVE",
"146 204 CURVE SMOOTH",
"89 204 LINE",
"89 322 LINE",
"166.5 322 LINE SMOOTH",
"231.5 322 OFFCURVE",
"284 283.5 OFFCURVE",
"284 180.5 CURVE SMOOTH",
"284 77.5 OFFCURVE",
"231.5 39.5 OFFCURVE",
"166.5 39.5 CURVE SMOOTH",
"89 39.5 LINE"
);
}
);
width = 359;
},
{
layerId = "73D3DE9D-4D16-48FA-A6EF-561C99E37BFC";
name = Bold;
paths = (
{
closed = 1;
nodes = (
"172.5 0 LINE SMOOTH",
"279 0 OFFCURVE",
"337.5 64 OFFCURVE",
"337.5 180.5 CURVE SMOOTH",
"337.5 297 OFFCURVE",
"279 361 OFFCURVE",
"172.5 361 CURVE SMOOTH",
"57 361 LINE SMOOTH",
"42.5 361 OFFCURVE",
"36.5 355 OFFCURVE",
"36.5 340.5 CURVE SMOOTH",
"36.5 217 LINE",
"21.5 217 LINE SMOOTH",
"11 217 OFFCURVE",
"6 209 OFFCURVE",
"6 191.5 CURVE SMOOTH",
"6 176 LINE SMOOTH",
"6 157.5 OFFCURVE",
"11 150 OFFCURVE",
"21.5 150 CURVE SMOOTH",
"36.5 150 LINE",
"36.5 20.5 LINE SMOOTH",
"36.5 6 OFFCURVE",
"42.5 0 OFFCURVE",
"57 0 CURVE SMOOTH"
);
},
{
closed = 1;
nodes = (
"117 150 LINE",
"147 150 LINE SMOOTH",
"157.5 150 OFFCURVE",
"162.5 157.5 OFFCURVE",
"162.5 176 CURVE SMOOTH",
"162.5 191.5 LINE SMOOTH",
"162.5 209 OFFCURVE",
"157.5 217 OFFCURVE",
"147 217 CURVE SMOOTH",
"117 217 LINE",
"117 293.5 LINE",
"172.5 293.5 LINE SMOOTH",
"228 293.5 OFFCURVE",
"256.5 254 OFFCURVE",
"256.5 180.5 CURVE SMOOTH",
"256.5 107.5 OFFCURVE",
"228 67.5 OFFCURVE",
"172.5 67.5 CURVE SMOOTH",
"117 67.5 LINE"
);
}
);
width = 359;
}
);
unicode = 00D0;
},
{
glyphname = E;
lastChange = "2015-01-29 02:55:36 +0000";
layers = (
{
anchors = (
{
name = bottom;
position = "{155, 0}";
},
{
name = ogonek;
position = "{246.5, 0}";
},
{
name = top;
position = "{153, 361}";
}
);
layerId = "30990018-E5AF-4C66-A976-C36FA03CF41D";
name = Regular;
paths = (
{
closed = 1;
nodes = (
"246.5 0 LINE SMOOTH",
"253.5 0 OFFCURVE",
"256.5 4.5 OFFCURVE",
"256.5 15.5 CURVE SMOOTH",
"256.5 24 LINE SMOOTH",
"256.5 34.5 OFFCURVE",
"253.5 39.5 OFFCURVE",
"246.5 39.5 CURVE SMOOTH",
"95 39.5 LINE",
"95 165 LINE",
"230.5 165 LINE SMOOTH",
"237.5 165 OFFCURVE",
"240 170 OFFCURVE",
"240 180.5 CURVE SMOOTH",
"240 188.5 LINE SMOOTH",
"240 200 OFFCURVE",
"237.5 204 OFFCURVE",
"230.5 204 CURVE SMOOTH",
"95 204 LINE",
"95 322 LINE",
"246 322 LINE SMOOTH",
"253 322 OFFCURVE",
"255.5 326.5 OFFCURVE",
"255.5 337.5 CURVE SMOOTH",
"255.5 345.5 LINE SMOOTH",
"255.5 356.5 OFFCURVE",
"253 361 OFFCURVE",
"246 361 CURVE SMOOTH",
"65.5 361 LINE SMOOTH",
"55 361 OFFCURVE",
"50 356.5 OFFCURVE",
"50 345.5 CURVE SMOOTH",
"50 15.5 LINE SMOOTH",
"50 4.5 OFFCURVE",
"55 0 OFFCURVE",
"65.5 0 CURVE SMOOTH"
);
}
);
width = 281.5;
},
{
anchors = (
{
name = bottom;
position = "{148, 0}";
},
{
name = ogonek;
position = "{244, 0}";
},
{
name = top;
position = "{152, 361}";
}
);
layerId = "73D3DE9D-4D16-48FA-A6EF-561C99E37BFC";
name = Bold;
paths = (
{
closed = 1;
nodes = (
"246 0 LINE SMOOTH",
"256.5 0 OFFCURVE",
"261.5 7.5 OFFCURVE",
"261.5 26 CURVE SMOOTH",
"261.5 41.5 LINE SMOOTH",
"261.5 60 OFFCURVE",
"256.5 67.5 OFFCURVE",
"246 67.5 CURVE SMOOTH",
"115 67.5 LINE",
"115 151 LINE",
"231.5 151 LINE SMOOTH",
"242 151 OFFCURVE",
"246.5 159 OFFCURVE",
"246.5 177 CURVE SMOOTH",
"246.5 193 LINE SMOOTH",
"246.5 211 OFFCURVE",
"242 218.5 OFFCURVE",
"231.5 218.5 CURVE SMOOTH",
"115 218.5 LINE",
"115 293.5 LINE",
"245 293.5 LINE SMOOTH",
"255.5 293.5 OFFCURVE",
"260.5 301 OFFCURVE",
"260.5 319.5 CURVE SMOOTH",
"260.5 335.5 LINE SMOOTH",
"260.5 353 OFFCURVE",
"255.5 361 OFFCURVE",
"245 361 CURVE SMOOTH",
"56.5 361 LINE SMOOTH",
"41.5 361 OFFCURVE",
"35.5 355 OFFCURVE",
"35.5 340.5 CURVE SMOOTH",
"35.5 20.5 LINE SMOOTH",
"35.5 6 OFFCURVE",
"41.5 0 OFFCURVE",
"56.5 0 CURVE SMOOTH"
);
}
);
width = 281.5;
}
);
unicode = 0045;
},
{
glyphname = F;
lastChange = "2015-01-29 02:55:36 +0000";
layers = (
{
layerId = "30990018-E5AF-4C66-A976-C36FA03CF41D";
name = Regular;
paths = (
{
closed = 1;
nodes = (
"74.5 -1 LINE SMOOTH",
"89 -1 OFFCURVE",
"95 3.5 OFFCURVE",
"95 10.5 CURVE SMOOTH",
"95 165 LINE",
"218.5 165 LINE SMOOTH",
"226 165 OFFCURVE",
"229 170 OFFCURVE",
"229 180.5 CURVE SMOOTH",
"229 188.5 LINE SMOOTH",
"229 200 OFFCURVE",
"226 204 OFFCURVE",
"218.5 204 CURVE SMOOTH",
"95 204 LINE",
"95 322 LINE",
"228 322 LINE SMOOTH",
"235 322 OFFCURVE",
"238.5 326.5 OFFCURVE",
"238.5 337.5 CURVE SMOOTH",
"238.5 345.5 LINE SMOOTH",
"238.5 356.5 OFFCURVE",
"235 361 OFFCURVE",
"228 361 CURVE SMOOTH",
"65.5 361 LINE SMOOTH",
"55 361 OFFCURVE",
"50 356.5 OFFCURVE",
"50 345.5 CURVE SMOOTH",
"50 10.5 LINE SMOOTH",
"50 3.5 OFFCURVE",
"56.5 -1 OFFCURVE",
"71 -1 CURVE SMOOTH"
);
}
);
width = 259.5;
},
{
layerId = "73D3DE9D-4D16-48FA-A6EF-561C99E37BFC";
name = Bold;
paths = (
{
closed = 1;
nodes = (
"84 -1 LINE SMOOTH",
"105.5 -1 OFFCURVE",
"115 4.5 OFFCURVE",
"115 15.5 CURVE SMOOTH",
"115 150.5 LINE",
"224.5 150.5 LINE SMOOTH",
"236 150.5 OFFCURVE",
"240 158.5 OFFCURVE",
"240 176.5 CURVE SMOOTH",
"240 192.5 LINE SMOOTH",
"240 210.5 OFFCURVE",
"236 218 OFFCURVE",
"224.5 218 CURVE SMOOTH",
"115 218 LINE",
"115 293.5 LINE",
"228.5 293.5 LINE SMOOTH",
"239 293.5 OFFCURVE",
"244 301 OFFCURVE",
"244 319.5 CURVE SMOOTH",
"244 335.5 LINE SMOOTH",
"244 353 OFFCURVE",
"239 361 OFFCURVE",
"228.5 361 CURVE SMOOTH",
"56.5 361 LINE SMOOTH",
"41.5 361 OFFCURVE",
"35.5 355 OFFCURVE",
"35.5 340.5 CURVE SMOOTH",
"35.5 15.5 LINE SMOOTH",
"35.5 4.5 OFFCURVE",
"45 -1 OFFCURVE",
"66.5 -1 CURVE SMOOTH"
);
}
);
width = 259.5;
}
);
unicode = 0046;
},
{
glyphname = G;
lastChange = "2015-01-29 02:55:36 +0000";
layers = (
{
anchors = (
{
name = bottom;
position = "{200, 0}";
},
{
name = top;
position = "{173, 361}";
}
);
layerId = "30990018-E5AF-4C66-A976-C36FA03CF41D";
name = Regular;
paths = (
{
closed = 1;
nodes = (
"247.5 -3.5 OFFCURVE",
"304 5 OFFCURVE",
"304 34.5 CURVE SMOOTH",
"304 170.5 LINE SMOOTH",
"304 181.5 OFFCURVE",
"299.5 186 OFFCURVE",
"288.5 186 CURVE SMOOTH",
"198 186 LINE SMOOTH",
"191 186 OFFCURVE",
"187.5 181.5 OFFCURVE",
"187.5 170.5 CURVE SMOOTH",
"187.5 162.5 LINE SMOOTH",
"187.5 151.5 OFFCURVE",
"191 147 OFFCURVE",
"198 147 CURVE SMOOTH",
"258.5 147 LINE",
"258.5 42.5 LINE",
"244.5 39.5 OFFCURVE",
"218.5 36 OFFCURVE",
"192 36 CURVE SMOOTH",
"100 36 OFFCURVE",
"76.5 103 OFFCURVE",
"76.5 182 CURVE SMOOTH",
"76.5 272 OFFCURVE",
"106.5 325 OFFCURVE",
"197.5 325 CURVE SMOOTH",
"247 325 OFFCURVE",
"272 302 OFFCURVE",
"277.5 302 CURVE SMOOTH",
"284.5 302 OFFCURVE",
"295 323 OFFCURVE",
"295 332 CURVE SMOOTH",
"295 346 OFFCURVE",
"247.5 364 OFFCURVE",
"196.5 364 CURVE SMOOTH",
"88.5 364 OFFCURVE",
"29.5 306 OFFCURVE",
"29.5 177.5 CURVE SMOOTH",
"29.5 55 OFFCURVE",
"86.5 -3.5 OFFCURVE",
"188.5 -3.5 CURVE SMOOTH"
);
}
);
width = 346.5;
},
{
anchors = (
{
name = bottom;
position = "{183, 0}";
},
{
name = top;
position = "{180.5, 361}";
}
);
layerId = "73D3DE9D-4D16-48FA-A6EF-561C99E37BFC";
name = Bold;
paths = (
{
closed = 1;
nodes = (
"229.5 -4 OFFCURVE",
"313.5 1 OFFCURVE",
"313.5 36.5 CURVE SMOOTH",
"313.5 180 LINE SMOOTH",
"313.5 194.5 OFFCURVE",
"307 201 OFFCURVE",
"292 201 CURVE SMOOTH",
"187.5 201 LINE SMOOTH",
"177 201 OFFCURVE",
"172 193 OFFCURVE",
"172 175 CURVE SMOOTH",
"172 158.5 LINE SMOOTH",
"172 140.5 OFFCURVE",
"177 133 OFFCURVE",
"187.5 133 CURVE SMOOTH",
"233 133 LINE",
"233 67 LINE",
"219 64 OFFCURVE",
"207.5 63.5 OFFCURVE",
"193 63.5 CURVE SMOOTH",
"133.5 63.5 OFFCURVE",
"104.5 103.5 OFFCURVE",
"104.5 181 CURVE SMOOTH",
"104.5 258.5 OFFCURVE",
"133 297 OFFCURVE",
"193.5 297 CURVE SMOOTH",
"243 297 OFFCURVE",
"266 280.5 OFFCURVE",
"272.5 280.5 CURVE SMOOTH",
"285 280.5 OFFCURVE",
"306 315 OFFCURVE",
"306 329.5 CURVE SMOOTH",
"306 351 OFFCURVE",
"241 365.5 OFFCURVE",
"195.5 365.5 CURVE SMOOTH",
"81 365.5 OFFCURVE",
"23 304.5 OFFCURVE",
"23 181.5 CURVE SMOOTH",
"23 54 OFFCURVE",
"77.5 -4 OFFCURVE",
"193 -4 CURVE SMOOTH"
);
}
);
width = 346.5;
}
);
unicode = 0047;
},
{
glyphname = H;
lastChange = "2015-01-29 02:55:36 +0000";
layers = (
{
anchors = (
{
name = bottom;
position = "{193.5, 0}";
},
{
name = center;
position = "{192, 269.5}";
},
{
name = top;
position = "{189.5, 361}";
}
);
layerId = "30990018-E5AF-4C66-A976-C36FA03CF41D";
name = Regular;
paths = (
{
closed = 1;
nodes = (
"74.5 -1 LINE SMOOTH",
"89 -1 OFFCURVE",
"95 3.5 OFFCURVE",
"95 10.5 CURVE SMOOTH",
"95 165.5 LINE",
"282.5 165.5 LINE",
"282.5 10.5 LINE SMOOTH",
"282.5 3.5 OFFCURVE",
"288.5 -1 OFFCURVE",
"303 -1 CURVE SMOOTH",
"307 -1 LINE SMOOTH",
"321.5 -1 OFFCURVE",
"327.5 3.5 OFFCURVE",
"327.5 10.5 CURVE SMOOTH",
"327.5 351 LINE SMOOTH",
"327.5 358 OFFCURVE",
"321.5 362 OFFCURVE",
"307 362 CURVE SMOOTH",
"303 362 LINE SMOOTH",
"288.5 362 OFFCURVE",
"282.5 358 OFFCURVE",
"282.5 351 CURVE SMOOTH",
"282.5 205 LINE",
"95 205 LINE",
"95 351 LINE SMOOTH",
"95 358 OFFCURVE",
"89 362 OFFCURVE",
"74.5 362 CURVE SMOOTH",
"71 362 LINE SMOOTH",
"56.5 362 OFFCURVE",
"50 358 OFFCURVE",
"50 351 CURVE SMOOTH",
"50 10.5 LINE SMOOTH",
"50 3.5 OFFCURVE",
"56.5 -1 OFFCURVE",
"71 -1 CURVE SMOOTH"
);
}
);
width = 378;
},
{
anchors = (
{
name = bottom;
position = "{196.5, 0}";
},
{
name = center;
position = "{193, 269.5}";
},
{
name = top;
position = "{189.5, 361}";
}
);
layerId = "73D3DE9D-4D16-48FA-A6EF-561C99E37BFC";
name = Bold;
paths = (
{
closed = 1;
nodes = (
"92.5 -1 LINE SMOOTH",
"114 -1 OFFCURVE",
"123.5 4.5 OFFCURVE",
"123.5 15.5 CURVE SMOOTH",
"123.5 150 LINE",
"262.5 150 LINE",
"262.5 15.5 LINE SMOOTH",
"262.5 4.5 OFFCURVE",
"272 -1 OFFCURVE",
"293.5 -1 CURVE SMOOTH",
"311.5 -1 LINE SMOOTH",
"333 -1 OFFCURVE",
"342.5 4.5 OFFCURVE",
"342.5 15.5 CURVE SMOOTH",
"342.5 345.5 LINE SMOOTH",
"342.5 356.5 OFFCURVE",
"333 362 OFFCURVE",
"311.5 362 CURVE SMOOTH",
"293.5 362 LINE SMOOTH",
"272 362 OFFCURVE",
"262.5 356.5 OFFCURVE",
"262.5 345.5 CURVE SMOOTH",
"262.5 218 LINE",
"123.5 218 LINE",
"123.5 345.5 LINE SMOOTH",
"123.5 356.5 OFFCURVE",
"114 362 OFFCURVE",
"92.5 362 CURVE SMOOTH",
"74 362 LINE SMOOTH",
"52.5 362 OFFCURVE",
"43 356.5 OFFCURVE",
"43 345.5 CURVE SMOOTH",
"43 15.5 LINE SMOOTH",
"43 4.5 OFFCURVE",
"52.5 -1 OFFCURVE",
"74 -1 CURVE SMOOTH"
);
}
);
width = 378;
}
);
unicode = 0048;
},
{
glyphname = I;
lastChange = "2015-01-29 02:55:36 +0000";
layers = (
{
anchors = (
{
name = bottom;
position = "{72, 0}";
},
{
name = ogonek;
position = "{86, 0}";
},
{
name = top;
position = "{72.5, 361}";
}
);
layerId = "30990018-E5AF-4C66-A976-C36FA03CF41D";
name = Regular;
paths = (
{
closed = 1;
nodes = (
"74.5 -1 LINE SMOOTH",
"89 -1 OFFCURVE",
"95 3.5 OFFCURVE",
"95 10.5 CURVE SMOOTH",
"95 351 LINE SMOOTH",
"95 358 OFFCURVE",
"89 362 OFFCURVE",
"74.5 362 CURVE SMOOTH",
"71 362 LINE SMOOTH",
"56.5 362 OFFCURVE",
"50 358 OFFCURVE",
"50 351 CURVE SMOOTH",
"50 10.5 LINE SMOOTH",
"50 3.5 OFFCURVE",
"56.5 -1 OFFCURVE",
"71 -1 CURVE SMOOTH"
);
}
);
width = 145.5;
},
{
anchors = (
{
name = bottom;
position = "{72.5, 0}";
},
{
name = ogonek;
position = "{94, 0}";
},
{
name = top;
position = "{72.5, 361}";
}
);
layerId = "73D3DE9D-4D16-48FA-A6EF-561C99E37BFC";
name = Bold;
paths = (
{
closed = 1;
nodes = (
"81.5 -1.5 LINE SMOOTH",
"103 -1.5 OFFCURVE",
"112.5 4.5 OFFCURVE",
"112.5 15.5 CURVE SMOOTH",
"112.5 345.5 LINE SMOOTH",
"112.5 356.5 OFFCURVE",
"103 362.5 OFFCURVE",
"81.5 362.5 CURVE SMOOTH",
"63.5 362.5 LINE SMOOTH",
"41.5 362.5 OFFCURVE",
"32.5 356.5 OFFCURVE",
"32.5 345.5 CURVE SMOOTH",
"32.5 15.5 LINE SMOOTH",
"32.5 4.5 OFFCURVE",
"41.5 -1.5 OFFCURVE",
"63.5 -1.5 CURVE SMOOTH"
);
}
);
width = 145.5;
}
);
unicode = 0049;
},
{
glyphname = J;
lastChange = "2015-01-29 02:55:36 +0000";
layers = (
{
anchors = (
{
name = top;
position = "{140, 361}";
}
);
layerId = "30990018-E5AF-4C66-A976-C36FA03CF41D";
name = Regular;
paths = (
{
closed = 1;
nodes = (
"134.5 -3.5 OFFCURVE",
"164.5 41 OFFCURVE",
"164.5 105.5 CURVE SMOOTH",
"164.5 351 LINE SMOOTH",
"164.5 358 OFFCURVE",
"158.5 362 OFFCURVE",
"144 362 CURVE SMOOTH",
"140 362 LINE SMOOTH",
"125 362 OFFCURVE",
"119 358 OFFCURVE",
"119 351 CURVE SMOOTH",
"119 100.5 LINE SMOOTH",
"119 56.5 OFFCURVE",
"98 37 OFFCURVE",
"47 37 CURVE SMOOTH",
"30.5 37 OFFCURVE",
"19 41.5 OFFCURVE",
"14.5 41.5 CURVE SMOOTH",
"6 41.5 OFFCURVE",
"3.5 15.5 OFFCURVE",
"3.5 13.5 CURVE SMOOTH",
"3.5 -0.5 OFFCURVE",
"35.5 -3.5 OFFCURVE",
"55.5 -3.5 CURVE SMOOTH"
);
}
);
width = 207.5;
},
{
anchors = (
{
name = top;
position = "{134.5, 361}";
}
);
layerId = "73D3DE9D-4D16-48FA-A6EF-561C99E37BFC";
name = Bold;
paths = (
{
closed = 1;
nodes = (
"140.5 -4 OFFCURVE",
"173 38.5 OFFCURVE",
"173 104 CURVE SMOOTH",
"173 345.5 LINE SMOOTH",
"173 356.5 OFFCURVE",
"164 362.5 OFFCURVE",
"142 362.5 CURVE SMOOTH",
"124.5 362.5 LINE SMOOTH",
"102.5 362.5 OFFCURVE",
"93.5 356.5 OFFCURVE",
"93.5 345.5 CURVE SMOOTH",
"93.5 117.5 LINE SMOOTH",
"93.5 79.5 OFFCURVE",
"81 63.5 OFFCURVE",
"50 63.5 CURVE SMOOTH",
"34 63.5 OFFCURVE",
"26.5 67.5 OFFCURVE",
"21 67.5 CURVE",
"5 66 OFFCURVE",
"0 29 OFFCURVE",
"0 19.5 CURVE SMOOTH",
"0 -3 OFFCURVE",
"51.5 -4 OFFCURVE",
"64 -4 CURVE SMOOTH"
);
}
);
width = 207.5;
}
);
unicode = 004A;
},
{
glyphname = K;
lastChange = "2015-01-29 02:55:36 +0000";
layers = (
{
anchors = (
{
name = bottom;
position = "{148.5, 0}";
},
{
name = top;
position = "{148.5, 361}";
}
);
layerId = "30990018-E5AF-4C66-A976-C36FA03CF41D";
name = Regular;
paths = (
{
closed = 1;
nodes = (
"74.5 -1 LINE SMOOTH",
"89 -1 OFFCURVE",
"95 3.5 OFFCURVE",
"95 10.5 CURVE SMOOTH",
"95 171.5 LINE",
"97.5 171.5 LINE",
"245 5.5 LINE SMOOTH",
"251.5 -1 OFFCURVE",
"262 -1 OFFCURVE",
"273.5 -1 CURVE SMOOTH",
"279.5 -1 LINE SMOOTH",
"295.5 -1 OFFCURVE",
"302 0.5 OFFCURVE",
"302 6 CURVE SMOOTH",
"302 8.5 OFFCURVE",
"301 10.5 OFFCURVE",
"298 14.5 CURVE SMOOTH",
"141 184.5 LINE",
"270 345.5 LINE SMOOTH",
"274 349.5 OFFCURVE",
"275.5 352.5 OFFCURVE",
"275.5 355.5 CURVE SMOOTH",
"275.5 359 OFFCURVE",
"269.5 362 OFFCURVE",
"257.5 362 CURVE SMOOTH",
"252.5 362 LINE SMOOTH",
"241 362 OFFCURVE",
"229 360.5 OFFCURVE",
"224 355 CURVE SMOOTH",
"97.5 193 LINE",
"95 193 LINE",
"95 351 LINE SMOOTH",
"95 358 OFFCURVE",
"89 362 OFFCURVE",
"74.5 362 CURVE SMOOTH",
"71 362 LINE SMOOTH",
"56.5 362 OFFCURVE",
"50 358 OFFCURVE",
"50 351 CURVE SMOOTH",
"50 10.5 LINE SMOOTH",
"50 3.5 OFFCURVE",
"56.5 -1 OFFCURVE",
"71 -1 CURVE SMOOTH"
);
}
);
width = 297;
},
{
anchors = (
{
name = bottom;
position = "{154, 0}";
},
{
name = top;
position = "{159, 361}";
}
);
layerId = "73D3DE9D-4D16-48FA-A6EF-561C99E37BFC";
name = Bold;
paths = (
{
closed = 1;
nodes = (
"84.5 -1 LINE SMOOTH",
"106.5 -1 OFFCURVE",
"115.5 4.5 OFFCURVE",
"115.5 15.5 CURVE SMOOTH",
"115.5 165 LINE",
"117.5 165.5 LINE",
"215 9 LINE SMOOTH",
"219 1 OFFCURVE",
"231.5 -1 OFFCURVE",
"246.5 -1 CURVE SMOOTH",
"276 -1 LINE SMOOTH",
"296 -1 OFFCURVE",
"305 2 OFFCURVE",
"305 6.5 CURVE SMOOTH",
"305 9.5 OFFCURVE",
"304 12.5 OFFCURVE",
"300.5 17.5 CURVE SMOOTH",
"187.5 191 LINE",
"287.5 343.5 LINE SMOOTH",
"290.5 348 OFFCURVE",
"291.5 352 OFFCURVE",
"291.5 354 CURVE SMOOTH",
"291.5 359 OFFCURVE",
"283 362 OFFCURVE",
"262.5 362 CURVE SMOOTH",
"238.5 362 LINE SMOOTH",
"223.5 362 OFFCURVE",
"212 360.5 OFFCURVE",
"207.5 352.5 CURVE SMOOTH",
"117.5 207 LINE",
"115.5 207.5 LINE",
"115.5 345.5 LINE SMOOTH",
"115.5 356.5 OFFCURVE",
"106.5 362 OFFCURVE",
"84.5 362 CURVE SMOOTH",
"66.5 362 LINE SMOOTH",
"45 362 OFFCURVE",
"35.5 356.5 OFFCURVE",
"35.5 345.5 CURVE SMOOTH",
"35.5 15.5 LINE SMOOTH",
"35.5 4.5 OFFCURVE",
"45 -1 OFFCURVE",
"66.5 -1 CURVE SMOOTH"
);
}
);
width = 297;
}
);
unicode = 004B;
},
{
glyphname = L;
lastChange = "2015-01-29 02:55:36 +0000";
layers = (
{
anchors = (
{
name = bottom;
position = "{145.5, 0}";
},
{
name = caron;
position = "{126, 361}";
},
{
name = center;
position = "{155, 172.5}";
},
{
name = top;
position = "{74.5, 362}";
}
);
layerId = "30990018-E5AF-4C66-A976-C36FA03CF41D";
name = Regular;
paths = (
{
closed = 1;
nodes = (
"237.5 0 LINE SMOOTH",
"244.5 0 OFFCURVE",
"247.5 4.5 OFFCURVE",
"247.5 15.5 CURVE SMOOTH",
"247.5 24 LINE SMOOTH",
"247.5 34.5 OFFCURVE",
"244.5 39.5 OFFCURVE",
"237.5 39.5 CURVE SMOOTH",
"95 39.5 LINE",
"95 351 LINE SMOOTH",
"95 358 OFFCURVE",
"89 362 OFFCURVE",
"74.5 362 CURVE SMOOTH",
"71 362 LINE SMOOTH",
"56.5 362 OFFCURVE",
"50 358 OFFCURVE",
"50 351 CURVE SMOOTH",
"50 15.5 LINE SMOOTH",
"50 4.5 OFFCURVE",
"55 0 OFFCURVE",
"65.5 0 CURVE SMOOTH"
);
}
);
width = 249.5;
},
{
anchors = (
{
name = bottom;
position = "{125, 0}";
},
{
name = caron;
position = "{135, 361}";
},
{
name = center;
position = "{170.5, 172.5}";
},
{
name = top;
position = "{77.5, 361}";
}
);
layerId = "73D3DE9D-4D16-48FA-A6EF-561C99E37BFC";
name = Bold;
paths = (
{
closed = 1;
nodes = (
"230.5 0 LINE SMOOTH",
"241 0 OFFCURVE",
"246 7.5 OFFCURVE",
"246 26 CURVE SMOOTH",
"246 41.5 LINE SMOOTH",
"246 60 OFFCURVE",
"241 67.5 OFFCURVE",
"230.5 67.5 CURVE SMOOTH",
"115 67.5 LINE",
"115 345.5 LINE SMOOTH",
"115 356.5 OFFCURVE",
"105.5 362 OFFCURVE",
"84 362 CURVE SMOOTH",
"66.5 362 LINE SMOOTH",
"45 362 OFFCURVE",
"35.5 356.5 OFFCURVE",
"35.5 345.5 CURVE SMOOTH",
"35.5 20.5 LINE SMOOTH",
"35.5 6 OFFCURVE",
"41.5 0 OFFCURVE",
"56.5 0 CURVE SMOOTH"
);
}
);
width = 249.5;
}
);
rightKerningGroup = L;
unicode = 004C;
},
{
glyphname = LJ;
lastChange = "2015-01-29 02:55:36 +0000";
layers = (
{
layerId = "30990018-E5AF-4C66-A976-C36FA03CF41D";
name = Regular;
paths = (
{
closed = 1;
nodes = (
"296.5 -80.5 OFFCURVE",
"326.5 -36.5 OFFCURVE",
"326.5 28 CURVE SMOOTH",
"326.5 351 LINE SMOOTH",
"326.5 358 OFFCURVE",
"320.5 362 OFFCURVE",
"306 362 CURVE SMOOTH",
"301.5 362 LINE SMOOTH",
"287.5 362 OFFCURVE",
"281 358 OFFCURVE",
"281 351 CURVE SMOOTH",
"281 23 LINE SMOOTH",
"281 -21 OFFCURVE",
"260 -40.5 OFFCURVE",
"208.5 -40.5 CURVE SMOOTH",
"192.5 -40.5 OFFCURVE",
"180.5 -35.5 OFFCURVE",
"176.5 -35.5 CURVE SMOOTH",
"168.5 -35.5 OFFCURVE",
"165 -62 OFFCURVE",
"165 -64 CURVE SMOOTH",
"165 -78 OFFCURVE",
"197.5 -80.5 OFFCURVE",
"217 -80.5 CURVE SMOOTH"
);
},
{
closed = 1;
nodes = (
"201 0 LINE SMOOTH",
"208.5 0 OFFCURVE",
"211.5 4.5 OFFCURVE",
"211.5 15.5 CURVE SMOOTH",
"211.5 24 LINE SMOOTH",
"211.5 34.5 OFFCURVE",
"208.5 39.5 OFFCURVE",
"201 39.5 CURVE SMOOTH",
"95 39.5 LINE",
"95 351 LINE SMOOTH",
"95 358 OFFCURVE",
"89 362 OFFCURVE",
"74.5 362 CURVE SMOOTH",
"71 362 LINE SMOOTH",
"56.5 362 OFFCURVE",
"50 358 OFFCURVE",
"50 351 CURVE SMOOTH",
"50 15.5 LINE SMOOTH",
"50 4.5 OFFCURVE",
"55 0 OFFCURVE",
"65.5 0 CURVE SMOOTH"
);
}
);
width = 370.5;
},
{
layerId = "73D3DE9D-4D16-48FA-A6EF-561C99E37BFC";
name = Bold;
paths = (
{
closed = 1;
nodes = (
"307.5 -93.5 OFFCURVE",
"340.5 -43.5 OFFCURVE",
"340.5 21.5 CURVE SMOOTH",
"340.5 345.5 LINE SMOOTH",
"340.5 356.5 OFFCURVE",
"331 362.5 OFFCURVE",
"309.5 362.5 CURVE SMOOTH",
"291.5 362.5 LINE SMOOTH",
"269.5 362.5 OFFCURVE",
"260.5 356.5 OFFCURVE",
"260.5 345.5 CURVE SMOOTH",
"260.5 27.5 LINE SMOOTH",
"260.5 -10 OFFCURVE",
"248 -26 OFFCURVE",
"217 -26 CURVE SMOOTH",
"201 -26 OFFCURVE",
"193 -21.5 OFFCURVE",
"188 -21.5 CURVE",
"172 -23 OFFCURVE",
"167 -60.5 OFFCURVE",
"167 -69.5 CURVE SMOOTH",
"167 -92 OFFCURVE",
"218.5 -93.5 OFFCURVE",
"231.5 -93.5 CURVE SMOOTH"
);
},
{
closed = 1;
nodes = (
"193.5 0 LINE SMOOTH",
"205 0 OFFCURVE",
"209 7.5 OFFCURVE",
"209 26 CURVE SMOOTH",
"209 41.5 LINE SMOOTH",
"209 60 OFFCURVE",
"205 67.5 OFFCURVE",
"193.5 67.5 CURVE SMOOTH",
"115 67.5 LINE",
"115 345.5 LINE SMOOTH",
"115 356.5 OFFCURVE",
"105.5 362 OFFCURVE",
"84 362 CURVE SMOOTH",
"66.5 362 LINE SMOOTH",
"45 362 OFFCURVE",
"35.5 356.5 OFFCURVE",
"35.5 345.5 CURVE SMOOTH",
"35.5 20.5 LINE SMOOTH",
"35.5 6 OFFCURVE",
"41.5 0 OFFCURVE",
"56.5 0 CURVE SMOOTH"
);
}
);
width = 370.5;
}
);
unicode = 01C7;
},
{
glyphname = Lslash;
lastChange = "2015-01-29 02:55:36 +0000";
layers = (
{
layerId = "30990018-E5AF-4C66-A976-C36FA03CF41D";
name = Regular;
paths = (
{
closed = 1;
nodes = (
"239 0 LINE SMOOTH",
"246.5 0 OFFCURVE",
"249.5 4.5 OFFCURVE",
"249.5 15.5 CURVE SMOOTH",
"249.5 24 LINE SMOOTH",
"249.5 34.5 OFFCURVE",
"246.5 39.5 OFFCURVE",
"239 39.5 CURVE SMOOTH",
"89 39.5 LINE",
"89 207 LINE",
"145 239.5 LINE SMOOTH",
"151 243.5 OFFCURVE",
"155 248 OFFCURVE",
"155 255 CURVE SMOOTH",
"155 258.5 LINE SMOOTH",
"155 263 OFFCURVE",
"153 265.5 OFFCURVE",
"150 265.5 CURVE SMOOTH",
"148.5 265.5 OFFCURVE",
"147 264.5 OFFCURVE",
"145 263.5 CURVE SMOOTH",
"89 231 LINE",
"89 351 LINE SMOOTH",
"89 358 OFFCURVE",
"83 362 OFFCURVE",
"68.5 362 CURVE SMOOTH",
"64 362 LINE SMOOTH",
"50 362 OFFCURVE",
"43.5 358 OFFCURVE",
"43.5 351 CURVE SMOOTH",
"43.5 203 LINE",
"9 182.5 LINE SMOOTH",
"3 179 OFFCURVE",
"-1 174.5 OFFCURVE",
"-1 167 CURVE SMOOTH",
"-1 164 LINE SMOOTH",
"-1 159.5 OFFCURVE",
"1 156.5 OFFCURVE",
"4 156.5 CURVE SMOOTH",
"4.5 156.5 OFFCURVE",
"6.5 157 OFFCURVE",
"9 159 CURVE SMOOTH",
"43.5 179.5 LINE",
"43.5 15.5 LINE SMOOTH",
"43.5 4.5 OFFCURVE",
"48.5 0 OFFCURVE",
"59 0 CURVE SMOOTH"
);
}
);
width = 250.5;
},
{
layerId = "73D3DE9D-4D16-48FA-A6EF-561C99E37BFC";
name = Bold;
paths = (
{
closed = 1;
nodes = (
"231.5 0 LINE SMOOTH",
"242 0 OFFCURVE",
"246.5 7.5 OFFCURVE",
"246.5 26 CURVE SMOOTH",
"246.5 41.5 LINE SMOOTH",
"246.5 60 OFFCURVE",
"242 67.5 OFFCURVE",
"231.5 67.5 CURVE SMOOTH",
"116 67.5 LINE",
"116 203.5 LINE",
"161 231.5 LINE SMOOTH",
"170.5 237 OFFCURVE",
"174.5 244 OFFCURVE",
"174.5 254.5 CURVE SMOOTH",
"174.5 265 LINE SMOOTH",
"174.5 272 OFFCURVE",
"172 275.5 OFFCURVE",
"169 275.5 CURVE SMOOTH",
"166.5 275.5 OFFCURVE",
"164 274.5 OFFCURVE",
"161 272.5 CURVE SMOOTH",
"116 245 LINE",
"116 345.5 LINE SMOOTH",
"116 356.5 OFFCURVE",
"107 362 OFFCURVE",
"85 362 CURVE SMOOTH",
"67.5 362 LINE SMOOTH",
"46 362 OFFCURVE",
"36.5 356.5 OFFCURVE",
"36.5 345.5 CURVE SMOOTH",
"36.5 196.5 LINE",
"26.5 190.5 LINE SMOOTH",
"17.5 185 OFFCURVE",
"13.5 178 OFFCURVE",
"13.5 167 CURVE SMOOTH",
"13.5 156.5 LINE SMOOTH",
"13.5 149.5 OFFCURVE",
"15 146.5 OFFCURVE",
"19 146.5 CURVE SMOOTH",
"21 146.5 OFFCURVE",
"24 147 OFFCURVE",
"26.5 149 CURVE SMOOTH",
"36.5 155.5 LINE",
"36.5 20.5 LINE SMOOTH",
"36.5 6 OFFCURVE",
"42.5 0 OFFCURVE",
"57 0 CURVE SMOOTH"
);
}
);
width = 250.5;
}
);
rightKerningGroup = L;
unicode = 0141;
},
{
glyphname = M;
lastChange = "2015-01-29 02:55:36 +0000";
layers = (
{
layerId = "30990018-E5AF-4C66-A976-C36FA03CF41D";
name = Regular;
paths = (
{
closed = 1;
nodes = (
"71 -1 LINE SMOOTH",
"85 -1 OFFCURVE",
"91.5 3.5 OFFCURVE",
"91.5 10.5 CURVE SMOOTH",
"91.5 291 LINE",
"92.5 289 LINE",
"196.5 107.5 LINE SMOOTH",
"199.5 102.5 OFFCURVE",
"202.5 100.5 OFFCURVE",
"208 100.5 CURVE SMOOTH",
"228.5 100.5 LINE SMOOTH",
"234 100.5 OFFCURVE",
"237.5 102.5 OFFCURVE",
"239.5 107.5 CURVE SMOOTH",
"342.5 285.5 LINE",
"343.5 288 LINE",
"343.5 10.5 LINE SMOOTH",
"343.5 3.5 OFFCURVE",
"350 -1 OFFCURVE",
"364 -1 CURVE SMOOTH",
"368 -1 LINE SMOOTH",
"382.5 -1 OFFCURVE",
"388.5 3.5 OFFCURVE",
"388.5 10.5 CURVE SMOOTH",
"388.5 351 LINE SMOOTH",
"388.5 358 OFFCURVE",
"382.5 362 OFFCURVE",
"368 362 CURVE SMOOTH",
"351 362 LINE SMOOTH",
"338 362 OFFCURVE",
"332 358.5 OFFCURVE",
"329.5 352.5 CURVE SMOOTH",
"231.5 180.5 LINE",
"218 151 LINE",
"205 184 LINE",
"107.5 352.5 LINE SMOOTH",
"104 358.5 OFFCURVE",
"98 362 OFFCURVE",
"86 362 CURVE SMOOTH",
"67 362 LINE SMOOTH",
"52.5 362 OFFCURVE",
"46.5 358 OFFCURVE",
"46.5 351 CURVE SMOOTH",
"46.5 10.5 LINE SMOOTH",
"46.5 3.5 OFFCURVE",
"52.5 -1 OFFCURVE",
"67 -1 CURVE SMOOTH"
);
}
);
width = 435;
},
{
layerId = "73D3DE9D-4D16-48FA-A6EF-561C99E37BFC";
name = Bold;
paths = (
{
closed = 1;
nodes = (
"81.5 -1 LINE SMOOTH",
"103 -1 OFFCURVE",
"112.5 4.5 OFFCURVE",
"112.5 15.5 CURVE SMOOTH",
"112.5 229 LINE",
"114.5 229.5 LINE",
"189.5 96 LINE",
"193.5 89.5 OFFCURVE",
"200.5 86.5 OFFCURVE",
"210 86.5 CURVE SMOOTH",
"224.5 86.5 LINE SMOOTH",
"234.5 86.5 OFFCURVE",
"241 89.5 OFFCURVE",
"246 96 CURVE",
"320.5 229.5 LINE",
"322 229 LINE",
"322 15.5 LINE SMOOTH",
"322 4.5 OFFCURVE",
"331.5 -1 OFFCURVE",
"353 -1 CURVE SMOOTH",
"368 -1 LINE SMOOTH",
"390 -1 OFFCURVE",
"399 4.5 OFFCURVE",
"399 15.5 CURVE SMOOTH",
"399 345.5 LINE SMOOTH",
"399 356.5 OFFCURVE",
"390 362 OFFCURVE",
"368 362 CURVE SMOOTH",
"341.5 362 LINE SMOOTH",
"326.5 362 OFFCURVE",
"315 358.5 OFFCURVE",
"309 348 CURVE SMOOTH",
"222 195.5 LINE",
"217 186.5 LINE",
"213 193.5 LINE",
"126 348 LINE SMOOTH",
"120.5 358.5 OFFCURVE",
"109 362 OFFCURVE",
"94 362 CURVE SMOOTH",
"66.5 362 LINE SMOOTH",
"45 362 OFFCURVE",
"35.5 356.5 OFFCURVE",
"35.5 345.5 CURVE SMOOTH",
"35.5 15.5 LINE SMOOTH",
"35.5 4.5 OFFCURVE",
"45 -1 OFFCURVE",
"66.5 -1 CURVE SMOOTH"
);
}
);
width = 435;
}
);
unicode = 004D;
},
{
glyphname = N;
lastChange = "2015-01-29 02:55:36 +0000";
layers = (
{
anchors = (
{
name = bottom;
position = "{186, 0}";
},
{
name = top;
position = "{186, 361}";
}
);
layerId = "30990018-E5AF-4C66-A976-C36FA03CF41D";
name = Regular;
paths = (
{
closed = 1;
nodes = (
"71 -1 LINE SMOOTH",
"85 -1 OFFCURVE",
"91.5 3.5 OFFCURVE",
"91.5 10.5 CURVE SMOOTH",
"91.5 289.5 LINE",
"105 263 LINE",
"275.5 6 LINE SMOOTH",
"278.5 1.5 OFFCURVE",
"284 -1 OFFCURVE",
"293.5 -1 CURVE SMOOTH",
"304 -1 LINE SMOOTH",
"318.5 -1 OFFCURVE",
"324.5 3.5 OFFCURVE",
"324.5 10.5 CURVE SMOOTH",
"324.5 351 LINE SMOOTH",
"324.5 358 OFFCURVE",
"318.5 362 OFFCURVE",
"304 362 CURVE SMOOTH",
"300 362 LINE SMOOTH",
"285.5 362 OFFCURVE",
"279.5 358 OFFCURVE",
"279.5 351 CURVE SMOOTH",
"279.5 74.5 LINE",
"264 103.5 LINE",
"99.5 352.5 LINE SMOOTH",
"94.5 360 OFFCURVE",
"89 362 OFFCURVE",
"78 362 CURVE SMOOTH",
"67 362 LINE SMOOTH",
"52.5 362 OFFCURVE",
"46.5 358 OFFCURVE",
"46.5 351 CURVE SMOOTH",
"46.5 10.5 LINE SMOOTH",
"46.5 3.5 OFFCURVE",
"52.5 -1 OFFCURVE",
"67 -1 CURVE SMOOTH"
);
}
);
width = 371;
},
{
anchors = (
{
name = bottom;
position = "{186, 0}";
},
{
name = top;
position = "{186, 361}";
}
);
layerId = "73D3DE9D-4D16-48FA-A6EF-561C99E37BFC";
name = Bold;
paths = (
{
closed = 1;
nodes = (
"81.5 -1 LINE SMOOTH",
"103 -1 OFFCURVE",
"112.5 4.5 OFFCURVE",
"112.5 15.5 CURVE SMOOTH",
"112.5 224 LINE",
"123.5 208 LINE",
"250.5 12.5 LINE SMOOTH",
"258.5 1 OFFCURVE",
"269.5 -1 OFFCURVE",
"284.5 -1 CURVE SMOOTH",
"304.5 -1 LINE SMOOTH",
"326 -1 OFFCURVE",
"335.5 4.5 OFFCURVE",
"335.5 15.5 CURVE SMOOTH",
"335.5 345.5 LINE SMOOTH",
"335.5 356.5 OFFCURVE",
"326 362 OFFCURVE",
"304.5 362 CURVE SMOOTH",
"289.5 362 LINE SMOOTH",
"268 362 OFFCURVE",
"258.5 356.5 OFFCURVE",
"258.5 345.5 CURVE SMOOTH",
"258.5 139.5 LINE",
"244.5 160.5 LINE",
"123 348 LINE SMOOTH",
"115 360.5 OFFCURVE",
"103.5 362 OFFCURVE",
"88.5 362 CURVE SMOOTH",
"66.5 362 LINE SMOOTH",
"45 362 OFFCURVE",
"35.5 356.5 OFFCURVE",
"35.5 345.5 CURVE SMOOTH",
"35.5 15.5 LINE SMOOTH",
"35.5 4.5 OFFCURVE",
"45 -1 OFFCURVE",
"66.5 -1 CURVE SMOOTH"
);
}
);
width = 371;
}
);
unicode = 004E;
},
{
glyphname = Eng;
lastChange = "2015-01-29 02:55:36 +0000";
layers = (
{
components = (
{
name = dotlessj;
transform = "{1, 0, 0, 1, 229.043, 0}";
}
);
layerId = "30990018-E5AF-4C66-A976-C36FA03CF41D";
name = Regular;
paths = (
{
closed = 1;
nodes = (
"324.5 10.5 LINE",
"324.5 351 LINE SMOOTH",
"324.5 358 OFFCURVE",
"318.5 362 OFFCURVE",
"304 362 CURVE SMOOTH",
"300 362 LINE SMOOTH",
"285.5 362 OFFCURVE",
"279.5 358 OFFCURVE",
"279.5 351 CURVE SMOOTH",
"279.5 74.5 LINE",
"264 103.5 LINE",
"99.5 352.5 LINE SMOOTH",
"94.5 360 OFFCURVE",
"89 362 OFFCURVE",
"78 362 CURVE SMOOTH",
"67 362 LINE SMOOTH",
"52.5 362 OFFCURVE",
"46.5 358 OFFCURVE",
"46.5 351 CURVE SMOOTH",
"46.5 10.5 LINE SMOOTH",
"46.5 3.5 OFFCURVE",
"52.5 -1 OFFCURVE",
"67 -1 CURVE SMOOTH",
"71 -1 LINE SMOOTH",
"85 -1 OFFCURVE",
"91.5 3.5 OFFCURVE",
"91.5 10.5 CURVE SMOOTH",
"91.5 289.5 LINE",
"105 263 LINE",
"288 -12 LINE"
);
}
);
width = 371;
},
{
components = (
{
name = dotlessj;
transform = "{1, 0, 0, 1, 222.852, 0}";
}
);
layerId = "73D3DE9D-4D16-48FA-A6EF-561C99E37BFC";
name = Bold;
paths = (
{
closed = 1;
nodes = (
"335.5 15.5 LINE",
"335.5 345.5 LINE SMOOTH",
"335.5 356.5 OFFCURVE",
"326 362 OFFCURVE",
"304.5 362 CURVE SMOOTH",
"289.5 362 LINE SMOOTH",
"268 362 OFFCURVE",
"258.5 356.5 OFFCURVE",
"258.5 345.5 CURVE SMOOTH",
"258.5 139.5 LINE",
"244 161.5 LINE",
"123 348 LINE SMOOTH",
"115 360.5 OFFCURVE",
"103.5 362 OFFCURVE",
"88.5 362 CURVE SMOOTH",
"66.5 362 LINE SMOOTH",
"45 362 OFFCURVE",
"35.5 356.5 OFFCURVE",
"35.5 345.5 CURVE SMOOTH",
"35.5 15.5 LINE SMOOTH",
"35.5 4.5 OFFCURVE",
"45 -1 OFFCURVE",
"66.5 -1 CURVE SMOOTH",
"81.5 -1 LINE SMOOTH",
"103 -1 OFFCURVE",
"112.5 4.5 OFFCURVE",
"112.5 15.5 CURVE SMOOTH",
"112.5 224 LINE",
"125 204 LINE",
"268.5 -13.5 LINE"
);
}
);
width = 371;
}
);
unicode = 014A;
},
{
glyphname = O;
lastChange = "2015-01-29 02:55:36 +0000";
layers = (
{
anchors = (
{
name = bottom;
position = "{189.5, 0}";
},
{
name = horn;
position = "{248.5, 352}";
},
{
name = ogonek;
position = "{228.5, 0}";
},
{
name = top;
position = "{188.5, 361}";
}
);
layerId = "30990018-E5AF-4C66-A976-C36FA03CF41D";
name = Regular;
paths = (
{
closed = 1;
nodes = (
"292 -3.5 OFFCURVE",
"347.5 61 OFFCURVE",
"347.5 181.5 CURVE SMOOTH",
"347.5 302 OFFCURVE",
"292 364 OFFCURVE",
"188 364 CURVE SMOOTH",
"85 364 OFFCURVE",
"29.5 302 OFFCURVE",
"29.5 181.5 CURVE SMOOTH",
"29.5 61 OFFCURVE",
"85 -3.5 OFFCURVE",
"188 -3.5 CURVE SMOOTH"
);
},
{
closed = 1;
nodes = (
"115.5 36 OFFCURVE",
"76.5 87 OFFCURVE",
"76.5 181.5 CURVE SMOOTH",
"76.5 276.5 OFFCURVE",
"115.5 325 OFFCURVE",
"188 325 CURVE SMOOTH",
"261.5 325 OFFCURVE",
"300.5 276.5 OFFCURVE",
"300.5 181.5 CURVE SMOOTH",
"300.5 87 OFFCURVE",
"261.5 36 OFFCURVE",
"188 36 CURVE SMOOTH"
);
}
);
width = 377;
},
{
anchors = (
{
name = bottom;
position = "{189.5, 0}";
},
{
name = horn;
position = "{244.5, 352}";
},
{
name = ogonek;
position = "{228.5, 0}";
},
{
name = top;
position = "{188.5, 361}";
}
);
layerId = "73D3DE9D-4D16-48FA-A6EF-561C99E37BFC";
name = Bold;
paths = (
{
closed = 1;
nodes = (
"295 -4 OFFCURVE",
"353.5 61.5 OFFCURVE",
"353.5 180.5 CURVE SMOOTH",
"353.5 299.5 OFFCURVE",
"295 365.5 OFFCURVE",
"188.5 365.5 CURVE SMOOTH",
"82.5 365.5 OFFCURVE",
"23 299.5 OFFCURVE",
"23 180.5 CURVE SMOOTH",
"23 61.5 OFFCURVE",
"82.5 -4 OFFCURVE",
"188.5 -4 CURVE SMOOTH"
);
},
{
closed = 1;
nodes = (
"133.5 63.5 OFFCURVE",
"104.5 104.5 OFFCURVE",
"104.5 180.5 CURVE SMOOTH",
"104.5 256.5 OFFCURVE",
"133.5 297 OFFCURVE",
"188.5 297 CURVE SMOOTH",
"244 297 OFFCURVE",
"272.5 256.5 OFFCURVE",
"272.5 180.5 CURVE SMOOTH",
"272.5 104.5 OFFCURVE",
"244 63.5 OFFCURVE",
"188.5 63.5 CURVE SMOOTH"
);
}
);
width = 377;
}
);
unicode = 004F;
},
{
glyphname = Oslash;
lastChange = "2015-01-29 02:55:36 +0000";
layers = (
{
anchors = (
{
name = top;
position = "{188.5, 361}";
}
);
layerId = "30990018-E5AF-4C66-A976-C36FA03CF41D";
name = Regular;
paths = (
{
closed = 1;
nodes = (
"292 -3.5 OFFCURVE",
"347.5 61 OFFCURVE",
"347.5 181.5 CURVE SMOOTH",
"347.5 238 OFFCURVE",
"335.5 281 OFFCURVE",
"312 311.5 CURVE",
"342 345 LINE SMOOTH",
"344.5 347 OFFCURVE",
"345.5 349.5 OFFCURVE",
"345.5 352 CURVE SMOOTH",
"345.5 356 OFFCURVE",
"338 362 OFFCURVE",
"334 362 CURVE SMOOTH",
"331 362 OFFCURVE",
"329.5 361 OFFCURVE",
"326.5 358 CURVE SMOOTH",
"298.5 326.5 LINE",
"271 351.5 OFFCURVE",
"234.5 364 OFFCURVE",
"188 364 CURVE SMOOTH",
"85 364 OFFCURVE",
"29.5 302 OFFCURVE",
"29.5 181.5 CURVE SMOOTH",
"29.5 130.5 OFFCURVE",
"39.5 90 OFFCURVE",
"58 60 CURVE",
"20.5 19 LINE SMOOTH",
"19 16 OFFCURVE",
"17.5 13.5 OFFCURVE",
"17.5 11.5 CURVE SMOOTH",
"17.5 6.5 OFFCURVE",
"24.5 0.5 OFFCURVE",
"29 0.5 CURVE SMOOTH",
"31 0.5 OFFCURVE",
"34 2 OFFCURVE",
"36 5 CURVE SMOOTH",
"71 43 LINE",
"97.5 12 OFFCURVE",
"136.5 -3.5 OFFCURVE",
"188 -3.5 CURVE SMOOTH"
);
},
{
closed = 1;
nodes = (
"149.5 36 OFFCURVE",
"120 50 OFFCURVE",
"102 78 CURVE",
"280 276.5 LINE",
"293.5 253.5 OFFCURVE",
"300.5 221.5 OFFCURVE",
"300.5 181.5 CURVE SMOOTH",
"300.5 87 OFFCURVE",
"261.5 36 OFFCURVE",
"188 36 CURVE SMOOTH"
);
},
{
closed = 1;
nodes = (
"81.5 119 OFFCURVE",
"76.5 148 OFFCURVE",
"76.5 181.5 CURVE SMOOTH",
"76.5 276.5 OFFCURVE",
"115.5 325 OFFCURVE",
"188 325 CURVE SMOOTH",
"222.5 325 OFFCURVE",
"249 314.5 OFFCURVE",
"268 293 CURVE",
"91.5 96.5 LINE"
);
}
);
width = 377;
},
{
anchors = (
{
name = top;
position = "{188.5, 361}";
}
);
layerId = "73D3DE9D-4D16-48FA-A6EF-561C99E37BFC";
name = Bold;
paths = (
{
closed = 1;
nodes = (
"295 -4 OFFCURVE",
"353.5 61.5 OFFCURVE",
"353.5 180.5 CURVE SMOOTH",
"353.5 234 OFFCURVE",
"341.5 276.5 OFFCURVE",
"319 307.5 CURVE",
"346.5 339.5 LINE SMOOTH",
"350.5 343 OFFCURVE",
"352 346.5 OFFCURVE",
"352 350 CURVE SMOOTH",
"352 359 OFFCURVE",
"336 373.5 OFFCURVE",
"327 373.5 CURVE SMOOTH",
"322.5 373.5 OFFCURVE",
"319.5 371.5 OFFCURVE",
"315.5 367.5 CURVE SMOOTH",
"289 337 LINE",
"263 355.5 OFFCURVE",
"229 365.5 OFFCURVE",
"188.5 365.5 CURVE SMOOTH",
"82.5 365.5 OFFCURVE",
"23 299.5 OFFCURVE",
"23 180.5 CURVE SMOOTH",
"23 134 OFFCURVE",
"32 96 OFFCURVE",
"49.5 66.5 CURVE",
"15 27.5 LINE SMOOTH",
"11.5 24.5 OFFCURVE",
"10 20.5 OFFCURVE",
"10 17.5 CURVE SMOOTH",
"10 7.5 OFFCURVE",
"26.5 -6 OFFCURVE",
"34.5 -6 CURVE SMOOTH",
"38 -6 OFFCURVE",
"42 -4 OFFCURVE",
"46 0 CURVE SMOOTH",
"76 34.5 LINE",
"103 9 OFFCURVE",
"141 -4 OFFCURVE",
"188.5 -4 CURVE SMOOTH"
);
},
{
closed = 1;
nodes = (
"162 63.5 OFFCURVE",
"141 73 OFFCURVE",
"127.5 92 CURVE",
"262.5 244.5 LINE",
"269 227.5 OFFCURVE",
"272.5 206 OFFCURVE",
"272.5 180.5 CURVE SMOOTH",
"272.5 104.5 OFFCURVE",
"244 63.5 OFFCURVE",
"188.5 63.5 CURVE SMOOTH"
);
},
{
closed = 1;
nodes = (
"106.5 148 OFFCURVE",
"104.5 163.5 OFFCURVE",
"104.5 180.5 CURVE SMOOTH",
"104.5 256.5 OFFCURVE",
"133.5 297 OFFCURVE",
"188.5 297 CURVE SMOOTH",
"208.5 297 OFFCURVE",
"226 291.5 OFFCURVE",
"239 280.5 CURVE",
"109 134 LINE"
);
}
);
width = 377;
}
);
unicode = 00D8;
},
{
glyphname = OE;
lastChange = "2015-01-29 02:55:36 +0000";
layers = (
{
anchors = (
{
name = top;
position = "{263.5, 361}";
}
);
layerId = "30990018-E5AF-4C66-A976-C36FA03CF41D";
name = Regular;
paths = (
{
closed = 1;
nodes = (
"243 -3.5 OFFCURVE",
"283.5 14.5 OFFCURVE",
"309.5 49.5 CURVE",
"301.5 60 LINE",
"301.5 15.5 LINE SMOOTH",
"301.5 4.5 OFFCURVE",
"306.5 0 OFFCURVE",
"317 0 CURVE SMOOTH",
"499.5 0 LINE SMOOTH",
"506.5 0 OFFCURVE",
"510 4.5 OFFCURVE",
"510 15.5 CURVE SMOOTH",
"510 24 LINE SMOOTH",
"510 34.5 OFFCURVE",
"506.5 39.5 OFFCURVE",
"499.5 39.5 CURVE SMOOTH",
"347 39.5 LINE",
"347 165 LINE",
"483 165 LINE SMOOTH",
"490.5 165 OFFCURVE",
"493.5 170 OFFCURVE",
"493.5 180.5 CURVE SMOOTH",
"493.5 188.5 LINE SMOOTH",
"493.5 200 OFFCURVE",
"490.5 204 OFFCURVE",
"483 204 CURVE SMOOTH",
"347 204 LINE",
"347 322 LINE",
"498.5 322 LINE SMOOTH",
"506 322 OFFCURVE",
"509 326.5 OFFCURVE",
"509 337.5 CURVE SMOOTH",
"509 345.5 LINE SMOOTH",
"509 356.5 OFFCURVE",
"506 361 OFFCURVE",
"498.5 361 CURVE SMOOTH",
"317 361 LINE SMOOTH",
"306.5 361 OFFCURVE",
"301.5 356.5 OFFCURVE",
"301.5 345.5 CURVE SMOOTH",
"301.5 302 LINE",
"309.5 312.5 LINE",
"283.5 346.5 OFFCURVE",
"243 364 OFFCURVE",
"188 364 CURVE SMOOTH",
"85 364 OFFCURVE",
"29.5 302 OFFCURVE",
"29.5 181.5 CURVE SMOOTH",
"29.5 61 OFFCURVE",
"85 -3.5 OFFCURVE",
"188 -3.5 CURVE SMOOTH"
);
},
{
closed = 1;
nodes = (
"115.5 36 OFFCURVE",
"76.5 87 OFFCURVE",
"76.5 181.5 CURVE SMOOTH",
"76.5 276.5 OFFCURVE",
"115.5 325 OFFCURVE",
"188 325 CURVE SMOOTH",
"261.5 325 OFFCURVE",
"300.5 276.5 OFFCURVE",
"300.5 181.5 CURVE SMOOTH",
"300.5 87 OFFCURVE",
"261.5 36 OFFCURVE",
"188 36 CURVE SMOOTH"
);
}
);
width = 527;
},
{
anchors = (
{
name = top;
position = "{263.5, 361}";
}
);
layerId = "73D3DE9D-4D16-48FA-A6EF-561C99E37BFC";
name = Bold;
paths = (
{
closed = 1;
nodes = (
"226.5 -4 OFFCURVE",
"262.5 7.5 OFFCURVE",
"291 32 CURVE",
"273.5 60 LINE",
"273.5 21 LINE",
"273.5 6 OFFCURVE",
"279.5 0 OFFCURVE",
"294 0 CURVE SMOOTH",
"483 0 LINE SMOOTH",
"494.5 0 OFFCURVE",
"498.5 7.5 OFFCURVE",
"498.5 26 CURVE SMOOTH",
"498.5 41.5 LINE SMOOTH",
"498.5 60 OFFCURVE",
"494.5 67.5 OFFCURVE",
"483 67.5 CURVE SMOOTH",
"352.5 67.5 LINE",
"352.5 151 LINE",
"469 151 LINE SMOOTH",
"480 151 OFFCURVE",
"484.5 159 OFFCURVE",
"484.5 177 CURVE SMOOTH",
"484.5 193 LINE SMOOTH",
"484.5 211 OFFCURVE",
"480 218.5 OFFCURVE",
"469 218.5 CURVE SMOOTH",
"352.5 218.5 LINE",
"352.5 293.5 LINE",
"482.5 293.5 LINE SMOOTH",
"493.5 293.5 OFFCURVE",
"498 301 OFFCURVE",
"498 319.5 CURVE SMOOTH",
"498 335.5 LINE SMOOTH",
"498 353 OFFCURVE",
"493.5 361 OFFCURVE",
"482.5 361 CURVE SMOOTH",
"294 361 LINE SMOOTH",
"279.5 361 OFFCURVE",
"273.5 355 OFFCURVE",
"273.5 341.5 CURVE SMOOTH",
"273.5 303 LINE",
"291 329 LINE",
"262 353 OFFCURVE",
"227.5 365.5 OFFCURVE",
"184 365.5 CURVE SMOOTH",
"80.5 365.5 OFFCURVE",
"23 299.5 OFFCURVE",
"23 180.5 CURVE SMOOTH",
"23 61.5 OFFCURVE",
"80.5 -4 OFFCURVE",
"184 -4 CURVE SMOOTH"
);
},
{
closed = 1;
nodes = (
"133.5 63.5 OFFCURVE",
"104.5 104.5 OFFCURVE",
"104.5 180.5 CURVE SMOOTH",
"104.5 256.5 OFFCURVE",
"133.5 297 OFFCURVE",
"188.5 297 CURVE SMOOTH",
"244 297 OFFCURVE",
"272.5 256.5 OFFCURVE",
"272.5 180.5 CURVE SMOOTH",
"272.5 104.5 OFFCURVE",
"244 63.5 OFFCURVE",
"188.5 63.5 CURVE SMOOTH"
);
}
);
width = 527;
}
);
unicode = 0152;
},
{
glyphname = P;
lastChange = "2015-01-29 02:55:36 +0000";
layers = (
{
layerId = "30990018-E5AF-4C66-A976-C36FA03CF41D";
name = Regular;
paths = (
{
closed = 1;
nodes = (
"68.5 -1 LINE SMOOTH",
"83 -1 OFFCURVE",
"89 3.5 OFFCURVE",
"89 10.5 CURVE SMOOTH",
"89 154 LINE",
"169.5 154 LINE SMOOTH",
"196 154 OFFCURVE",
"279 165.5 OFFCURVE",
"279 260 CURVE SMOOTH",
"279 347 OFFCURVE",
"208.5 361 OFFCURVE",
"164 361 CURVE SMOOTH",
"59 361 LINE SMOOTH",
"48.5 361 OFFCURVE",
"43.5 356.5 OFFCURVE",
"43.5 345.5 CURVE SMOOTH",
"43.5 10.5 LINE SMOOTH",
"43.5 3.5 OFFCURVE",
"50 -1 OFFCURVE",
"64 -1 CURVE SMOOTH"
);
},
{
closed = 1;
nodes = (
"89 322 LINE",
"162.5 322 LINE SMOOTH",
"193 322 OFFCURVE",
"232 311 OFFCURVE",
"232 260 CURVE SMOOTH",
"232 203.5 OFFCURVE",
"190.5 193 OFFCURVE",
"170 193 CURVE SMOOTH",
"89 193 LINE"
);
}
);
width = 294;
},
{
layerId = "73D3DE9D-4D16-48FA-A6EF-561C99E37BFC";
name = Bold;
paths = (
{
closed = 1;
nodes = (
"84 -1 LINE SMOOTH",
"105.5 -1 OFFCURVE",
"115 4.5 OFFCURVE",
"115 15.5 CURVE SMOOTH",
"115 135 LINE",
"170 135 LINE SMOOTH",
"197.5 135 OFFCURVE",
"287.5 148.5 OFFCURVE",
"287.5 248 CURVE SMOOTH",
"287.5 347.5 OFFCURVE",
"210.5 361 OFFCURVE",
"164.5 361 CURVE SMOOTH",
"56.5 361 LINE SMOOTH",
"41.5 361 OFFCURVE",
"35.5 355 OFFCURVE",
"35.5 340.5 CURVE SMOOTH",
"35.5 15.5 LINE SMOOTH",
"35.5 4.5 OFFCURVE",
"45 -1 OFFCURVE",
"66.5 -1 CURVE SMOOTH"
);
},
{
closed = 1;
nodes = (
"115 293.5 LINE",
"161 293.5 LINE SMOOTH",
"180.5 293.5 OFFCURVE",
"206 285 OFFCURVE",
"206 248 CURVE SMOOTH",
"206 211 OFFCURVE",
"180.5 203 OFFCURVE",
"161 203 CURVE SMOOTH",
"115 203 LINE"
);
}
);
width = 294;
}
);
unicode = 0050;
},
{
glyphname = Thorn;
lastChange = "2015-01-29 02:55:36 +0000";
layers = (
{
layerId = "30990018-E5AF-4C66-A976-C36FA03CF41D";
name = Regular;
paths = (
{
closed = 1;
nodes = (
"68.5 -1 LINE SMOOTH",
"83 -1 OFFCURVE",
"89 3.5 OFFCURVE",
"89 10.5 CURVE SMOOTH",
"89 91 LINE",
"169.5 91 LINE SMOOTH",
"196 91 OFFCURVE",
"279 102.5 OFFCURVE",
"279 197 CURVE SMOOTH",
"279 284.5 OFFCURVE",
"208.5 298.5 OFFCURVE",
"164 298.5 CURVE SMOOTH",
"89 298.5 LINE",
"89 351 LINE SMOOTH",
"89 358 OFFCURVE",
"83 362 OFFCURVE",
"68.5 362 CURVE SMOOTH",
"64 362 LINE SMOOTH",
"50 362 OFFCURVE",
"43.5 358 OFFCURVE",
"43.5 351 CURVE SMOOTH",
"43.5 10.5 LINE SMOOTH",
"43.5 3.5 OFFCURVE",
"50 -1 OFFCURVE",
"64 -1 CURVE SMOOTH"
);
},
{
closed = 1;
nodes = (
"89 259 LINE",
"162.5 259 LINE SMOOTH",
"193 259 OFFCURVE",
"232 248 OFFCURVE",
"232 197 CURVE SMOOTH",
"232 140.5 OFFCURVE",
"190.5 130 OFFCURVE",
"170 130 CURVE SMOOTH",
"89 130 LINE"
);
}
);
width = 292;
},
{
layerId = "73D3DE9D-4D16-48FA-A6EF-561C99E37BFC";
name = Bold;
paths = (
{
closed = 1;
nodes = (
"83.5 -1 LINE SMOOTH",
"105 -1 OFFCURVE",
"114.5 4.5 OFFCURVE",
"114.5 15.5 CURVE SMOOTH",
"114.5 79.5 LINE",
"172.5 79.5 LINE SMOOTH",
"201 79.5 OFFCURVE",
"290.5 93.5 OFFCURVE",
"290.5 193 CURVE SMOOTH",
"290.5 292 OFFCURVE",
"213.5 306 OFFCURVE",
"167.5 306 CURVE SMOOTH",
"114.5 306 LINE",
"114.5 345.5 LINE SMOOTH",
"114.5 356.5 OFFCURVE",
"105 362 OFFCURVE",
"83.5 362 CURVE SMOOTH",
"66 362 LINE SMOOTH",
"44.5 362 OFFCURVE",
"35 356.5 OFFCURVE",
"35 345.5 CURVE SMOOTH",
"35 15.5 LINE SMOOTH",
"35 4.5 OFFCURVE",
"44.5 -1 OFFCURVE",
"66 -1 CURVE SMOOTH"
);
},
{
closed = 1;
nodes = (
"114.5 238.5 LINE",
"164 238.5 LINE SMOOTH",
"184 238.5 OFFCURVE",
"208.5 230.5 OFFCURVE",
"208.5 193 CURVE SMOOTH",
"208.5 155.5 OFFCURVE",
"184 148 OFFCURVE",
"164 148 CURVE SMOOTH",
"114.5 148 LINE"
);
}
);
width = 292;
}
);
unicode = 00DE;
},
{
glyphname = Q;
lastChange = "2015-01-29 02:55:36 +0000";
layers = (
{
layerId = "30990018-E5AF-4C66-A976-C36FA03CF41D";
name = Regular;
paths = (
{
closed = 1;
nodes = (
"343 -76.5 OFFCURVE",
"352.5 -45.5 OFFCURVE",
"352.5 -39.5 CURVE SMOOTH",
"352.5 -35.5 OFFCURVE",
"350.5 -33 OFFCURVE",
"345.5 -31.5 CURVE SMOOTH",
"244 0.5 LINE",
"244 3 LINE",
"311 20.5 OFFCURVE",
"347.5 81 OFFCURVE",
"347.5 179 CURVE SMOOTH",
"347.5 299.5 OFFCURVE",
"292 364 OFFCURVE",
"188 364 CURVE SMOOTH",
"85 364 OFFCURVE",
"29.5 300 OFFCURVE",
"29.5 179 CURVE SMOOTH",
"29.5 87 OFFCURVE",
"62 29 OFFCURVE",
"127 3.5 CURVE SMOOTH",
"141.5 -3.5 OFFCURVE",
"325 -76.5 OFFCURVE",
"331 -76.5 CURVE SMOOTH"
);
},
{
closed = 1;
nodes = (
"117.5 34.5 OFFCURVE",
"76.5 85 OFFCURVE",
"76.5 179 CURVE SMOOTH",
"76.5 273.5 OFFCURVE",
"117.5 325 OFFCURVE",
"188 325 CURVE SMOOTH",
"260 325 OFFCURVE",
"300.5 273 OFFCURVE",
"300.5 179 CURVE SMOOTH",
"300.5 86 OFFCURVE",
"260 34.5 OFFCURVE",
"188 34.5 CURVE SMOOTH"
);
}
);
width = 377;
},
{
layerId = "73D3DE9D-4D16-48FA-A6EF-561C99E37BFC";
name = Bold;
paths = (
{
closed = 1;
nodes = (
"347 -75.5 OFFCURVE",
"359 -31 OFFCURVE",
"359 -22.5 CURVE SMOOTH",
"359 -19 OFFCURVE",
"356.5 -16 OFFCURVE",
"352 -14.5 CURVE SMOOTH",
"273 14 LINE",
"273 16 LINE",
"325 42.5 OFFCURVE",
"353.5 99 OFFCURVE",
"353.5 180.5 CURVE SMOOTH",
"353.5 299.5 OFFCURVE",
"295 365.5 OFFCURVE",
"188.5 365.5 CURVE SMOOTH",
"82.5 365.5 OFFCURVE",
"23 299.5 OFFCURVE",
"23 180.5 CURVE SMOOTH",
"23 91.5 OFFCURVE",
"56.5 32 OFFCURVE",
"117.5 8.5 CURVE SMOOTH",
"327 -74.5 OFFCURVE",
"325.5 -75.5 OFFCURVE",
"330.5 -75.5 CURVE SMOOTH"
);
},
{
closed = 1;
nodes = (
"133.5 61.5 OFFCURVE",
"104.5 103 OFFCURVE",
"104.5 180.5 CURVE SMOOTH",
"104.5 256.5 OFFCURVE",
"133.5 297 OFFCURVE",
"188.5 297 CURVE SMOOTH",
"244 297 OFFCURVE",
"272.5 256.5 OFFCURVE",
"272.5 180.5 CURVE SMOOTH",
"272.5 103 OFFCURVE",
"244 61.5 OFFCURVE",
"188.5 61.5 CURVE SMOOTH"
);
}
);
width = 377;
}
);
unicode = 0051;
},
{
glyphname = R;
lastChange = "2015-01-29 02:55:36 +0000";
layers = (
{
anchors = (
{
name = bottom;
position = "{157, 0}";
},
{
name = top;
position = "{157, 361}";
}
);
layerId = "30990018-E5AF-4C66-A976-C36FA03CF41D";
name = Regular;
paths = (
{
closed = 1;
nodes = (
"74.5 -1 LINE SMOOTH",
"89 -1 OFFCURVE",
"95 3.5 OFFCURVE",
"95 10.5 CURVE SMOOTH",
"95 159 LINE",
"141.5 159 LINE SMOOTH",
"182 159 OFFCURVE",
"203 148.5 OFFCURVE",
"218.5 108.5 CURVE SMOOTH",
"258 7 LINE SMOOTH",
"260 2 OFFCURVE",
"268.5 -1 OFFCURVE",
"278.5 -1 CURVE SMOOTH",
"284 -1 LINE SMOOTH",
"299 -1 OFFCURVE",
"305.5 2 OFFCURVE",
"305.5 7 CURVE SMOOTH",
"305.5 9 OFFCURVE",
"305 11.5 OFFCURVE",
"304 14.5 CURVE SMOOTH",
"263.5 116 LINE SMOOTH",
"250 150 OFFCURVE",
"239 173 OFFCURVE",
"217 180.5 CURVE",
"217 182.5 LINE",
"253.5 197 OFFCURVE",
"276.5 225.5 OFFCURVE",
"276.5 269.5 CURVE SMOOTH",
"276.5 335 OFFCURVE",
"232.5 361 OFFCURVE",
"152 361 CURVE SMOOTH",
"65.5 361 LINE SMOOTH",
"55 361 OFFCURVE",
"50 356.5 OFFCURVE",
"50 345.5 CURVE SMOOTH",
"50 10.5 LINE SMOOTH",
"50 3.5 OFFCURVE",
"56.5 -1 OFFCURVE",
"71 -1 CURVE SMOOTH"
);
},
{
closed = 1;
nodes = (
"95 322 LINE",
"160 322 LINE SMOOTH",
"201.5 322 OFFCURVE",
"229.5 303.5 OFFCURVE",
"229.5 262 CURVE SMOOTH",
"229.5 227.5 OFFCURVE",
"201 198 OFFCURVE",
"163.5 198 CURVE SMOOTH",
"95 198 LINE"
);
}
);
width = 315;
},
{
anchors = (
{
name = bottom;
position = "{157, 0}";
},
{
name = top;
position = "{157, 361}";
}
);
layerId = "73D3DE9D-4D16-48FA-A6EF-561C99E37BFC";
name = Bold;
paths = (
{
closed = 1;
nodes = (
"84 -1 LINE SMOOTH",
"105.5 -1 OFFCURVE",
"115 4.5 OFFCURVE",
"115 15.5 CURVE SMOOTH",
"115 141 LINE",
"135 141 LINE SMOOTH",
"169 141 OFFCURVE",
"177 131 OFFCURVE",
"187 110 CURVE",
"228 10 LINE SMOOTH",
"231.5 1.5 OFFCURVE",
"243 -1 OFFCURVE",
"258 -1 CURVE SMOOTH",
"279 -1 LINE SMOOTH",
"300 -1 OFFCURVE",
"310 3.5 OFFCURVE",
"310 9.5 CURVE SMOOTH",
"310 11.5 OFFCURVE",
"309 15 OFFCURVE",
"307 19 CURVE SMOOTH",
"262 133 LINE SMOOTH",
"253.5 155 OFFCURVE",
"238 175 OFFCURVE",
"224.5 180 CURVE",
"224.5 182 LINE",
"260.5 195.5 OFFCURVE",
"285 224 OFFCURVE",
"285 264 CURVE SMOOTH",
"285 326 OFFCURVE",
"246.5 361 OFFCURVE",
"156.5 361 CURVE SMOOTH",
"56.5 361 LINE SMOOTH",
"41.5 361 OFFCURVE",
"35.5 355 OFFCURVE",
"35.5 340.5 CURVE SMOOTH",
"35.5 15.5 LINE SMOOTH",
"35.5 4.5 OFFCURVE",
"45 -1 OFFCURVE",
"66.5 -1 CURVE SMOOTH"
);
},
{
closed = 1;
nodes = (
"115 293.5 LINE",
"160.5 293.5 LINE SMOOTH",
"187 293.5 OFFCURVE",
"203.5 278 OFFCURVE",
"203.5 254 CURVE SMOOTH",
"203.5 229.5 OFFCURVE",
"185.5 210 OFFCURVE",
"164 210 CURVE SMOOTH",
"115 210 LINE"
);
}
);
width = 315;
}
);
unicode = 0052;
},
{
glyphname = S;
lastChange = "2015-01-29 02:55:36 +0000";
layers = (
{
anchors = (
{
name = bottom;
position = "{129, 0}";
},
{
name = top;
position = "{129, 361}";
}
);
layerId = "30990018-E5AF-4C66-A976-C36FA03CF41D";
name = Regular;
paths = (
{
closed = 1;
nodes = (
"195.5 -3.5 OFFCURVE",
"240 35 OFFCURVE",
"240 97 CURVE SMOOTH",
"240 167 OFFCURVE",
"188.5 187.5 OFFCURVE",
"143 205.5 CURVE SMOOTH",
"105.5 219 OFFCURVE",
"72.5 229 OFFCURVE",
"72.5 267 CURVE SMOOTH",
"72.5 304.5 OFFCURVE",
"100.5 325 OFFCURVE",
"139.5 325 CURVE SMOOTH",
"180 325 OFFCURVE",
"199.5 305.5 OFFCURVE",
"207 305.5 CURVE SMOOTH",
"212 305.5 OFFCURVE",
"223.5 325 OFFCURVE",
"223.5 332.5 CURVE SMOOTH",
"223.5 351.5 OFFCURVE",
"170 364 OFFCURVE",
"140.5 364 CURVE SMOOTH",
"71.5 364 OFFCURVE",
"26 324.5 OFFCURVE",
"26 269 CURVE SMOOTH",
"26 201 OFFCURVE",
"72 184.5 OFFCURVE",
"115.5 167 CURVE SMOOTH",
"155.5 151.5 OFFCURVE",
"193 138.5 OFFCURVE",
"193 97 CURVE SMOOTH",
"193 60.5 OFFCURVE",
"165 36 OFFCURVE",
"125.5 36 CURVE SMOOTH",
"72.5 36 OFFCURVE",
"43.5 62.5 OFFCURVE",
"37 62.5 CURVE SMOOTH",
"31.5 62.5 OFFCURVE",
"19 42.5 OFFCURVE",
"19 34.5 CURVE SMOOTH",
"19 20.5 OFFCURVE",
"65.5 -3.5 OFFCURVE",
"125.5 -3.5 CURVE SMOOTH"
);
}
);
width = 258;
},
{
anchors = (
{
name = bottom;
position = "{129, 0}";
},
{
name = top;
position = "{129, 361}";
}
);
layerId = "73D3DE9D-4D16-48FA-A6EF-561C99E37BFC";
name = Bold;
paths = (
{
closed = 1;
nodes = (
"188.5 -4 OFFCURVE",
"249 25 OFFCURVE",
"249 109 CURVE SMOOTH",
"249 179 OFFCURVE",
"197.5 200.5 OFFCURVE",
"155.5 217.5 CURVE SMOOTH",
"125 229.5 OFFCURVE",
"100 239.5 OFFCURVE",
"100 268.5 CURVE SMOOTH",
"100 280 OFFCURVE",
"108 297 OFFCURVE",
"148 297 CURVE SMOOTH",
"182.5 297 OFFCURVE",
"198.5 284.5 OFFCURVE",
"205.5 284.5 CURVE SMOOTH",
"217.5 284.5 OFFCURVE",
"233.5 315 OFFCURVE",
"233.5 329.5 CURVE SMOOTH",
"233.5 346 OFFCURVE",
"195.5 365.5 OFFCURVE",
"140.5 365.5 CURVE SMOOTH",
"80.5 365.5 OFFCURVE",
"19 335.5 OFFCURVE",
"19 261.5 CURVE SMOOTH",
"19 199.5 OFFCURVE",
"52.5 174.5 OFFCURVE",
"88 157 CURVE SMOOTH",
"127 139.5 OFFCURVE",
"167.5 130.5 OFFCURVE",
"167.5 99.5 CURVE SMOOTH",
"167.5 70.5 OFFCURVE",
"141 63.5 OFFCURVE",
"119 63.5 CURVE SMOOTH",
"78 63.5 OFFCURVE",
"52.5 87.5 OFFCURVE",
"43 87.5 CURVE SMOOTH",
"32.5 87.5 OFFCURVE",
"11.5 57 OFFCURVE",
"11.5 41.5 CURVE SMOOTH",
"11.5 24 OFFCURVE",
"54 -4 OFFCURVE",
"133 -4 CURVE SMOOTH"
);
}
);
width = 258;
}
);
unicode = 0053;
},
{
glyphname = Germandbls;
lastChange = "2015-01-29 02:55:36 +0000";
layers = (
{
layerId = "30990018-E5AF-4C66-A976-C36FA03CF41D";
name = Regular;
paths = (
{
closed = 1;
nodes = (
"273.5 -3.5 OFFCURVE",
"340.5 25.5 OFFCURVE",
"340.5 104.5 CURVE SMOOTH",
"340.5 167 OFFCURVE",
"299 197.5 OFFCURVE",
"240 207 CURVE",
"317.5 312.5 LINE",
"319 314.5 OFFCURVE",
"319.5 316 OFFCURVE",
"319.5 319 CURVE SMOOTH",
"319.5 330 OFFCURVE",
"311.5 345.5 OFFCURVE",
"307.5 346 CURVE SMOOTH",
"281.5 353.5 OFFCURVE",
"238 362.5 OFFCURVE",
"188.5 364 CURVE SMOOTH",
"96.5 365 OFFCURVE",
"47.5 316 OFFCURVE",
"47.5 222 CURVE SMOOTH",
"47.5 10.5 LINE SMOOTH",
"47.5 3.5 OFFCURVE",
"53.5 -1 OFFCURVE",
"68 -1 CURVE SMOOTH",
"72 -1 LINE SMOOTH",
"87 -1 OFFCURVE",
"93 3.5 OFFCURVE",
"93 10.5 CURVE SMOOTH",
"93 221.5 LINE SMOOTH",
"93 294 OFFCURVE",
"124 325 OFFCURVE",
"190 325 CURVE SMOOTH",
"221.5 325 OFFCURVE",
"246 320 OFFCURVE",
"262.5 314.5 CURVE",
"184.5 207 LINE",
"183 205.5 OFFCURVE",
"182.5 203 OFFCURVE",
"182.5 201 CURVE SMOOTH",
"182.5 190.5 OFFCURVE",
"190 173 OFFCURVE",
"195 173 CURVE SMOOTH",
"213 173 LINE SMOOTH",
"262.5 173 OFFCURVE",
"295.5 157.5 OFFCURVE",
"295.5 105 CURVE SMOOTH",
"295.5 49.5 OFFCURVE",
"249 34.5 OFFCURVE",
"216.5 34.5 CURVE SMOOTH",
"179.5 34.5 OFFCURVE",
"171.5 52 OFFCURVE",
"150 52 CURVE SMOOTH",
"144.5 52 OFFCURVE",
"132.5 36 OFFCURVE",
"132.5 26.5 CURVE SMOOTH",
"146.5 13.5 OFFCURVE",
"169.5 -3.5 OFFCURVE",
"220.5 -3.5 CURVE SMOOTH"
);
}
);
width = 361;
},
{
layerId = "73D3DE9D-4D16-48FA-A6EF-561C99E37BFC";
name = Bold;
paths = (
{
closed = 1;
nodes = (
"302 -4 OFFCURVE",
"348 36.5 OFFCURVE",
"348 105 CURVE SMOOTH",
"348 172 OFFCURVE",
"308.5 196 OFFCURVE",
"269.5 211.5 CURVE",
"327 304.5 LINE",
"327.5 305.5 OFFCURVE",
"327.5 306.5 OFFCURVE",
"327.5 308.5 CURVE SMOOTH",
"327.5 322 OFFCURVE",
"316.5 355 OFFCURVE",
"308.5 356 CURVE SMOOTH",
"274.5 361 OFFCURVE",
"224.5 365.5 OFFCURVE",
"180.5 365.5 CURVE SMOOTH",
"84 365.5 OFFCURVE",
"34.5 316.5 OFFCURVE",
"34.5 223 CURVE SMOOTH",
"34.5 15.5 LINE SMOOTH",
"34.5 4.5 OFFCURVE",
"43 -1 OFFCURVE",
"65 -1 CURVE SMOOTH",
"83 -1 LINE SMOOTH",
"104.5 -1 OFFCURVE",
"114 4.5 OFFCURVE",
"114 15.5 CURVE SMOOTH",
"114 222.5 LINE SMOOTH",
"114 270 OFFCURVE",
"134.5 297 OFFCURVE",
"179 297 CURVE SMOOTH",
"201 297 OFFCURVE",
"218.5 296 OFFCURVE",
"233.5 294.5 CURVE",
"182.5 210 LINE",
"182 208.5 OFFCURVE",
"181.5 207 OFFCURVE",
"181.5 205 CURVE SMOOTH",
"181.5 191 OFFCURVE",
"193 159 OFFCURVE",
"201.5 159 CURVE SMOOTH",
"216 159 LINE SMOOTH",
"251.5 159 OFFCURVE",
"270.5 140.5 OFFCURVE",
"270.5 106.5 CURVE SMOOTH",
"270.5 74 OFFCURVE",
"252.5 56.5 OFFCURVE",
"224.5 56.5 CURVE SMOOTH",
"192.5 56.5 OFFCURVE",
"173 77.5 OFFCURVE",
"165.5 77.5 CURVE SMOOTH",
"154 77.5 OFFCURVE",
"140.5 48 OFFCURVE",
"140.5 38 CURVE SMOOTH",
"140.5 6 OFFCURVE",
"203 -4 OFFCURVE",
"237 -4 CURVE SMOOTH"
);
}
);
width = 361;
}
);
unicode = 1E9E;
},
{
glyphname = Schwa;
lastChange = "2015-01-29 02:55:36 +0000";
layers = (
{
layerId = "30990018-E5AF-4C66-A976-C36FA03CF41D";
name = Regular;
paths = (
{
closed = 1;
nodes = (
"252.5 -4.5 OFFCURVE",
"301 55 OFFCURVE",
"301 171 CURVE SMOOTH",
"301 303.5 OFFCURVE",
"254 364 OFFCURVE",
"154.5 364 CURVE SMOOTH",
"83.5 364 OFFCURVE",
"30.5 337.5 OFFCURVE",
"30.5 321 CURVE SMOOTH",
"30.5 315 OFFCURVE",
"41.5 295 OFFCURVE",
"48.5 295 CURVE SMOOTH",
"57 295 OFFCURVE",
"91.5 327 OFFCURVE",
"155 327 CURVE SMOOTH",
"218 327 OFFCURVE",
"248.5 284.5 OFFCURVE",
"254.5 187 CURVE",
"40.5 187 LINE SMOOTH",
"34.5 187 OFFCURVE",
"23 172 OFFCURVE",
"23 166 CURVE SMOOTH",
"23 53 OFFCURVE",
"66.5 -4.5 OFFCURVE",
"155.5 -4.5 CURVE SMOOTH"
);
},
{
closed = 1;
nodes = (
"97.5 32.5 OFFCURVE",
"69 71 OFFCURVE",
"69 150 CURVE",
"254.5 150 LINE",
"251.5 71 OFFCURVE",
"217 32.5 OFFCURVE",
"156.5 32.5 CURVE SMOOTH"
);
}
);
width = 346.5;
},
{
layerId = "73D3DE9D-4D16-48FA-A6EF-561C99E37BFC";
name = Bold;
paths = (
{
closed = 1;
nodes = (
"246.5 -0.5 OFFCURVE",
"307.5 48 OFFCURVE",
"307.5 171 CURVE SMOOTH",
"307.5 288.5 OFFCURVE",
"260.5 365.5 OFFCURVE",
"153 365.5 CURVE SMOOTH",
"114.5 365.5 OFFCURVE",
"29 351 OFFCURVE",
"29 317.5 CURVE SMOOTH",
"29 307 OFFCURVE",
"44.5 278.5 OFFCURVE",
"56 278.5 CURVE SMOOTH",
"66 278.5 OFFCURVE",
"101.5 305 OFFCURVE",
"149 305 CURVE SMOOTH",
"195 305 OFFCURVE",
"223.5 280.5 OFFCURVE",
"229 193.5 CURVE",
"46 193.5 LINE SMOOTH",
"39.5 193.5 OFFCURVE",
"19.5 172 OFFCURVE",
"19.5 163.5 CURVE SMOOTH",
"19.5 76.5 OFFCURVE",
"57.5 -0.5 OFFCURVE",
"156.5 -0.5 CURVE SMOOTH"
);
},
{
closed = 1;
nodes = (
"113 60 OFFCURVE",
"94 94.5 OFFCURVE",
"94 143 CURVE",
"229 143 LINE",
"220.5 78.5 OFFCURVE",
"191.5 60 OFFCURVE",
"156.5 60 CURVE SMOOTH"
);
}
);
width = 346.5;
}
);
unicode = 018F;
},
{
glyphname = T;
lastChange = "2015-01-29 02:55:36 +0000";
layers = (
{
anchors = (
{
name = bottom;
position = "{141.5, 0}";
},
{
name = center;
position = "{141.5, 180.5}";
},
{
name = top;
position = "{141.5, 361}";
}
);
layerId = "30990018-E5AF-4C66-A976-C36FA03CF41D";
name = Regular;
paths = (
{
closed = 1;
nodes = (
"144.5 -1 LINE SMOOTH",
"159 -1 OFFCURVE",
"165 3.5 OFFCURVE",
"165 10.5 CURVE SMOOTH",
"165 322 LINE",
"262.5 322 LINE SMOOTH",
"269.5 322 OFFCURVE",
"273 326.5 OFFCURVE",
"273 337.5 CURVE SMOOTH",
"273 345.5 LINE SMOOTH",
"273 356.5 OFFCURVE",
"269.5 361 OFFCURVE",
"262.5 361 CURVE SMOOTH",
"20.5 361 LINE SMOOTH",
"13.5 361 OFFCURVE",
"10.5 356.5 OFFCURVE",
"10.5 345.5 CURVE SMOOTH",
"10.5 337.5 LINE SMOOTH",
"10.5 326.5 OFFCURVE",
"13.5 322 OFFCURVE",
"20.5 322 CURVE SMOOTH",
"119.5 322 LINE",
"119.5 10.5 LINE SMOOTH",
"119.5 3.5 OFFCURVE",
"125.5 -1 OFFCURVE",
"140.5 -1 CURVE SMOOTH"
);
}
);
width = 283.5;
},
{
anchors = (
{
name = bottom;
position = "{141.5, 0}";
},
{
name = center;
position = "{141.5, 180.5}";
},
{
name = top;
position = "{141.5, 361}";
}
);
layerId = "73D3DE9D-4D16-48FA-A6EF-561C99E37BFC";
name = Bold;
paths = (
{
closed = 1;
nodes = (
"150.5 -1 LINE SMOOTH",
"172 -1 OFFCURVE",
"181.5 4.5 OFFCURVE",
"181.5 15.5 CURVE SMOOTH",
"181.5 293.5 LINE",
"263.5 293.5 LINE SMOOTH",
"274.5 293.5 OFFCURVE",
"279 301 OFFCURVE",
"279 319.5 CURVE SMOOTH",
"279 335.5 LINE SMOOTH",
"279 353 OFFCURVE",
"274.5 361 OFFCURVE",
"263.5 361 CURVE SMOOTH",
"19.5 361 LINE SMOOTH",
"9 361 OFFCURVE",
"4 353 OFFCURVE",
"4 335.5 CURVE SMOOTH",
"4 319.5 LINE SMOOTH",
"4 301 OFFCURVE",
"9 293.5 OFFCURVE",
"19.5 293.5 CURVE SMOOTH",
"102 293.5 LINE",
"102 15.5 LINE SMOOTH",
"102 4.5 OFFCURVE",
"110.5 -1 OFFCURVE",
"133 -1 CURVE SMOOTH"
);
}
);
width = 283.5;
}
);
leftKerningGroup = T;
rightKerningGroup = T;
unicode = 0054;
},
{
glyphname = U;
lastChange = "2015-01-29 02:55:36 +0000";
layers = (
{
anchors = (
{
name = bottom;
position = "{184.5, 0}";
},
{
name = horn;
position = "{299.5, 362}";
},
{
name = ogonek;
position = "{222.5, 0}";
},
{
name = top;
position = "{184, 361}";
}
);
layerId = "30990018-E5AF-4C66-A976-C36FA03CF41D";
name = Regular;
paths = (
{
closed = 1;
nodes = (
"274.5 -3.5 OFFCURVE",
"324.5 41.5 OFFCURVE",
"324.5 115.5 CURVE SMOOTH",
"324.5 351 LINE SMOOTH",
"324.5 358 OFFCURVE",
"318.5 362 OFFCURVE",
"304 362 CURVE SMOOTH",
"299.5 362 LINE SMOOTH",
"285 362 OFFCURVE",
"279 358 OFFCURVE",
"279 351 CURVE SMOOTH",
"279 114 LINE SMOOTH",
"279 68.5 OFFCURVE",
"239 36 OFFCURVE",
"184 36 CURVE SMOOTH",
"129 36 OFFCURVE",
"88 68 OFFCURVE",
"88 114 CURVE SMOOTH",
"88 351 LINE SMOOTH",
"88 358 OFFCURVE",
"82 362 OFFCURVE",
"67.5 362 CURVE SMOOTH",
"63.5 362 LINE SMOOTH",
"49.5 362 OFFCURVE",
"42.5 358 OFFCURVE",
"42.5 351 CURVE SMOOTH",
"42.5 115.5 LINE SMOOTH",
"42.5 41.5 OFFCURVE",
"92.5 -3.5 OFFCURVE",
"184 -3.5 CURVE SMOOTH"
);
}
);
width = 367.5;
},
{
anchors = (
{
name = bottom;
position = "{184, 0}";
},
{
name = horn;
position = "{285, 362}";
},
{
name = ogonek;
position = "{231, 0}";
},
{
name = top;
position = "{184, 361}";
}
);
layerId = "73D3DE9D-4D16-48FA-A6EF-561C99E37BFC";
name = Bold;
paths = (
{
closed = 1;
nodes = (
"278 -4 OFFCURVE",
"333 41.5 OFFCURVE",
"333 120.5 CURVE SMOOTH",
"333 345.5 LINE SMOOTH",
"333 356.5 OFFCURVE",
"324 362 OFFCURVE",
"302 362 CURVE SMOOTH",
"285 362 LINE SMOOTH",
"263.5 362 OFFCURVE",
"254 356.5 OFFCURVE",
"254 345.5 CURVE SMOOTH",
"254 125.5 LINE SMOOTH",
"254 89.5 OFFCURVE",
"225.5 63.5 OFFCURVE",
"184 63.5 CURVE SMOOTH",
"141.5 63.5 OFFCURVE",
"113.5 89.5 OFFCURVE",
"113.5 125.5 CURVE SMOOTH",
"113.5 345.5 LINE SMOOTH",
"113.5 356.5 OFFCURVE",
"104 362 OFFCURVE",
"82.5 362 CURVE SMOOTH",
"65 362 LINE SMOOTH",
"43 362 OFFCURVE",
"34.5 356.5 OFFCURVE",
"34.5 345.5 CURVE SMOOTH",
"34.5 120.5 LINE SMOOTH",
"34.5 41.5 OFFCURVE",
"89 -4 OFFCURVE",
"184 -4 CURVE SMOOTH"
);
}
);
width = 367.5;
}
);
unicode = 0055;
},
{
glyphname = V;
lastChange = "2015-01-29 02:55:36 +0000";
layers = (
{
layerId = "30990018-E5AF-4C66-A976-C36FA03CF41D";
name = Regular;
paths = (
{
closed = 1;
nodes = (
"167 -1 LINE SMOOTH",
"177.5 -1 OFFCURVE",
"186 1 OFFCURVE",
"187.5 7 CURVE SMOOTH",
"306 346 LINE SMOOTH",
"307 349.5 OFFCURVE",
"307 351.5 OFFCURVE",
"307 353 CURVE SMOOTH",
"307 359 OFFCURVE",
"300.5 362 OFFCURVE",
"285 362 CURVE SMOOTH",
"282.5 362 LINE SMOOTH",
"272 362 OFFCURVE",
"263.5 360.5 OFFCURVE",
"262 353.5 CURVE SMOOTH",
"166 79 LINE",
"160.5 51.5 LINE",
"159 51.5 LINE",
"154 78.5 LINE",
"58 353.5 LINE SMOOTH",
"56.5 360.5 OFFCURVE",
"48 362 OFFCURVE",
"37.5 362 CURVE SMOOTH",
"33 362 LINE SMOOTH",
"17.5 362 OFFCURVE",
"11 358.5 OFFCURVE",
"11 353 CURVE SMOOTH",
"11 351.5 OFFCURVE",
"11.5 349.5 OFFCURVE",
"12 346.5 CURVE SMOOTH",
"130.5 7 LINE SMOOTH",
"133 1 OFFCURVE",
"140.5 -1 OFFCURVE",
"151 -1 CURVE SMOOTH"
);
}
);
width = 318.5;
},
{
layerId = "73D3DE9D-4D16-48FA-A6EF-561C99E37BFC";
name = Bold;
paths = (
{
closed = 1;
nodes = (
"171.5 -1 LINE SMOOTH",
"186.5 -1 OFFCURVE",
"198 1.5 OFFCURVE",
"201 10 CURVE SMOOTH",
"312 341.5 LINE SMOOTH",
"313.5 345.5 OFFCURVE",
"314 348 OFFCURVE",
"314 351 CURVE SMOOTH",
"314 358 OFFCURVE",
"304.5 362 OFFCURVE",
"283 362 CURVE SMOOTH",
"267 362 LINE SMOOTH",
"252 362 OFFCURVE",
"239.5 358 OFFCURVE",
"236.5 347 CURVE SMOOTH",
"164.5 124 LINE",
"159 105.5 LINE",
"156.5 105.5 LINE",
"151 124 LINE",
"81.5 347 LINE SMOOTH",
"78 358.5 OFFCURVE",
"66 362 OFFCURVE",
"51 362 CURVE SMOOTH",
"34.5 362 LINE SMOOTH",
"12 362 OFFCURVE",
"3 358 OFFCURVE",
"3 351 CURVE SMOOTH",
"3 348 OFFCURVE",
"4 345.5 OFFCURVE",
"4.5 341.5 CURVE SMOOTH",
"116 10 LINE SMOOTH",
"118.5 1.5 OFFCURVE",
"130 -1 OFFCURVE",
"145 -1 CURVE SMOOTH"
);
}
);
width = 318.5;
}
);
leftKerningGroup = V;
rightKerningGroup = V;
unicode = 0056;
},
{
glyphname = W;
lastChange = "2015-01-29 02:55:36 +0000";
layers = (
{
anchors = (
{
name = top;
position = "{227.5, 361}";
}
);
layerId = "30990018-E5AF-4C66-A976-C36FA03CF41D";
name = Regular;
paths = (
{
closed = 1;
nodes = (
"139.5 -1 LINE SMOOTH",
"149.5 -1 OFFCURVE",
"158.5 1 OFFCURVE",
"160 7 CURVE SMOOTH",
"216.5 217 LINE",
"227 284.5 LINE",
"238 217 LINE",
"294 7 LINE SMOOTH",
"295.5 1 OFFCURVE",
"304.5 -1 OFFCURVE",
"315 -1 CURVE SMOOTH",
"336 -1 LINE SMOOTH",
"346 -1 OFFCURVE",
"355 1 OFFCURVE",
"356.5 7 CURVE SMOOTH",
"445.5 346 LINE SMOOTH",
"446 348 OFFCURVE",
"447 352.5 OFFCURVE",
"447 353 CURVE SMOOTH",
"447 359 OFFCURVE",
"440.5 362 OFFCURVE",
"425 362 CURVE SMOOTH",
"422 362 LINE SMOOTH",
"412 362 OFFCURVE",
"403 360.5 OFFCURVE",
"401.5 353.5 CURVE SMOOTH",
"338.5 101.5 LINE",
"335 84.5 OFFCURVE",
"330.5 68.5 OFFCURVE",
"326.5 52 CURVE",
"326.5 52 OFFCURVE",
"322 81.5 OFFCURVE",
"317.5 99.5 CURVE SMOOTH",
"254 353 LINE SMOOTH",
"252.5 360.5 OFFCURVE",
"244 362 OFFCURVE",
"233.5 362 CURVE SMOOTH",
"225.5 362 LINE SMOOTH",
"215.5 362 OFFCURVE",
"207 360.5 OFFCURVE",
"205.5 353 CURVE SMOOTH",
"143 102 LINE",
"139 85 OFFCURVE",
"134.5 68.5 OFFCURVE",
"130.5 52 CURVE",
"130 53.5 OFFCURVE",
"125 86.5 OFFCURVE",
"121 100 CURVE SMOOTH",
"56 353.5 LINE SMOOTH",
"54 360.5 OFFCURVE",
"45.5 362 OFFCURVE",
"35 362 CURVE SMOOTH",
"30 362 LINE SMOOTH",
"14.5 362 OFFCURVE",
"7.5 358.5 OFFCURVE",
"7.5 353 CURVE SMOOTH",
"7.5 351.5 OFFCURVE",
"9 348 OFFCURVE",
"9.5 346 CURVE SMOOTH",
"97.5 7 LINE SMOOTH",
"99 1 OFFCURVE",
"108 -1 OFFCURVE",
"118 -1 CURVE SMOOTH"
);
}
);
width = 455;
},
{
anchors = (
{
name = top;
position = "{227.5, 361}";
}
);
layerId = "73D3DE9D-4D16-48FA-A6EF-561C99E37BFC";
name = Bold;
paths = (
{
closed = 1;
nodes = (
"146 -1 LINE SMOOTH",
"160.5 -1 OFFCURVE",
"172 3 OFFCURVE",
"174.5 10 CURVE SMOOTH",
"218 188 LINE",
"227 223.5 LINE",
"235 188 LINE",
"277.5 10 LINE SMOOTH",
"279 3 OFFCURVE",
"291.5 -1 OFFCURVE",
"306 -1 CURVE SMOOTH",
"343.5 -1 LINE SMOOTH",
"358 -1 OFFCURVE",
"369.5 3 OFFCURVE",
"372 10 CURVE SMOOTH",
"456 341 LINE SMOOTH",
"456.5 344.5 OFFCURVE",
"457 346.5 OFFCURVE",
"457 348.5 CURVE SMOOTH",
"457 357 OFFCURVE",
"447 362 OFFCURVE",
"425 362 CURVE SMOOTH",
"419.5 362 LINE SMOOTH",
"399 362 OFFCURVE",
"387.5 357 OFFCURVE",
"384.5 346 CURVE SMOOTH",
"345 180 LINE SMOOTH",
"340 160.5 OFFCURVE",
"334 130.5 OFFCURVE",
"327 102.5 CURVE",
"321 131 OFFCURVE",
"314.5 160.5 OFFCURVE",
"309.5 180 CURVE SMOOTH",
"269 351.5 LINE SMOOTH",
"267 360 OFFCURVE",
"257 362 OFFCURVE",
"240 362 CURVE SMOOTH",
"221 362 LINE SMOOTH",
"204 362 OFFCURVE",
"194.5 360 OFFCURVE",
"192.5 351.5 CURVE SMOOTH",
"150 180 LINE SMOOTH",
"145.5 162.5 OFFCURVE",
"137.5 134.5 OFFCURVE",
"133 105.5 CURVE",
"126 134.5 OFFCURVE",
"120.5 162.5 OFFCURVE",
"117 180 CURVE SMOOTH",
"78 346 LINE SMOOTH",
"75.5 357 OFFCURVE",
"63.5 362 OFFCURVE",
"43 362 CURVE SMOOTH",
"30 362 LINE SMOOTH",
"7.5 362 OFFCURVE",
"-2 357 OFFCURVE",
"-2 348.5 CURVE SMOOTH",
"-2 346.5 OFFCURVE",
"-2 344.5 OFFCURVE",
"-1 341 CURVE SMOOTH",
"80.5 10 LINE SMOOTH",
"82 3 OFFCURVE",
"92.5 -1 OFFCURVE",
"109 -1 CURVE SMOOTH"
);
}
);
width = 455;
}
);
leftKerningGroup = V;
rightKerningGroup = V;
unicode = 0057;
},
{
glyphname = X;
lastChange = "2015-01-29 02:55:36 +0000";
layers = (
{
layerId = "30990018-E5AF-4C66-A976-C36FA03CF41D";
name = Regular;
paths = (
{
closed = 1;
nodes = (
"38 -1 LINE SMOOTH",
"47.5 -1 OFFCURVE",
"57 0.5 OFFCURVE",
"60.5 6 CURVE SMOOTH",
"156 148.5 LINE",
"251.5 6.5 LINE SMOOTH",
"255 0.5 OFFCURVE",
"262.5 -1 OFFCURVE",
"273.5 -1 CURVE SMOOTH",
"281.5 -1 LINE SMOOTH",
"299.5 -1 OFFCURVE",
"305.5 2 OFFCURVE",
"305.5 7.5 CURVE SMOOTH",
"305.5 10.5 OFFCURVE",
"304 13.5 OFFCURVE",
"301 17 CURVE SMOOTH",
"185.5 191 LINE",
"288.5 344.5 LINE SMOOTH",
"290.5 347.5 OFFCURVE",
"292 351 OFFCURVE",
"292 353 CURVE SMOOTH",
"292 360 OFFCURVE",
"285.5 362 OFFCURVE",
"269 362 CURVE SMOOTH",
"265.5 362 LINE SMOOTH",
"256.5 362 OFFCURVE",
"247 360.5 OFFCURVE",
"243.5 355 CURVE SMOOTH",
"158.5 230.5 LINE",
"76 354 LINE SMOOTH",
"72 360.5 OFFCURVE",
"64 362 OFFCURVE",
"53.5 362 CURVE SMOOTH",
"46.5 362 LINE SMOOTH",
"29 362 OFFCURVE",
"22.5 359 OFFCURVE",
"22.5 353 CURVE SMOOTH",
"22.5 351 OFFCURVE",
"24.5 347.5 OFFCURVE",
"26.5 344.5 CURVE SMOOTH",
"130 188 LINE",
"14.5 17 LINE SMOOTH",
"11.5 13.5 OFFCURVE",
"10.5 10.5 OFFCURVE",
"10.5 7.5 CURVE SMOOTH",
"10.5 1.5 OFFCURVE",
"17 -1 OFFCURVE",
"34.5 -1 CURVE SMOOTH"
);
}
);
width = 315;
},
{
layerId = "73D3DE9D-4D16-48FA-A6EF-561C99E37BFC";
name = Bold;
paths = (
{
closed = 1;
nodes = (
"56.5 -1 LINE SMOOTH",
"71.5 -1 OFFCURVE",
"81.5 -0.5 OFFCURVE",
"87.5 9 CURVE SMOOTH",
"159 119.5 LINE",
"227.5 9 LINE SMOOTH",
"232 1 OFFCURVE",
"243.5 -1 OFFCURVE",
"258.5 -1 CURVE SMOOTH",
"278.5 -1 LINE SMOOTH",
"301 -1 OFFCURVE",
"311 3 OFFCURVE",
"311 9 CURVE SMOOTH",
"311 12 OFFCURVE",
"309.5 16.5 OFFCURVE",
"306.5 21.5 CURVE SMOOTH",
"203 187 LINE",
"300.5 339.5 LINE SMOOTH",
"304.5 345 OFFCURVE",
"306 349.5 OFFCURVE",
"306 352.5 CURVE SMOOTH",
"306 358.5 OFFCURVE",
"295.5 362 OFFCURVE",
"273.5 362 CURVE SMOOTH",
"253.5 362 LINE SMOOTH",
"238.5 362 OFFCURVE",
"227.5 361 OFFCURVE",
"222 352.5 CURVE SMOOTH",
"160 256.5 LINE",
"101.5 352.5 LINE SMOOTH",
"96.5 360.5 OFFCURVE",
"85 362 OFFCURVE",
"70.5 362 CURVE SMOOTH",
"49.5 362 LINE SMOOTH",
"26.5 362 OFFCURVE",
"16 358 OFFCURVE",
"16 352.5 CURVE SMOOTH",
"16 348.5 OFFCURVE",
"18.5 345 OFFCURVE",
"21 339.5 CURVE SMOOTH",
"115.5 188 LINE",
"9.5 21.5 LINE SMOOTH",
"5.5 16 OFFCURVE",
"4 11.5 OFFCURVE",
"4 9 CURVE SMOOTH",
"4 3 OFFCURVE",
"14 -1 OFFCURVE",
"36.5 -1 CURVE SMOOTH"
);
}
);
width = 315;
}
);
unicode = 0058;
},
{
glyphname = Y;
lastChange = "2015-01-29 02:55:36 +0000";
layers = (
{
anchors = (
{
name = bottom;
position = "{144, 0}";
},
{
name = top;
position = "{144.5, 361}";
}
);
layerId = "30990018-E5AF-4C66-A976-C36FA03CF41D";
name = Regular;
paths = (
{
closed = 1;
nodes = (
"146 -1 LINE SMOOTH",
"160.5 -1 OFFCURVE",
"166.5 3.5 OFFCURVE",
"166.5 10.5 CURVE SMOOTH",
"166.5 184 LINE",
"275 344.5 LINE SMOOTH",
"276.5 347.5 OFFCURVE",
"279 351 OFFCURVE",
"279 353 CURVE SMOOTH",
"279 359 OFFCURVE",
"273.5 361.5 OFFCURVE",
"259 362 CURVE",
"255 362 LINE",
"245 362 OFFCURVE",
"236 360.5 OFFCURVE",
"232 355 CURVE SMOOTH",
"145.5 227.5 LINE",
"61 354 LINE SMOOTH",
"57 360.5 OFFCURVE",
"49.5 362 OFFCURVE",
"38.5 362 CURVE SMOOTH",
"33 362 LINE SMOOTH",
"15.5 362 OFFCURVE",
"9.5 359 OFFCURVE",
"9.5 353 CURVE SMOOTH",
"9.5 351 OFFCURVE",
"11 347.5 OFFCURVE",
"13.5 344.5 CURVE SMOOTH",
"121 185.5 LINE",
"121 10.5 LINE SMOOTH",
"121 3.5 OFFCURVE",
"127.5 -1 OFFCURVE",
"141.5 -1 CURVE SMOOTH"
);
}
);
width = 288.5;
},
{
anchors = (
{
name = bottom;
position = "{145.5, 0}";
},
{
name = top;
position = "{144.5, 361}";
}
);
layerId = "73D3DE9D-4D16-48FA-A6EF-561C99E37BFC";
name = Bold;
paths = (
{
closed = 1;
nodes = (
"153.5 -1 LINE SMOOTH",
"175 -1 OFFCURVE",
"184.5 4.5 OFFCURVE",
"184.5 15.5 CURVE SMOOTH",
"184.5 171.5 LINE",
"286.5 338.5 LINE SMOOTH",
"290 344.5 OFFCURVE",
"291.5 348.5 OFFCURVE",
"291.5 352 CURVE SMOOTH",
"291.5 358 OFFCURVE",
"281.5 362 OFFCURVE",
"259 362 CURVE SMOOTH",
"240 362 LINE SMOOTH",
"225.5 362 OFFCURVE",
"214 360.5 OFFCURVE",
"209 352.5 CURVE SMOOTH",
"146 242 LINE",
"83 352.5 LINE SMOOTH",
"78.5 360.5 OFFCURVE",
"67 362 OFFCURVE",
"52 362 CURVE SMOOTH",
"30 362 LINE SMOOTH",
"7 362 OFFCURVE",
"-3.5 358 OFFCURVE",
"-3.5 352 CURVE SMOOTH",
"-3.5 348.5 OFFCURVE",
"-1 344.5 OFFCURVE",
"2 338.5 CURVE SMOOTH",
"104.5 173 LINE",
"104.5 15.5 LINE SMOOTH",
"104.5 4.5 OFFCURVE",
"114 -1 OFFCURVE",
"135.5 -1 CURVE SMOOTH"
);
}
);
width = 288.5;
}
);
leftKerningGroup = Y;
rightKerningGroup = Y;
unicode = 0059;
},
{
glyphname = Z;
lastChange = "2015-01-29 02:55:36 +0000";
layers = (
{
anchors = (
{
name = bottom;
position = "{164, 0}";
},
{
name = top;
position = "{159, 361}";
}
);
layerId = "30990018-E5AF-4C66-A976-C36FA03CF41D";
name = Regular;
paths = (
{
closed = 1;
nodes = (
"283.5 0 LINE SMOOTH",
"290.5 0 OFFCURVE",
"293.5 5 OFFCURVE",
"293.5 17.5 CURVE SMOOTH",
"293.5 21.5 LINE SMOOTH",
"293.5 34.5 OFFCURVE",
"290.5 39.5 OFFCURVE",
"283.5 39.5 CURVE SMOOTH",
"81.5 39.5 LINE",
"293 327.5 LINE SMOOTH",
"294 329.5 OFFCURVE",
"294.5 331 OFFCURVE",
"294.5 334 CURVE SMOOTH",
"294.5 345 OFFCURVE",
"286.5 361 OFFCURVE",
"283.5 361 CURVE SMOOTH",
"47 361 LINE SMOOTH",
"40 361 OFFCURVE",
"36.5 356 OFFCURVE",
"36.5 343.5 CURVE SMOOTH",
"36.5 339.5 LINE SMOOTH",
"36.5 327 OFFCURVE",
"40 322 OFFCURVE",
"47 322 CURVE SMOOTH",
"232.5 322 LINE",
"21 34 LINE SMOOTH",
"20 32 OFFCURVE",
"19.5 30 OFFCURVE",
"19.5 27 CURVE SMOOTH",
"19.5 17 OFFCURVE",
"26.5 0 OFFCURVE",
"32 0 CURVE"
);
}
);
width = 317.5;
},
{
anchors = (
{
name = bottom;
position = "{154.5, 0}";
},
{
name = top;
position = "{159, 361}";
}
);
layerId = "73D3DE9D-4D16-48FA-A6EF-561C99E37BFC";
name = Bold;
paths = (
{
closed = 1;
nodes = (
"284 0 LINE SMOOTH",
"294.5 0 OFFCURVE",
"299.5 7.5 OFFCURVE",
"299.5 26 CURVE SMOOTH",
"299.5 41.5 LINE SMOOTH",
"299.5 60 OFFCURVE",
"294.5 67.5 OFFCURVE",
"284 67.5 CURVE SMOOTH",
"126 67.5 LINE",
"299 309.5 LINE SMOOTH",
"299.5 310.5 OFFCURVE",
"299.5 311.5 OFFCURVE",
"299.5 314 CURVE SMOOTH",
"299.5 327 OFFCURVE",
"288.5 361 OFFCURVE",
"280 361 CURVE SMOOTH",
"44.5 361 LINE SMOOTH",
"34 361 OFFCURVE",
"29 353 OFFCURVE",
"29 335.5 CURVE SMOOTH",
"29 319.5 LINE SMOOTH",
"29 301 OFFCURVE",
"34 293.5 OFFCURVE",
"44.5 293.5 CURVE SMOOTH",
"187.5 293.5 LINE",
"15 51 LINE SMOOTH",
"14.5 50 OFFCURVE",
"14 48 OFFCURVE",
"14 46 CURVE SMOOTH",
"14 32 OFFCURVE",
"25.5 0 OFFCURVE",
"34.5 0 CURVE"
);
}
);
width = 317.5;
}
);
unicode = 005A;
},
{
glyphname = Y.loclGUA;
lastChange = "2015-01-29 02:55:36 +0000";
layers = (
{
anchors = (
{
name = bottom;
position = "{140, 0}";
},
{
name = top;
position = "{144.5, 361}";
}
);
layerId = "30990018-E5AF-4C66-A976-C36FA03CF41D";
name = Regular;
paths = (
{
closed = 1;
nodes = (
"221 -4 OFFCURVE",
"252.5 33 OFFCURVE",
"252.5 156 CURVE SMOOTH",
"252.5 351 LINE SMOOTH",
"252.5 358 OFFCURVE",
"246.5 362 OFFCURVE",
"231.5 362 CURVE SMOOTH",
"229.5 362 LINE SMOOTH",
"215.5 362 OFFCURVE",
"208.5 358 OFFCURVE",
"208.5 351 CURVE SMOOTH",
"208.5 182.5 LINE",
"190.5 160.5 OFFCURVE",
"164 146.5 OFFCURVE",
"139 146.5 CURVE SMOOTH",
"102.5 146.5 OFFCURVE",
"81 165 OFFCURVE",
"81 196.5 CURVE SMOOTH",
"81 351 LINE SMOOTH",
"81 358 OFFCURVE",
"74.5 362 OFFCURVE",
"60.5 362 CURVE SMOOTH",
"58 362 LINE SMOOTH",
"43.5 362 OFFCURVE",
"37.5 358 OFFCURVE",
"37.5 351 CURVE SMOOTH",
"37.5 192.5 LINE SMOOTH",
"37.5 140.5 OFFCURVE",
"71.5 109 OFFCURVE",
"127 109 CURVE SMOOTH",
"160.5 109 OFFCURVE",
"194.5 125.5 OFFCURVE",
"218 154 CURVE",
"208.5 166.5 LINE",
"208.5 158.5 LINE",
"210 67.5 OFFCURVE",
"192 33 OFFCURVE",
"144 33 CURVE SMOOTH",
"81 33 OFFCURVE",
"52 56 OFFCURVE",
"44.5 56 CURVE SMOOTH",
"42 56 OFFCURVE",
"39.5 53.5 OFFCURVE",
"39.5 40.5 CURVE SMOOTH",
"39.5 36.5 OFFCURVE",
"39.5 32.5 OFFCURVE",
"40 27 CURVE SMOOTH",
"41.5 14 OFFCURVE",
"86.5 -4 OFFCURVE",
"148 -4 CURVE SMOOTH"
);
}
);
width = 288.5;
},
{
anchors = (
{
name = bottom;
position = "{134.5, 0}";
},
{
name = top;
position = "{144.5, 361}";
}
);
layerId = "73D3DE9D-4D16-48FA-A6EF-561C99E37BFC";
name = Bold;
paths = (
{
closed = 1;
nodes = (
"231.5 -4.5 OFFCURVE",
"266 48 OFFCURVE",
"266 153 CURVE SMOOTH",
"266 345.5 LINE SMOOTH",
"266 356 OFFCURVE",
"257 361.5 OFFCURVE",
"235 361.5 CURVE SMOOTH",
"221 361.5 LINE SMOOTH",
"199.5 361.5 OFFCURVE",
"190 356 OFFCURVE",
"190 345.5 CURVE SMOOTH",
"190 200.5 LINE",
"184 188 OFFCURVE",
"170.5 170.5 OFFCURVE",
"148.5 170.5 CURVE SMOOTH",
"118.5 170.5 OFFCURVE",
"107.5 182 OFFCURVE",
"107.5 202 CURVE SMOOTH",
"107.5 345.5 LINE SMOOTH",
"107.5 356 OFFCURVE",
"98 361.5 OFFCURVE",
"76.5 361.5 CURVE SMOOTH",
"62 361.5 LINE SMOOTH",
"40.5 361.5 OFFCURVE",
"31 356 OFFCURVE",
"31 345.5 CURVE SMOOTH",
"31 191 LINE SMOOTH",
"31 133.5 OFFCURVE",
"58 107.5 OFFCURVE",
"117.5 107.5 CURVE SMOOTH",
"156 107.5 OFFCURVE",
"188 134 OFFCURVE",
"200.5 156 CURVE",
"190 176 LINE",
"190 125 LINE SMOOTH",
"190 79.5 OFFCURVE",
"170 56 OFFCURVE",
"129.5 56 CURVE SMOOTH",
"79.5 56 OFFCURVE",
"49.5 77 OFFCURVE",
"41.5 77 CURVE SMOOTH",
"38 77 OFFCURVE",
"35 72 OFFCURVE",
"35 56.5 CURVE SMOOTH",
"35 50 OFFCURVE",
"35.5 41.5 OFFCURVE",
"36.5 32 CURVE SMOOTH",
"38.5 10.5 OFFCURVE",
"90 -4.5 OFFCURVE",
"151 -4.5 CURVE SMOOTH"
);
}
);
width = 288.5;
}
);
},
{
glyphname = a;
lastChange = "2015-01-29 02:55:36 +0000";
layers = (
{
anchors = (
{
name = bottom;
position = "{134.5, 0}";
},
{
name = ogonek;
position = "{245, 9}";
},
{
name = top;
position = "{140.5, 269.5}";
}
);
layerId = "30990018-E5AF-4C66-A976-C36FA03CF41D";
name = Regular;
paths = (
{
closed = 1;
nodes = (
"152 -3.5 OFFCURVE",
"180.5 14 OFFCURVE",
"200.5 35.5 CURVE",
"203 21 OFFCURVE",
"206 -0.5 OFFCURVE",
"218 -0.5 CURVE SMOOTH",
"224.5 -0.5 OFFCURVE",
"246.5 1.5 OFFCURVE",
"246.5 11.5 CURVE SMOOTH",
"246.5 14 OFFCURVE",
"239.5 34.5 OFFCURVE",
"239.5 76.5 CURVE SMOOTH",
"239.5 192 LINE SMOOTH",
"239.5 243 OFFCURVE",
"202 273 OFFCURVE",
"138.5 273 CURVE SMOOTH",
"87 273 OFFCURVE",
"41.5 253.5 OFFCURVE",
"41.5 239.5 CURVE SMOOTH",
"41.5 234 OFFCURVE",
"52 214 OFFCURVE",
"59 214 CURVE SMOOTH",
"64 214 OFFCURVE",
"93 236 OFFCURVE",
"140 236 CURVE SMOOTH",
"182.5 236 OFFCURVE",
"196.5 216 OFFCURVE",
"196.5 192.5 CURVE SMOOTH",
"196.5 168.5 LINE",
"117.5 167 OFFCURVE",
"25.5 161.5 OFFCURVE",
"25.5 74 CURVE SMOOTH",
"25.5 21 OFFCURVE",
"63.5 -3.5 OFFCURVE",
"113.5 -3.5 CURVE SMOOTH"
);
},
{
closed = 1;
nodes = (
"87 34.5 OFFCURVE",
"72 49.5 OFFCURVE",
"72 77 CURVE SMOOTH",
"72 130.5 OFFCURVE",
"143 130.5 OFFCURVE",
"196.5 131 CURVE",
"196.5 70.5 LINE",
"176 51.5 OFFCURVE",
"153.5 34.5 OFFCURVE",
"115.5 34.5 CURVE SMOOTH"
);
}
);
width = 281;
},
{
anchors = (
{
name = bottom;
position = "{140.5, 0}";
},
{
name = ogonek;
position = "{248.5, 16}";
},
{
name = top;
position = "{140.5, 269.5}";
}
);
layerId = "73D3DE9D-4D16-48FA-A6EF-561C99E37BFC";
name = Bold;
paths = (
{
closed = 1;
nodes = (
"145.5 -4 OFFCURVE",
"170.5 28 OFFCURVE",
"174 35 CURVE",
"177 21 OFFCURVE",
"178 -0.5 OFFCURVE",
"194.5 -0.5 CURVE SMOOTH",
"207.5 -0.5 OFFCURVE",
"252.5 4 OFFCURVE",
"252.5 16 CURVE SMOOTH",
"252.5 26.5 OFFCURVE",
"246.5 37.5 OFFCURVE",
"246.5 91 CURVE SMOOTH",
"246.5 187.5 LINE SMOOTH",
"246.5 238 OFFCURVE",
"216.5 274 OFFCURVE",
"135 274 CURVE SMOOTH",
"78 274 OFFCURVE",
"36.5 255.5 OFFCURVE",
"36.5 238.5 CURVE SMOOTH",
"36.5 227.5 OFFCURVE",
"52.5 197 OFFCURVE",
"63.5 197 CURVE SMOOTH",
"69.5 197 OFFCURVE",
"92 213.5 OFFCURVE",
"129.5 213.5 CURVE SMOOTH",
"157.5 213.5 OFFCURVE",
"170 203.5 OFFCURVE",
"170 184.5 CURVE SMOOTH",
"170 167 LINE",
"38.5 167 OFFCURVE",
"21.5 113.5 OFFCURVE",
"21.5 71.5 CURVE SMOOTH",
"21.5 29 OFFCURVE",
"42 -4 OFFCURVE",
"98 -4 CURVE SMOOTH"
);
},
{
closed = 1;
nodes = (
"106.5 56.5 OFFCURVE",
"97.5 66 OFFCURVE",
"97.5 79 CURVE SMOOTH",
"97.5 103.5 OFFCURVE",
"120.5 117.5 OFFCURVE",
"170 117.5 CURVE",
"170 88.5 LINE",
"161.5 70.5 OFFCURVE",
"143 56.5 OFFCURVE",
"123.5 56.5 CURVE SMOOTH"
);
}
);
width = 281;
}
);
leftKerningGroup = a;
unicode = 0061;
},
{
glyphname = ae;
lastChange = "2015-01-29 02:55:36 +0000";
layers = (
{
anchors = (
{
name = top;
position = "{214, 269.5}";
}
);
layerId = "30990018-E5AF-4C66-A976-C36FA03CF41D";
name = Regular;
paths = (
{
closed = 1;
nodes = (
"151.5 -3.5 OFFCURVE",
"184 11.5 OFFCURVE",
"205 29.5 CURVE",
"225.5 7.5 OFFCURVE",
"257 -3.5 OFFCURVE",
"299.5 -3.5 CURVE SMOOTH",
"351.5 -3.5 OFFCURVE",
"392 17.5 OFFCURVE",
"392 30 CURVE SMOOTH",
"392 35.5 OFFCURVE",
"381.5 56 OFFCURVE",
"374 56 CURVE SMOOTH",
"368.5 56 OFFCURVE",
"343.5 34.5 OFFCURVE",
"299 34.5 CURVE SMOOTH",
"247.5 34.5 OFFCURVE",
"223.5 62 OFFCURVE",
"219 124.5 CURVE",
"382.5 124.5 LINE SMOOTH",
"388.5 124.5 OFFCURVE",
"399 139.5 OFFCURVE",
"399 145.5 CURVE SMOOTH",
"399 228 OFFCURVE",
"363.5 273 OFFCURVE",
"293 273 CURVE SMOOTH",
"260.5 273 OFFCURVE",
"234 264.5 OFFCURVE",
"215 248 CURVE",
"197 264 OFFCURVE",
"170.5 273 OFFCURVE",
"136 273 CURVE SMOOTH",
"84.5 273 OFFCURVE",
"39.5 253.5 OFFCURVE",
"39.5 239.5 CURVE SMOOTH",
"39.5 234 OFFCURVE",
"50 214 OFFCURVE",
"57 214 CURVE SMOOTH",
"62.5 214 OFFCURVE",
"91 236 OFFCURVE",
"138 236 CURVE SMOOTH",
"165.5 236 OFFCURVE",
"181 227 OFFCURVE",
"188.5 215 CURVE",
"181 200 OFFCURVE",
"176.5 181.5 OFFCURVE",
"174.5 161 CURVE",
"100.5 159 OFFCURVE",
"23 148 OFFCURVE",
"23 74 CURVE SMOOTH",
"23 21 OFFCURVE",
"61.5 -3.5 OFFCURVE",
"111.5 -3.5 CURVE SMOOTH"
);
},
{
closed = 1;
nodes = (
"84.5 34.5 OFFCURVE",
"69.5 49.5 OFFCURVE",
"69.5 77 CURVE SMOOTH",
"69.5 117.5 OFFCURVE",
"123.5 123 OFFCURVE",
"172.5 124 CURVE",
"173 99.5 OFFCURVE",
"177.5 78.5 OFFCURVE",
"185 61.5 CURVE",
"166 46.5 OFFCURVE",
"145 34.5 OFFCURVE",
"113.5 34.5 CURVE SMOOTH"
);
},
{
closed = 1;
nodes = (
"223 210.5 OFFCURVE",
"246.5 236 OFFCURVE",
"291.5 236 CURVE SMOOTH",
"332.5 236 OFFCURVE",
"353 210.5 OFFCURVE",
"353 161.5 CURVE",
"219 161.5 LINE"
);
}
);
width = 428;
},
{
anchors = (
{
name = top;
position = "{214, 269.5}";
}
);
layerId = "73D3DE9D-4D16-48FA-A6EF-561C99E37BFC";
name = Bold;
paths = (
{
closed = 1;
nodes = (
"155 -4 OFFCURVE",
"187.5 19 OFFCURVE",
"200 31 CURVE",
"222 9 OFFCURVE",
"254.5 -4 OFFCURVE",
"300 -4 CURVE SMOOTH",
"329.5 -4 OFFCURVE",
"393 7 OFFCURVE",
"393 33 CURVE SMOOTH",
"393 43 OFFCURVE",
"377.5 72 OFFCURVE",
"366.5 72 CURVE SMOOTH",
"359 72 OFFCURVE",
"336.5 56.5 OFFCURVE",
"304 56.5 CURVE SMOOTH",
"274 56.5 OFFCURVE",
"246 71 OFFCURVE",
"246 115.5 CURVE",
"377 115.5 LINE SMOOTH",
"383.5 115.5 OFFCURVE",
"402.5 137.5 OFFCURVE",
"402.5 146 CURVE SMOOTH",
"402.5 217.5 OFFCURVE",
"372 274 OFFCURVE",
"291 274 CURVE SMOOTH",
"262.5 274 OFFCURVE",
"238 268 OFFCURVE",
"217.5 255 CURVE",
"200.5 267.5 OFFCURVE",
"172.5 274 OFFCURVE",
"134.5 274 CURVE SMOOTH",
"77.5 274 OFFCURVE",
"36 255.5 OFFCURVE",
"36 238.5 CURVE SMOOTH",
"36 227.5 OFFCURVE",
"52 197 OFFCURVE",
"63 197 CURVE SMOOTH",
"71.5 197 OFFCURVE",
"97 213.5 OFFCURVE",
"129 213.5 CURVE SMOOTH",
"149 213.5 OFFCURVE",
"167 210.5 OFFCURVE",
"175.5 200 CURVE",
"171.5 190 OFFCURVE",
"169.5 179 OFFCURVE",
"167.5 166.5 CURVE",
"38 166 OFFCURVE",
"21 113 OFFCURVE",
"21 71.5 CURVE SMOOTH",
"21 29 OFFCURVE",
"51 -4 OFFCURVE",
"107 -4 CURVE SMOOTH"
);
},
{
closed = 1;
nodes = (
"105.5 56.5 OFFCURVE",
"97 66 OFFCURVE",
"97 79 CURVE SMOOTH",
"97 103 OFFCURVE",
"119 115.5 OFFCURVE",
"166 116 CURVE",
"167 103 OFFCURVE",
"169.5 91.5 OFFCURVE",
"172 80.5 CURVE",
"162.5 64 OFFCURVE",
"140.5 56.5 OFFCURVE",
"123 56.5 CURVE SMOOTH"
);
},
{
closed = 1;
nodes = (
"250.5 206.5 OFFCURVE",
"273.5 213.5 OFFCURVE",
"291 213.5 CURVE SMOOTH",
"314 213.5 OFFCURVE",
"328 196.5 OFFCURVE",
"328 166.5 CURVE",
"244.5 166.5 LINE"
);
}
);
width = 428;
}
);
leftKerningGroup = a;
unicode = 00E6;
},
{
glyphname = b;
lastChange = "2015-01-29 02:55:36 +0000";
layers = (
{
layerId = "30990018-E5AF-4C66-A976-C36FA03CF41D";
name = Regular;
paths = (
{
closed = 1;
nodes = (
"227.5 -3.5 OFFCURVE",
"265.5 55 OFFCURVE",
"265.5 135 CURVE SMOOTH",
"265.5 224 OFFCURVE",
"222.5 273 OFFCURVE",
"161 273 CURVE SMOOTH",
"129 273 OFFCURVE",
"107.5 262 OFFCURVE",
"87.5 246.5 CURVE",
"87.5 376.5 LINE SMOOTH",
"87.5 383.5 OFFCURVE",
"81 388 OFFCURVE",
"66.5 388 CURVE SMOOTH",
"64 388 LINE SMOOTH",
"50 388 OFFCURVE",
"43.5 383.5 OFFCURVE",
"43.5 376.5 CURVE SMOOTH",
"43.5 10.5 LINE SMOOTH",
"43.5 3.5 OFFCURVE",
"48.5 -1 OFFCURVE",
"59 -1 CURVE SMOOTH",
"61.5 -1 LINE SMOOTH",
"68.5 -1 OFFCURVE",
"73 0.5 OFFCURVE",
"75.5 5 CURVE",
"79.5 15.5 OFFCURVE",
"82 25.5 OFFCURVE",
"83.5 35.5 CURVE",
"109 9.5 OFFCURVE",
"136 -3.5 OFFCURVE",
"165.5 -3.5 CURVE SMOOTH"
);
},
{
closed = 1;
nodes = (
"134 34.5 OFFCURVE",
"108.5 47 OFFCURVE",
"87.5 70.5 CURVE",
"87.5 211.5 LINE",
"105.5 227 OFFCURVE",
"129 234.5 OFFCURVE",
"151 234.5 CURVE SMOOTH",
"197 233.5 OFFCURVE",
"220.5 200.5 OFFCURVE",
"220.5 139 CURVE SMOOTH",
"220.5 72 OFFCURVE",
"197.5 34.5 OFFCURVE",
"156.5 34.5 CURVE SMOOTH"
);
}
);
width = 293.5;
},
{
layerId = "73D3DE9D-4D16-48FA-A6EF-561C99E37BFC";
name = Bold;
paths = (
{
closed = 1;
nodes = (
"231.5 -4 OFFCURVE",
"272 45.5 OFFCURVE",
"272 135 CURVE SMOOTH",
"272 219 OFFCURVE",
"232.5 274 OFFCURVE",
"163.5 274 CURVE SMOOTH",
"139 274 OFFCURVE",
"121 265.5 OFFCURVE",
"110 258 CURVE",
"110 372.5 LINE SMOOTH",
"110 383 OFFCURVE",
"101.5 389 OFFCURVE",
"79.5 389 CURVE SMOOTH",
"65 389 LINE SMOOTH",
"43 389 OFFCURVE",
"34.5 383 OFFCURVE",
"34.5 372.5 CURVE SMOOTH",
"34.5 15.5 LINE SMOOTH",
"34.5 4.5 OFFCURVE",
"43 -1 OFFCURVE",
"65 -1 CURVE SMOOTH",
"71.5 -1 LINE SMOOTH",
"87.5 -1 OFFCURVE",
"98 1 OFFCURVE",
"101.5 12 CURVE SMOOTH",
"103 19.5 OFFCURVE",
"104.5 27 OFFCURVE",
"106.5 34.5 CURVE",
"118 12 OFFCURVE",
"143.5 -4 OFFCURVE",
"175.5 -4 CURVE SMOOTH"
);
},
{
closed = 1;
nodes = (
"133 58 OFFCURVE",
"119.5 72.5 OFFCURVE",
"110 88.5 CURVE",
"110 203.5 LINE",
"118.5 208.5 OFFCURVE",
"130.5 213.5 OFFCURVE",
"146.5 213.5 CURVE SMOOTH",
"179 213.5 OFFCURVE",
"194.5 186.5 OFFCURVE",
"194.5 135 CURVE SMOOTH",
"194.5 85 OFFCURVE",
"181 58 OFFCURVE",
"153 58 CURVE SMOOTH"
);
}
);
width = 293.5;
}
);
unicode = 0062;
},
{
glyphname = c;
lastChange = "2015-01-29 02:55:36 +0000";
layers = (
{
anchors = (
{
name = bottom;
position = "{148, 0}";
},
{
name = top;
position = "{143, 269.5}";
}
);
layerId = "30990018-E5AF-4C66-A976-C36FA03CF41D";
name = Regular;
paths = (
{
closed = 1;
nodes = (
"198.5 -3.5 OFFCURVE",
"234.5 11.5 OFFCURVE",
"234.5 23 CURVE SMOOTH",
"234.5 30.5 OFFCURVE",
"224 49.5 OFFCURVE",
"217 49.5 CURVE SMOOTH",
"216.5 49.5 OFFCURVE",
"215 48.5 OFFCURVE",
"211.5 47.5 CURVE",
"202 42.5 OFFCURVE",
"182 34.5 OFFCURVE",
"153.5 34.5 CURVE SMOOTH",
"94.5 34.5 OFFCURVE",
"73 65 OFFCURVE",
"73 137.5 CURVE SMOOTH",
"73 208.5 OFFCURVE",
"102.5 236 OFFCURVE",
"148 236 CURVE SMOOTH",
"176 236 OFFCURVE",
"195 227.5 OFFCURVE",
"204 223.5 CURVE SMOOTH",
"207.5 222.5 OFFCURVE",
"208.5 221.5 OFFCURVE",
"210 221.5 CURVE SMOOTH",
"216.5 221.5 OFFCURVE",
"226.5 241 OFFCURVE",
"226.5 249 CURVE SMOOTH",
"226.5 262 OFFCURVE",
"188.5 273 OFFCURVE",
"149 273 CURVE SMOOTH",
"89.5 273 OFFCURVE",
"26.5 244 OFFCURVE",
"26.5 136 CURVE SMOOTH",
"26.5 36.5 OFFCURVE",
"70.5 -3.5 OFFCURVE",
"154 -3.5 CURVE SMOOTH"
);
}
);
width = 250;
},
{
anchors = (
{
name = bottom;
position = "{150.5, 0}";
},
{
name = top;
position = "{141.5, 269.5}";
}
);
layerId = "73D3DE9D-4D16-48FA-A6EF-561C99E37BFC";
name = Bold;
paths = (
{
closed = 1;
nodes = (
"169 -4 OFFCURVE",
"242 3.5 OFFCURVE",
"242 32 CURVE SMOOTH",
"242 42 OFFCURVE",
"226.5 71.5 OFFCURVE",
"215.5 71.5 CURVE SMOOTH",
"213 71.5 OFFCURVE",
"210 69.5 OFFCURVE",
"206 68 CURVE SMOOTH",
"196 63.5 OFFCURVE",
"179.5 56.5 OFFCURVE",
"155.5 56.5 CURVE SMOOTH",
"116 56.5 OFFCURVE",
"100 82 OFFCURVE",
"100 135 CURVE SMOOTH",
"100 187.5 OFFCURVE",
"117.5 213.5 OFFCURVE",
"158.5 213.5 CURVE SMOOTH",
"180 213.5 OFFCURVE",
"193.5 207 OFFCURVE",
"203 202 CURVE SMOOTH",
"207.5 200.5 OFFCURVE",
"210.5 198.5 OFFCURVE",
"212.5 198.5 CURVE SMOOTH",
"221.5 198.5 OFFCURVE",
"239.5 228.5 OFFCURVE",
"239.5 238.5 CURVE SMOOTH",
"239.5 262 OFFCURVE",
"191 274 OFFCURVE",
"154.5 274 CURVE SMOOTH",
"62 274 OFFCURVE",
"21.5 224.5 OFFCURVE",
"21.5 133 CURVE SMOOTH",
"21.5 41 OFFCURVE",
"63.5 -4 OFFCURVE",
"151.5 -4 CURVE SMOOTH"
);
}
);
width = 250;
}
);
leftKerningGroup = c;
unicode = 0063;
},
{
glyphname = d;
lastChange = "2015-01-29 02:55:36 +0000";
layers = (
{
anchors = (
{
name = bottom;
position = "{145, 0}";
},
{
name = caron;
position = "{248, 361}";
},
{
name = center;
position = "{217, 325}";
}
);
hints = (
{
horizontal = 1;
origin = "{0, 29}";
target = "{1, 12}";
},
{
horizontal = 1;
origin = "{0, 23}";
target = "{1, 5}";
},
{
horizontal = 1;
origin = "{0, 16}";
target = down;
type = TopGhost;
},
{
horizontal = 1;
origin = "{0, 5}";
target = up;
type = BottomGhost;
},
{
origin = "{0, 26}";
target = "{1, 2}";
},
{
origin = "{1, 9}";
target = "{0, 11}";
},
{
horizontal = 1;
origin = "{1, 12}";
target = "{1, 5}";
other1 = "{1, 9}";
type = Interpolate;
}
);
layerId = "30990018-E5AF-4C66-A976-C36FA03CF41D";
name = Regular;
paths = (
{
closed = 1;
nodes = (
"156 -3.5 OFFCURVE",
"184 9.5 OFFCURVE",
"208.5 35.5 CURVE",
"212 21 OFFCURVE",
"215 -0.5 OFFCURVE",
"227 -0.5 CURVE SMOOTH",
"233.5 -0.5 OFFCURVE",
"254.5 1.5 OFFCURVE",
"254.5 11.5 CURVE SMOOTH",
"254.5 14 OFFCURVE",
"248.5 34.5 OFFCURVE",
"248.5 76.5 CURVE SMOOTH",
"248.5 376.5 LINE SMOOTH",
"248.5 383.5 OFFCURVE",
"242.5 388 OFFCURVE",
"228 388 CURVE SMOOTH",
"226 388 LINE SMOOTH",
"211.5 388 OFFCURVE",
"205.5 383.5 OFFCURVE",
"205.5 376.5 CURVE SMOOTH",
"205.5 246.5 LINE",
"185.5 262 OFFCURVE",
"163.5 273 OFFCURVE",
"131.5 273 CURVE SMOOTH",
"70.5 273 OFFCURVE",
"26.5 224 OFFCURVE",
"26.5 134.5 CURVE SMOOTH",
"26.5 55 OFFCURVE",
"65 -3.5 OFFCURVE",
"127 -3.5 CURVE SMOOTH"
);
},
{
closed = 1;
nodes = (
"94.5 34.5 OFFCURVE",
"72 72 OFFCURVE",
"72 139 CURVE SMOOTH",
"72 200.5 OFFCURVE",
"95 233.5 OFFCURVE",
"141.5 234.5 CURVE SMOOTH",
"165 234.5 OFFCURVE",
"186.5 227 OFFCURVE",
"205.5 211.5 CURVE",
"205.5 70.5 LINE",
"184.5 47 OFFCURVE",
"158.5 34.5 OFFCURVE",
"135.5 34.5 CURVE SMOOTH"
);
}
);
width = 291.5;
},
{
anchors = (
{
name = bottom;
position = "{150, 0}";
},
{
name = caron;
position = "{257, 361}";
},
{
name = center;
position = "{215.5, 325}";
}
);
hints = (
{
horizontal = 1;
origin = "{0, 5}";
target = up;
type = BottomGhost;
},
{
horizontal = 1;
origin = "{0, 23}";
target = "{1, 5}";
},
{
horizontal = 1;
origin = "{0, 16}";
target = down;
type = TopGhost;
},
{
horizontal = 1;
origin = "{0, 29}";
target = "{1, 12}";
},
{
origin = "{0, 26}";
target = "{1, 2}";
},
{
origin = "{1, 9}";
target = "{0, 11}";
},
{
horizontal = 1;
origin = "{1, 5}";
target = "{1, 12}";
other1 = "{1, 9}";
type = Interpolate;
}
);
layerId = "73D3DE9D-4D16-48FA-A6EF-561C99E37BFC";
name = Bold;
paths = (
{
closed = 1;
nodes = (
"150 -4 OFFCURVE",
"175.5 12 OFFCURVE",
"187 34.5 CURVE",
"190.5 21 OFFCURVE",
"191.5 -0.5 OFFCURVE",
"208 -0.5 CURVE SMOOTH",
"221 -0.5 OFFCURVE",
"265.5 4 OFFCURVE",
"265.5 16 CURVE SMOOTH",
"265.5 26.5 OFFCURVE",
"259.5 37.5 OFFCURVE",
"259.5 91 CURVE SMOOTH",
"259.5 372.5 LINE SMOOTH",
"259.5 383 OFFCURVE",
"250 389 OFFCURVE",
"228.5 389 CURVE SMOOTH",
"214 389 LINE SMOOTH",
"192.5 389 OFFCURVE",
"183 383 OFFCURVE",
"183 372.5 CURVE SMOOTH",
"183 258 LINE",
"172 265.5 OFFCURVE",
"155 274 OFFCURVE",
"130.5 274 CURVE SMOOTH",
"61 274 OFFCURVE",
"21.5 219 OFFCURVE",
"21.5 135 CURVE SMOOTH",
"21.5 45.5 OFFCURVE",
"62.5 -4 OFFCURVE",
"118 -4 CURVE SMOOTH"
);
},
{
closed = 1;
nodes = (
"112.5 58 OFFCURVE",
"99 85 OFFCURVE",
"99 135 CURVE SMOOTH",
"99 186.5 OFFCURVE",
"114.5 213.5 OFFCURVE",
"147 213.5 CURVE SMOOTH",
"163.5 213.5 OFFCURVE",
"175 208.5 OFFCURVE",
"183 203.5 CURVE",
"183 88.5 LINE",
"174 72.5 OFFCURVE",
"160.5 58 OFFCURVE",
"140.5 58 CURVE SMOOTH"
);
}
);
width = 291.5;
}
);
leftKerningGroup = d;
unicode = 0064;
},
{
glyphname = eth;
lastChange = "2015-01-29 02:55:36 +0000";
layers = (
{
layerId = "30990018-E5AF-4C66-A976-C36FA03CF41D";
name = Regular;
paths = (
{
closed = 1;
nodes = (
"224.5 -3.5 OFFCURVE",
"265 44.5 OFFCURVE",
"265 133.5 CURVE SMOOTH",
"265 201 OFFCURVE",
"241 264.5 OFFCURVE",
"206.5 319 CURVE",
"237.5 322.5 LINE SMOOTH",
"242.5 323 OFFCURVE",
"245 326 OFFCURVE",
"245 330 CURVE SMOOTH",
"245 332 OFFCURVE",
"242 346 OFFCURVE",
"232 346 CURVE SMOOTH",
"231.5 346 OFFCURVE",
"231.5 346 OFFCURVE",
"192 340.5 CURVE",
"185.5 350 OFFCURVE",
"180 356 OFFCURVE",
"175 362 CURVE SMOOTH",
"171.5 366 OFFCURVE",
"167.5 368 OFFCURVE",
"161.5 368 CURVE SMOOTH",
"155.5 368 OFFCURVE",
"151 368 OFFCURVE",
"148 367.5 CURVE SMOOTH",
"141.5 366.5 OFFCURVE",
"139.5 363.5 OFFCURVE",
"139.5 360.5 CURVE SMOOTH",
"139.5 355 OFFCURVE",
"145 346.5 OFFCURVE",
"153 335.5 CURVE",
"115.5 330 LINE SMOOTH",
"110 329.5 OFFCURVE",
"108 327 OFFCURVE",
"108 323 CURVE SMOOTH",
"108 316 OFFCURVE",
"114 307 OFFCURVE",
"121 307 CURVE SMOOTH",
"122.5 307 OFFCURVE",
"123.5 307 OFFCURVE",
"165.5 313.5 CURVE",
"173 299.5 OFFCURVE",
"181.5 284 OFFCURVE",
"189.5 267 CURVE",
"177 270.5 OFFCURVE",
"163.5 273 OFFCURVE",
"148 273 CURVE SMOOTH",
"71.5 273 OFFCURVE",
"28 223 OFFCURVE",
"28 133.5 CURVE SMOOTH",
"28 45 OFFCURVE",
"70.5 -3.5 OFFCURVE",
"148 -3.5 CURVE SMOOTH"
);
},
{
closed = 1;
nodes = (
"96 34.5 OFFCURVE",
"72.5 66 OFFCURVE",
"72.5 134.5 CURVE SMOOTH",
"72.5 203.5 OFFCURVE",
"96.5 236 OFFCURVE",
"146.5 236 CURVE SMOOTH",
"197 236 OFFCURVE",
"220.5 203 OFFCURVE",
"220.5 134.5 CURVE SMOOTH",
"220.5 66 OFFCURVE",
"197 34.5 OFFCURVE",
"146.5 34.5 CURVE SMOOTH"
);
}
);
width = 293.5;
},
{
layerId = "73D3DE9D-4D16-48FA-A6EF-561C99E37BFC";
name = Bold;
paths = (
{
closed = 1;
nodes = (
"229 -4 OFFCURVE",
"272 45.5 OFFCURVE",
"272 135 CURVE SMOOTH",
"272 205 OFFCURVE",
"246.5 273 OFFCURVE",
"220.5 312.5 CURVE",
"244 315.5 LINE SMOOTH",
"251.5 316.5 OFFCURVE",
"254.5 319.5 OFFCURVE",
"254.5 324 CURVE SMOOTH",
"254.5 334.5 OFFCURVE",
"244.5 345.5 OFFCURVE",
"236 345.5 CURVE SMOOTH",
"235 345.5 OFFCURVE",
"234.5 345.5 OFFCURVE",
"201 341 CURVE",
"193 350.5 OFFCURVE",
"187 358 OFFCURVE",
"180 363 CURVE SMOOTH",
"174.5 367 OFFCURVE",
"168.5 368.5 OFFCURVE",
"160.5 368.5 CURVE",
"149.5 368 OFFCURVE",
"139.5 366.5 OFFCURVE",
"128.5 365.5 CURVE SMOOTH",
"122 364 OFFCURVE",
"118.5 362 OFFCURVE",
"118.5 359 CURVE SMOOTH",
"118.5 355 OFFCURVE",
"131.5 341.5 OFFCURVE",
"138.5 332.5 CURVE",
"116 330 LINE SMOOTH",
"108.5 329 OFFCURVE",
"105 326 OFFCURVE",
"105 321.5 CURVE SMOOTH",
"105 310.5 OFFCURVE",
"115 299.5 OFFCURVE",
"125 299.5 CURVE SMOOTH",
"127 299.5 OFFCURVE",
"128.5 299.5 OFFCURVE",
"156.5 304 CURVE",
"162.5 294 OFFCURVE",
"168.5 284 OFFCURVE",
"173 272 CURVE",
"165 273 OFFCURVE",
"156 274 OFFCURVE",
"147 274 CURVE SMOOTH",
"65 274 OFFCURVE",
"21.5 224.5 OFFCURVE",
"21.5 135 CURVE SMOOTH",
"21.5 45.5 OFFCURVE",
"65 -4 OFFCURVE",
"147 -4 CURVE SMOOTH"
);
},
{
closed = 1;
nodes = (
"114 56.5 OFFCURVE",
"99 83.5 OFFCURVE",
"99 135 CURVE SMOOTH",
"99 186.5 OFFCURVE",
"114 213.5 OFFCURVE",
"147 213.5 CURVE SMOOTH",
"180 213.5 OFFCURVE",
"194.5 186.5 OFFCURVE",
"194.5 135 CURVE SMOOTH",
"194.5 83.5 OFFCURVE",
"180 56.5 OFFCURVE",
"147 56.5 CURVE SMOOTH"
);
}
);
width = 293.5;
}
);
unicode = 00F0;
},
{
glyphname = e;
lastChange = "2015-01-29 02:55:36 +0000";
layers = (
{
anchors = (
{
name = bottom;
position = "{139.5, 0}";
},
{
name = ogonek;
position = "{223.5, 5}";
},
{
name = top;
position = "{139.5, 269.5}";
}
);
layerId = "30990018-E5AF-4C66-A976-C36FA03CF41D";
name = Regular;
paths = (
{
closed = 1;
nodes = (
"207 -3.5 OFFCURVE",
"247.5 17.5 OFFCURVE",
"247.5 30 CURVE SMOOTH",
"247.5 35.5 OFFCURVE",
"237 56 OFFCURVE",
"229.5 56 CURVE SMOOTH",
"224 56 OFFCURVE",
"199.5 34.5 OFFCURVE",
"154.5 34.5 CURVE SMOOTH",
"103 34.5 OFFCURVE",
"79 60 OFFCURVE",
"74.5 117.5 CURVE",
"238 117.5 LINE SMOOTH",
"244 117.5 OFFCURVE",
"254.5 132.5 OFFCURVE",
"254.5 138.5 CURVE SMOOTH",
"254.5 226 OFFCURVE",
"219 273 OFFCURVE",
"148.5 273 CURVE SMOOTH",
"69.5 273 OFFCURVE",
"28 224 OFFCURVE",
"28 133 CURVE SMOOTH",
"28 41 OFFCURVE",
"69 -3.5 OFFCURVE",
"155 -3.5 CURVE SMOOTH"
);
},
{
closed = 1;
nodes = (
"78.5 208.5 OFFCURVE",
"102.5 236 OFFCURVE",
"147 236 CURVE SMOOTH",
"188 236 OFFCURVE",
"208.5 208.5 OFFCURVE",
"208.5 154.5 CURVE",
"74.5 154.5 LINE"
);
}
);
width = 278;
},
{
anchors = (
{
name = bottom;
position = "{139.5, 0}";
},
{
name = ogonek;
position = "{225.5, 7}";
},
{
name = top;
position = "{139.5, 269.5}";
}
);
layerId = "73D3DE9D-4D16-48FA-A6EF-561C99E37BFC";
name = Bold;
paths = (
{
closed = 1;
nodes = (
"185.5 -4 OFFCURVE",
"249 7 OFFCURVE",
"249 33 CURVE SMOOTH",
"249 43 OFFCURVE",
"233.5 72 OFFCURVE",
"222.5 72 CURVE SMOOTH",
"215.5 72 OFFCURVE",
"192.5 56.5 OFFCURVE",
"160 56.5 CURVE SMOOTH",
"126 56.5 OFFCURVE",
"104 69 OFFCURVE",
"100.5 110 CURVE",
"232 110 LINE SMOOTH",
"239 110 OFFCURVE",
"258.5 132.5 OFFCURVE",
"258.5 140.5 CURVE SMOOTH",
"258.5 212.5 OFFCURVE",
"228 274 OFFCURVE",
"147 274 CURVE SMOOTH",
"73 274 OFFCURVE",
"21.5 234.5 OFFCURVE",
"21.5 133 CURVE SMOOTH",
"21.5 50 OFFCURVE",
"63 -4 OFFCURVE",
"156 -4 CURVE SMOOTH"
);
},
{
closed = 1;
nodes = (
"107 201 OFFCURVE",
"125 213.5 OFFCURVE",
"147 213.5 CURVE SMOOTH",
"172.5 213.5 OFFCURVE",
"184.5 191.5 OFFCURVE",
"184.5 161.5 CURVE",
"100.5 161.5 LINE"
);
}
);
width = 278;
}
);
leftKerningGroup = e;
unicode = 0065;
},
{
glyphname = f;
lastChange = "2015-01-29 02:55:36 +0000";
layers = (
{
layerId = "30990018-E5AF-4C66-A976-C36FA03CF41D";
name = Regular;
paths = (
{
closed = 1;
nodes = (
"78.5 -1 LINE SMOOTH",
"93 -1 OFFCURVE",
"99 3.5 OFFCURVE",
"99 10.5 CURVE SMOOTH",
"99 232.5 LINE",
"144 232.5 LINE SMOOTH",
"151 232.5 OFFCURVE",
"154.5 237.5 OFFCURVE",
"154.5 248 CURVE SMOOTH",
"154.5 254 LINE SMOOTH",
"154.5 265 OFFCURVE",
"151 269.5 OFFCURVE",
"144 269.5 CURVE SMOOTH",
"99 269.5 LINE",
"99 315 LINE SMOOTH",
"99 348.5 OFFCURVE",
"112 352.5 OFFCURVE",
"127 352.5 CURVE SMOOTH",
"141.5 352.5 OFFCURVE",
"144.5 350.5 OFFCURVE",
"149 350.5 CURVE SMOOTH",
"156 350.5 OFFCURVE",
"160 370.5 OFFCURVE",
"160 374.5 CURVE SMOOTH",
"160 388.5 OFFCURVE",
"136 390 OFFCURVE",
"122.5 390 CURVE SMOOTH",
"96.5 390 OFFCURVE",
"56 380.5 OFFCURVE",
"56 319 CURVE SMOOTH",
"56 269.5 LINE",
"35 269.5 LINE SMOOTH",
"27.5 269.5 OFFCURVE",
"25 265 OFFCURVE",
"25 254 CURVE SMOOTH",
"25 248 LINE SMOOTH",
"25 237.5 OFFCURVE",
"27.5 232.5 OFFCURVE",
"35 232.5 CURVE SMOOTH",
"56 232.5 LINE",
"56 10.5 LINE SMOOTH",
"56 3.5 OFFCURVE",
"62 -1 OFFCURVE",
"76.5 -1 CURVE SMOOTH"
);
}
);
width = 167.5;
},
{
layerId = "73D3DE9D-4D16-48FA-A6EF-561C99E37BFC";
name = Bold;
paths = (
{
closed = 1;
nodes = (
"86.5 -1 LINE SMOOTH",
"108 -1 OFFCURVE",
"117.5 4.5 OFFCURVE",
"117.5 15.5 CURVE SMOOTH",
"117.5 209 LINE",
"143 209 LINE SMOOTH",
"154 209 OFFCURVE",
"158.5 217 OFFCURVE",
"158.5 235 CURVE SMOOTH",
"158.5 244 LINE SMOOTH",
"158.5 262 OFFCURVE",
"154 269.5 OFFCURVE",
"143 269.5 CURVE SMOOTH",
"117.5 269.5 LINE",
"117.5 309.5 LINE SMOOTH",
"117.5 325 OFFCURVE",
"122.5 331.5 OFFCURVE",
"135.5 331.5 CURVE SMOOTH",
"140.5 331.5 OFFCURVE",
"148 330 OFFCURVE",
"151.5 330 CURVE SMOOTH",
"162 330 OFFCURVE",
"167.5 362.5 OFFCURVE",
"167.5 367 CURVE SMOOTH",
"167.5 391 OFFCURVE",
"133 392 OFFCURVE",
"116 392 CURVE SMOOTH",
"67.5 392 OFFCURVE",
"41 366 OFFCURVE",
"41 308.5 CURVE SMOOTH",
"41 269.5 LINE",
"31.5 269.5 LINE SMOOTH",
"20.5 269.5 OFFCURVE",
"16 262 OFFCURVE",
"16 244 CURVE SMOOTH",
"16 235 LINE SMOOTH",
"16 217 OFFCURVE",
"20.5 209 OFFCURVE",
"31.5 209 CURVE SMOOTH",
"41 209 LINE",
"41 15.5 LINE SMOOTH",
"41 4.5 OFFCURVE",
"50 -1 OFFCURVE",
"72 -1 CURVE SMOOTH"
);
}
);
width = 167.5;
}
);
unicode = 0066;
},
{
glyphname = g;
lastChange = "2015-01-29 02:55:36 +0000";
layers = (
{
anchors = (
{
name = top;
position = "{140.5, 269.5}";
}
);
layerId = "30990018-E5AF-4C66-A976-C36FA03CF41D";
name = Regular;
paths = (
{
closed = 1;
nodes = (
"208 -109.5 OFFCURVE",
"248 -81 OFFCURVE",
"248 -31.5 CURVE SMOOTH",
"248 16 OFFCURVE",
"209 25.5 OFFCURVE",
"170.5 30.5 CURVE SMOOTH",
"129 35.5 OFFCURVE",
"87.5 35.5 OFFCURVE",
"87.5 68.5 CURVE SMOOTH",
"87.5 94.5 OFFCURVE",
"105 103 OFFCURVE",
"136 104 CURVE SMOOTH",
"202.5 104 OFFCURVE",
"238 141 OFFCURVE",
"238 188.5 CURVE SMOOTH",
"238 205 OFFCURVE",
"233 221 OFFCURVE",
"224 233 CURVE",
"224.5 234 LINE",
"234.5 233 OFFCURVE",
"244.5 232.5 OFFCURVE",
"261.5 232.5 CURVE SMOOTH",
"268.5 232.5 OFFCURVE",
"271 237.5 OFFCURVE",
"271 248 CURVE SMOOTH",
"271 254 LINE SMOOTH",
"271 265 OFFCURVE",
"268.5 269.5 OFFCURVE",
"261.5 269.5 CURVE SMOOTH",
"167 269.5 LINE",
"157.5 272 OFFCURVE",
"148 273 OFFCURVE",
"136.5 273 CURVE SMOOTH",
"70.5 273 OFFCURVE",
"35 236 OFFCURVE",
"35 188.5 CURVE SMOOTH",
"35 157.5 OFFCURVE",
"50 130.5 OFFCURVE",
"79.5 116 CURVE",
"61 103 OFFCURVE",
"50.5 86 OFFCURVE",
"50.5 62.5 CURVE SMOOTH",
"50.5 42.5 OFFCURVE",
"58.5 30 OFFCURVE",
"71.5 20 CURVE",
"71 19 LINE",
"44.5 8.5 OFFCURVE",
"24 -14 OFFCURVE",
"24 -45.5 CURVE SMOOTH",
"24 -92 OFFCURVE",
"68.5 -109.5 OFFCURVE",
"130.5 -109.5 CURVE SMOOTH"
);
},
{
closed = 1;
nodes = (
"103 -74 OFFCURVE",
"62.5 -68.5 OFFCURVE",
"62.5 -37 CURVE SMOOTH",
"62.5 -15.5 OFFCURVE",
"78 -3.5 OFFCURVE",
"96.5 4.5 CURVE",
"135 -7 OFFCURVE",
"207 3 OFFCURVE",
"207 -36 CURVE SMOOTH",
"207 -62 OFFCURVE",
"184.5 -74 OFFCURVE",
"136 -74 CURVE SMOOTH"
);
},
{
closed = 1;
nodes = (
"102.5 139 OFFCURVE",
"74.5 150.5 OFFCURVE",
"74.5 188 CURVE SMOOTH",
"74.5 226.5 OFFCURVE",
"102.5 238.5 OFFCURVE",
"136 238.5 CURVE SMOOTH",
"170.5 238.5 OFFCURVE",
"198 226.5 OFFCURVE",
"198 188 CURVE SMOOTH",
"198 150.5 OFFCURVE",
"170.5 139 OFFCURVE",
"136 139 CURVE SMOOTH"
);
}
);
width = 281.5;
},
{
anchors = (
{
name = top;
position = "{140.5, 269.5}";
}
);
layerId = "73D3DE9D-4D16-48FA-A6EF-561C99E37BFC";
name = Bold;
paths = (
{
closed = 1;
nodes = (
"215.5 -109.5 OFFCURVE",
"268.5 -74.5 OFFCURVE",
"268.5 -21.5 CURVE SMOOTH",
"268.5 30 OFFCURVE",
"228 45.5 OFFCURVE",
"188 53 CURVE SMOOTH",
"149.5 60 OFFCURVE",
"112 60 OFFCURVE",
"112 77 CURVE SMOOTH",
"112 86.5 OFFCURVE",
"122.5 91 OFFCURVE",
"143.5 91 CURVE SMOOTH",
"202 91 OFFCURVE",
"248.5 117.5 OFFCURVE",
"248.5 182 CURVE SMOOTH",
"248.5 192 OFFCURVE",
"245 205 OFFCURVE",
"240 211 CURVE",
"241.5 213 LINE",
"246.5 212 OFFCURVE",
"260 211 OFFCURVE",
"263.5 211 CURVE SMOOTH",
"272 211 OFFCURVE",
"276 218 OFFCURVE",
"276 235 CURVE SMOOTH",
"276 244 LINE SMOOTH",
"276 262 OFFCURVE",
"271 269.5 OFFCURVE",
"260.5 269.5 CURVE SMOOTH",
"177.5 269.5 LINE",
"165 272.5 OFFCURVE",
"151.5 274 OFFCURVE",
"138 274 CURVE SMOOTH",
"76.5 274 OFFCURVE",
"26.5 248.5 OFFCURVE",
"26.5 182 CURVE SMOOTH",
"26.5 144 OFFCURVE",
"43 119 OFFCURVE",
"68.5 105 CURVE",
"49.5 94.5 OFFCURVE",
"37.5 79.5 OFFCURVE",
"37.5 62.5 CURVE SMOOTH",
"37.5 45.5 OFFCURVE",
"45.5 31 OFFCURVE",
"60 24 CURVE",
"59 21.5 LINE",
"29 10 OFFCURVE",
"12 -11.5 OFFCURVE",
"12 -38 CURVE SMOOTH",
"12 -85 OFFCURVE",
"52 -109.5 OFFCURVE",
"135 -109.5 CURVE SMOOTH"
);
},
{
closed = 1;
nodes = (
"102.5 -49.5 OFFCURVE",
"87 -40 OFFCURVE",
"87 -26 CURVE SMOOTH",
"87 -15.5 OFFCURVE",
"96.5 -4 OFFCURVE",
"114.5 2 CURVE",
"173 -2 OFFCURVE",
"193.5 -7.5 OFFCURVE",
"193.5 -24 CURVE SMOOTH",
"193.5 -39.5 OFFCURVE",
"176.5 -49.5 OFFCURVE",
"140.5 -49.5 CURVE SMOOTH"
);
},
{
closed = 1;
nodes = (
"117 146 OFFCURVE",
"99 156 OFFCURVE",
"99 182 CURVE SMOOTH",
"99 208 OFFCURVE",
"117 218.5 OFFCURVE",
"138 218.5 CURVE SMOOTH",
"159 218.5 OFFCURVE",
"176.5 208 OFFCURVE",
"176.5 182 CURVE SMOOTH",
"176.5 156 OFFCURVE",
"159 146 OFFCURVE",
"138 146 CURVE SMOOTH"
);
}
);
width = 281.5;
}
);
unicode = 0067;
},
{
glyphname = h;
lastChange = "2015-01-29 02:55:36 +0000";
layers = (
{
anchors = (
{
name = bottom;
position = "{145.5, 0}";
},
{
name = center;
position = "{88.5, 325}";
},
{
name = top;
position = "{69, 376.5}";
}
);
layerId = "30990018-E5AF-4C66-A976-C36FA03CF41D";
name = Regular;
paths = (
{
closed = 1;
nodes = (
"70.5 -1 LINE SMOOTH",
"84.5 -1 OFFCURVE",
"91 3.5 OFFCURVE",
"91 10.5 CURVE SMOOTH",
"91 199.5 LINE",
"91 199.5 OFFCURVE",
"117.5 235 OFFCURVE",
"155.5 235 CURVE SMOOTH",
"191 235 OFFCURVE",
"208.5 216 OFFCURVE",
"208.5 185.5 CURVE SMOOTH",
"208.5 10.5 LINE SMOOTH",
"208.5 3.5 OFFCURVE",
"215 -1 OFFCURVE",
"229 -1 CURVE SMOOTH",
"231.5 -1 LINE SMOOTH",
"246 -1 OFFCURVE",
"252 3.5 OFFCURVE",
"252 10.5 CURVE SMOOTH",
"252 189.5 LINE SMOOTH",
"252 259.5 OFFCURVE",
"202.5 273 OFFCURVE",
"170 273 CURVE SMOOTH",
"136.5 273 OFFCURVE",
"109 255 OFFCURVE",
"91 237.5 CURVE",
"91 376.5 LINE SMOOTH",
"91 383.5 OFFCURVE",
"84.5 388 OFFCURVE",
"70.5 388 CURVE SMOOTH",
"68 388 LINE SMOOTH",
"53.5 388 OFFCURVE",
"47.5 383.5 OFFCURVE",
"47.5 376.5 CURVE SMOOTH",
"47.5 10.5 LINE SMOOTH",
"47.5 3.5 OFFCURVE",
"53.5 -1 OFFCURVE",
"68 -1 CURVE SMOOTH"
);
}
);
width = 291.5;
},
{
anchors = (
{
name = bottom;
position = "{145, 0}";
},
{
name = center;
position = "{86.5, 325}";
},
{
name = top;
position = "{72.5, 377.5}";
}
);
layerId = "73D3DE9D-4D16-48FA-A6EF-561C99E37BFC";
name = Bold;
paths = (
{
closed = 1;
nodes = (
"79.5 -1 LINE SMOOTH",
"101.5 -1 OFFCURVE",
"110 4.5 OFFCURVE",
"110 15.5 CURVE SMOOTH",
"110 181 LINE",
"117 193 OFFCURVE",
"130.5 211 OFFCURVE",
"151.5 211 CURVE SMOOTH",
"174.5 211 OFFCURVE",
"185 199.5 OFFCURVE",
"185 179 CURVE SMOOTH",
"185 15.5 LINE SMOOTH",
"185 4.5 OFFCURVE",
"193.5 -1 OFFCURVE",
"216 -1 CURVE SMOOTH",
"230.5 -1 LINE SMOOTH",
"252 -1 OFFCURVE",
"261.5 4.5 OFFCURVE",
"261.5 15.5 CURVE SMOOTH",
"261.5 190.5 LINE SMOOTH",
"261.5 247.5 OFFCURVE",
"234.5 274 OFFCURVE",
"183 274 CURVE SMOOTH",
"152 274 OFFCURVE",
"126 258 OFFCURVE",
"110 239 CURVE",
"110 372.5 LINE SMOOTH",
"110 383 OFFCURVE",
"101.5 389 OFFCURVE",
"79.5 389 CURVE SMOOTH",
"65 389 LINE SMOOTH",
"43 389 OFFCURVE",
"34.5 383 OFFCURVE",
"34.5 372.5 CURVE SMOOTH",
"34.5 15.5 LINE SMOOTH",
"34.5 4.5 OFFCURVE",
"43 -1 OFFCURVE",
"65 -1 CURVE SMOOTH"
);
}
);
width = 291.5;
}
);
unicode = 0068;
},
{
glyphname = i;
lastChange = "2015-01-29 02:55:36 +0000";
layers = (
{
anchors = (
{
name = bottom;
position = "{67.5, 0}";
}
);
layerId = "30990018-E5AF-4C66-A976-C36FA03CF41D";
name = Regular;
paths = (
{
closed = 1;
nodes = (
"69.5 -1 LINE SMOOTH",
"84 -1 OFFCURVE",
"90 3.5 OFFCURVE",
"90 10.5 CURVE SMOOTH",
"90 259.5 LINE SMOOTH",
"90 267 OFFCURVE",
"84 270.5 OFFCURVE",
"69.5 270.5 CURVE SMOOTH",
"67.5 270.5 LINE SMOOTH",
"53 270.5 OFFCURVE",
"47 267 OFFCURVE",
"47 259.5 CURVE SMOOTH",
"47 10.5 LINE SMOOTH",
"47 3.5 OFFCURVE",
"53 -1 OFFCURVE",
"67.5 -1 CURVE SMOOTH"
);
},
{
closed = 1;
nodes = (
"72 335 LINE SMOOTH",
"86.5 335 OFFCURVE",
"92.5 338.5 OFFCURVE",
"92.5 346 CURVE SMOOTH",
"92.5 376.5 LINE SMOOTH",
"92.5 383.5 OFFCURVE",
"86.5 388 OFFCURVE",
"72 388 CURVE SMOOTH",
"65.5 388 LINE SMOOTH",
"51 388 OFFCURVE",
"45 383.5 OFFCURVE",
"45 376.5 CURVE SMOOTH",
"45 346 LINE SMOOTH",
"45 338.5 OFFCURVE",
"51 335 OFFCURVE",
"65.5 335 CURVE"
);
}
);
width = 136.5;
},
{
anchors = (
{
name = bottom;
position = "{67.5, 0}";
}
);
layerId = "73D3DE9D-4D16-48FA-A6EF-561C99E37BFC";
name = Bold;
paths = (
{
closed = 1;
nodes = (
"76 -1 LINE SMOOTH",
"97.5 -1 OFFCURVE",
"107 4.5 OFFCURVE",
"107 15.5 CURVE SMOOTH",
"107 254 LINE SMOOTH",
"107 265 OFFCURVE",
"97.5 270.5 OFFCURVE",
"76 270.5 CURVE SMOOTH",
"61.5 270.5 LINE SMOOTH",
"40 270.5 OFFCURVE",
"30.5 265 OFFCURVE",
"30.5 254 CURVE SMOOTH",
"30.5 15.5 LINE SMOOTH",
"30.5 4.5 OFFCURVE",
"40 -1 OFFCURVE",
"61.5 -1 CURVE SMOOTH"
);
},
{
closed = 1;
nodes = (
"76 314.5 LINE SMOOTH",
"97.5 314.5 OFFCURVE",
"107 320 OFFCURVE",
"107 330.5 CURVE SMOOTH",
"107 372.5 LINE SMOOTH",
"107 383 OFFCURVE",
"97.5 389 OFFCURVE",
"76 389 CURVE SMOOTH",
"61.5 389 LINE SMOOTH",
"40 389 OFFCURVE",
"30.5 383 OFFCURVE",
"30.5 372.5 CURVE SMOOTH",
"30.5 330.5 LINE SMOOTH",
"30.5 320 OFFCURVE",
"40 314.5 OFFCURVE",
"61.5 314.5 CURVE"
);
}
);
width = 136.5;
}
);
unicode = 0069;
},
{
glyphname = dotlessi;
lastChange = "2015-01-29 02:55:36 +0000";
layers = (
{
anchors = (
{
name = bottom;
position = "{67.5, 0}";
},
{
name = ogonek;
position = "{81.5, 0}";
},
{
name = top;
position = "{68.5, 269.5}";
}
);
layerId = "30990018-E5AF-4C66-A976-C36FA03CF41D";
name = Regular;
paths = (
{
closed = 1;
nodes = (
"69.5 -1 LINE SMOOTH",
"84 -1 OFFCURVE",
"90 3.5 OFFCURVE",
"90 10.5 CURVE SMOOTH",
"90 259.5 LINE SMOOTH",
"90 267 OFFCURVE",
"84 270.5 OFFCURVE",
"69.5 270.5 CURVE SMOOTH",
"67.5 270.5 LINE SMOOTH",
"53 270.5 OFFCURVE",
"47 267 OFFCURVE",
"47 259.5 CURVE SMOOTH",
"47 10.5 LINE SMOOTH",
"47 3.5 OFFCURVE",
"53 -1 OFFCURVE",
"67.5 -1 CURVE SMOOTH"
);
}
);
width = 136.5;
},
{
anchors = (
{
name = bottom;
position = "{67.5, 0}";
},
{
name = ogonek;
position = "{87.5, 0}";
},
{
name = top;
position = "{68.5, 269.5}";
}
);
layerId = "73D3DE9D-4D16-48FA-A6EF-561C99E37BFC";
name = Bold;
paths = (
{
closed = 1;
nodes = (
"76 -1 LINE SMOOTH",
"97.5 -1 OFFCURVE",
"107 4.5 OFFCURVE",
"107 15.5 CURVE SMOOTH",
"107 254 LINE SMOOTH",
"107 265 OFFCURVE",
"97.5 270.5 OFFCURVE",
"76 270.5 CURVE SMOOTH",
"61.5 270.5 LINE SMOOTH",
"40 270.5 OFFCURVE",
"30.5 265 OFFCURVE",
"30.5 254 CURVE SMOOTH",
"30.5 15.5 LINE SMOOTH",
"30.5 4.5 OFFCURVE",
"40 -1 OFFCURVE",
"61.5 -1 CURVE SMOOTH"
);
}
);
width = 136.5;
}
);
unicode = 0131;
},
{
glyphname = j;
lastChange = "2015-01-29 02:55:36 +0000";
layers = (
{
layerId = "30990018-E5AF-4C66-A976-C36FA03CF41D";
name = Regular;
paths = (
{
closed = 1;
nodes = (
"55 -109.5 OFFCURVE",
"95 -98 OFFCURVE",
"95 -38 CURVE SMOOTH",
"95 259.5 LINE SMOOTH",
"95 267 OFFCURVE",
"89 270.5 OFFCURVE",
"74.5 270.5 CURVE SMOOTH",
"72.5 270.5 LINE SMOOTH",
"58 270.5 OFFCURVE",
"52 267 OFFCURVE",
"52 259.5 CURVE SMOOTH",
"52 -34.5 LINE SMOOTH",
"52 -65 OFFCURVE",
"39.5 -72 OFFCURVE",
"24.5 -72 CURVE SMOOTH",
"9.5 -72 OFFCURVE",
"6.5 -69.5 OFFCURVE",
"2 -69.5 CURVE SMOOTH",
"-5 -69.5 OFFCURVE",
"-9 -89.5 OFFCURVE",
"-9 -94 CURVE SMOOTH",
"-9 -108 OFFCURVE",
"15 -109.5 OFFCURVE",
"29 -109.5 CURVE SMOOTH"
);
},
{
closed = 1;
nodes = (
"77 335 LINE SMOOTH",
"91.5 335 OFFCURVE",
"97.5 338.5 OFFCURVE",
"97.5 346 CURVE SMOOTH",
"97.5 376.5 LINE SMOOTH",
"97.5 383.5 OFFCURVE",
"91.5 388 OFFCURVE",
"77 388 CURVE SMOOTH",
"71 388 LINE SMOOTH",
"56.5 388 OFFCURVE",
"50 383.5 OFFCURVE",
"50 376.5 CURVE SMOOTH",
"50 346 LINE SMOOTH",
"50 338.5 OFFCURVE",
"56.5 335 OFFCURVE",
"71 335 CURVE"
);
}
);
width = 142;
},
{
layerId = "73D3DE9D-4D16-48FA-A6EF-561C99E37BFC";
name = Bold;
paths = (
{
closed = 1;
nodes = (
"79.5 -109.5 OFFCURVE",
"112.5 -82 OFFCURVE",
"112.5 -26 CURVE SMOOTH",
"112.5 254 LINE SMOOTH",
"112.5 265 OFFCURVE",
"103 270.5 OFFCURVE",
"81.5 270.5 CURVE SMOOTH",
"67 270.5 LINE SMOOTH",
"45.5 270.5 OFFCURVE",
"36 265 OFFCURVE",
"36 254 CURVE SMOOTH",
"36 -26.5 LINE SMOOTH",
"36 -42 OFFCURVE",
"31 -49.5 OFFCURVE",
"17.5 -49.5 CURVE SMOOTH",
"11.5 -49.5 OFFCURVE",
"5 -47 OFFCURVE",
"2 -47 CURVE SMOOTH",
"-9 -47 OFFCURVE",
"-16.5 -71 OFFCURVE",
"-16.5 -82.5 CURVE SMOOTH",
"-16.5 -102.5 OFFCURVE",
"-4 -109.5 OFFCURVE",
"37 -109.5 CURVE SMOOTH"
);
},
{
closed = 1;
nodes = (
"81.5 314.5 LINE SMOOTH",
"103 314.5 OFFCURVE",
"112.5 320 OFFCURVE",
"112.5 330.5 CURVE SMOOTH",
"112.5 372.5 LINE SMOOTH",
"112.5 383 OFFCURVE",
"103 389 OFFCURVE",
"81.5 389 CURVE SMOOTH",
"67 389 LINE SMOOTH",
"45.5 389 OFFCURVE",
"36 383 OFFCURVE",
"36 372.5 CURVE SMOOTH",
"36 330.5 LINE SMOOTH",
"36 320 OFFCURVE",
"45.5 314.5 OFFCURVE",
"67 314.5 CURVE"
);
}
);
width = 142;
}
);
unicode = 006A;
},
{
glyphname = dotlessj;
lastChange = "2015-01-29 02:55:36 +0000";
layers = (
{
anchors = (
{
name = top;
position = "{73.5, 269.5}";
}
);
layerId = "30990018-E5AF-4C66-A976-C36FA03CF41D";
name = Regular;
paths = (
{
closed = 1;
nodes = (
"55 -109.5 OFFCURVE",
"95 -98 OFFCURVE",
"95 -38 CURVE SMOOTH",
"95 259.5 LINE SMOOTH",
"95 267 OFFCURVE",
"89 270.5 OFFCURVE",
"74.5 270.5 CURVE SMOOTH",
"72.5 270.5 LINE SMOOTH",
"58 270.5 OFFCURVE",
"52 267 OFFCURVE",
"52 259.5 CURVE SMOOTH",
"52 -34.5 LINE SMOOTH",
"52 -65 OFFCURVE",
"39.5 -72 OFFCURVE",
"24.5 -72 CURVE SMOOTH",
"9.5 -72 OFFCURVE",
"6.5 -69.5 OFFCURVE",
"2 -69.5 CURVE SMOOTH",
"-5 -69.5 OFFCURVE",
"-9 -89.5 OFFCURVE",
"-9 -94 CURVE SMOOTH",
"-9 -108 OFFCURVE",
"15 -109.5 OFFCURVE",
"29 -109.5 CURVE SMOOTH"
);
}
);
width = 142;
},
{
anchors = (
{
name = top;
position = "{74, 269.5}";
}
);
layerId = "73D3DE9D-4D16-48FA-A6EF-561C99E37BFC";
name = Bold;
paths = (
{
closed = 1;
nodes = (
"79.5 -109.5 OFFCURVE",
"112.5 -82 OFFCURVE",
"112.5 -26 CURVE SMOOTH",
"112.5 254 LINE SMOOTH",
"112.5 265 OFFCURVE",
"103 270.5 OFFCURVE",
"81.5 270.5 CURVE SMOOTH",
"67 270.5 LINE SMOOTH",
"45.5 270.5 OFFCURVE",
"36 265 OFFCURVE",
"36 254 CURVE SMOOTH",
"36 -26.5 LINE SMOOTH",
"36 -42 OFFCURVE",
"31 -49.5 OFFCURVE",
"17.5 -49.5 CURVE SMOOTH",
"11.5 -49.5 OFFCURVE",
"5 -47 OFFCURVE",
"2 -47 CURVE SMOOTH",
"-9 -47 OFFCURVE",
"-16.5 -71 OFFCURVE",
"-16.5 -82.5 CURVE SMOOTH",
"-16.5 -102.5 OFFCURVE",
"-4 -109.5 OFFCURVE",
"37 -109.5 CURVE SMOOTH"
);
}
);
width = 142;
}
);
unicode = 0237;
},
{
glyphname = k;
lastChange = "2015-01-29 02:55:36 +0000";
layers = (
{
anchors = (
{
name = bottom;
position = "{134.5, 0}";
}
);
layerId = "30990018-E5AF-4C66-A976-C36FA03CF41D";
name = Regular;
paths = (
{
closed = 1;
nodes = (
"71.5 -1 LINE SMOOTH",
"86 -1 OFFCURVE",
"92 3.5 OFFCURVE",
"92 10.5 CURVE SMOOTH",
"92 128 LINE",
"94 128 LINE",
"197 5.5 LINE SMOOTH",
"202 -0.5 OFFCURVE",
"213.5 -1 OFFCURVE",
"224.5 -1 CURVE SMOOTH",
"227 -1 LINE SMOOTH",
"243 -1 OFFCURVE",
"249.5 0.5 OFFCURVE",
"249.5 6 CURVE SMOOTH",
"249.5 8.5 OFFCURVE",
"248.5 10.5 OFFCURVE",
"245 14.5 CURVE SMOOTH",
"139 140.5 LINE",
"234.5 254 LINE SMOOTH",
"238.5 258 OFFCURVE",
"239.5 262 OFFCURVE",
"239.5 264 CURVE SMOOTH",
"239.5 268 OFFCURVE",
"234 270.5 OFFCURVE",
"222 270.5 CURVE SMOOTH",
"219.5 270.5 LINE SMOOTH",
"208.5 270.5 OFFCURVE",
"197 269.5 OFFCURVE",
"192.5 263.5 CURVE SMOOTH",
"94 146 LINE",
"92 146 LINE",
"92 376.5 LINE SMOOTH",
"92 383.5 OFFCURVE",
"86 388 OFFCURVE",
"71.5 388 CURVE SMOOTH",
"69 388 LINE SMOOTH",
"55 388 OFFCURVE",
"48.5 383.5 OFFCURVE",
"48.5 376.5 CURVE SMOOTH",
"48.5 10.5 LINE SMOOTH",
"48.5 3.5 OFFCURVE",
"55 -1 OFFCURVE",
"69 -1 CURVE SMOOTH"
);
}
);
width = 269;
},
{
anchors = (
{
name = bottom;
position = "{134.5, 0}";
}
);
layerId = "73D3DE9D-4D16-48FA-A6EF-561C99E37BFC";
name = Bold;
paths = (
{
closed = 1;
nodes = (
"79.5 -1 LINE SMOOTH",
"101.5 -1 OFFCURVE",
"110 4.5 OFFCURVE",
"110 15.5 CURVE SMOOTH",
"110 127 LINE",
"112.5 127.5 LINE",
"184.5 9 LINE SMOOTH",
"188.5 1 OFFCURVE",
"200.5 -1 OFFCURVE",
"215.5 -1 CURVE SMOOTH",
"237 -1 LINE SMOOTH",
"257 -1 OFFCURVE",
"266 2 OFFCURVE",
"266 6.5 CURVE SMOOTH",
"266 10 OFFCURVE",
"264.5 12.5 OFFCURVE",
"262 17.5 CURVE SMOOTH",
"178 150.5 LINE",
"249.5 253 LINE SMOOTH",
"253 257 OFFCURVE",
"254 260.5 OFFCURVE",
"254 263 CURVE SMOOTH",
"254 268 OFFCURVE",
"245 270.5 OFFCURVE",
"225.5 270.5 CURVE SMOOTH",
"206.5 270.5 LINE SMOOTH",
"191.5 270.5 OFFCURVE",
"181 269.5 OFFCURVE",
"175 261.5 CURVE SMOOTH",
"112.5 167.5 LINE",
"110 168.5 LINE",
"110 372.5 LINE SMOOTH",
"110 383 OFFCURVE",
"101.5 389 OFFCURVE",
"79.5 389 CURVE SMOOTH",
"65 389 LINE SMOOTH",
"43 389 OFFCURVE",
"34.5 383 OFFCURVE",
"34.5 372.5 CURVE SMOOTH",
"34.5 15.5 LINE SMOOTH",
"34.5 4.5 OFFCURVE",
"43 -1 OFFCURVE",
"65 -1 CURVE SMOOTH"
);
}
);
width = 269;
}
);
unicode = 006B;
},
{
glyphname = kgreenlandic;
lastChange = "2015-01-29 02:55:36 +0000";
layers = (
{
layerId = "30990018-E5AF-4C66-A976-C36FA03CF41D";
name = Regular;
paths = (
{
closed = 1;
nodes = (
"71.5 -1 LINE SMOOTH",
"86 -1 OFFCURVE",
"92 3.5 OFFCURVE",
"92 10.5 CURVE SMOOTH",
"92 128 LINE",
"94 128 LINE",
"197 5.5 LINE SMOOTH",
"202 -0.5 OFFCURVE",
"213.5 -1 OFFCURVE",
"224.5 -1 CURVE SMOOTH",
"227 -1 LINE SMOOTH",
"243 -1 OFFCURVE",
"249.5 0.5 OFFCURVE",
"249.5 6 CURVE SMOOTH",
"249.5 8.5 OFFCURVE",
"248.5 10.5 OFFCURVE",
"245 14.5 CURVE SMOOTH",
"139 140.5 LINE",
"234.5 254 LINE SMOOTH",
"238.5 258 OFFCURVE",
"239.5 262 OFFCURVE",
"239.5 264 CURVE SMOOTH",
"239.5 268 OFFCURVE",
"234 270.5 OFFCURVE",
"222 270.5 CURVE SMOOTH",
"219.5 270.5 LINE SMOOTH",
"208.5 270.5 OFFCURVE",
"197 269.5 OFFCURVE",
"192.5 263.5 CURVE SMOOTH",
"94 146 LINE",
"92 146 LINE",
"92 260 LINE SMOOTH",
"92 267.5 OFFCURVE",
"86 271 OFFCURVE",
"71.5 271 CURVE SMOOTH",
"69 271 LINE SMOOTH",
"55 271 OFFCURVE",
"48.5 267.5 OFFCURVE",
"48.5 260 CURVE SMOOTH",
"48.5 10.5 LINE SMOOTH",
"48.5 3.5 OFFCURVE",
"55 -1 OFFCURVE",
"69 -1 CURVE SMOOTH"
);
}
);
width = 269;
},
{
layerId = "73D3DE9D-4D16-48FA-A6EF-561C99E37BFC";
name = Bold;
paths = (
{
closed = 1;
nodes = (
"79.5 -1 LINE SMOOTH",
"101.5 -1 OFFCURVE",
"110 4.5 OFFCURVE",
"110 15.5 CURVE SMOOTH",
"110 127 LINE",
"112.5 127.5 LINE",
"184.5 9 LINE SMOOTH",
"188.5 1 OFFCURVE",
"200.5 -1 OFFCURVE",
"215.5 -1 CURVE SMOOTH",
"237 -1 LINE SMOOTH",
"257 -1 OFFCURVE",
"266 2 OFFCURVE",
"266 6.5 CURVE SMOOTH",
"266 10 OFFCURVE",
"264.5 12.5 OFFCURVE",
"262 17.5 CURVE SMOOTH",
"178 150.5 LINE",
"249.5 253 LINE SMOOTH",
"253 257 OFFCURVE",
"254 260.5 OFFCURVE",
"254 263 CURVE SMOOTH",
"254 268 OFFCURVE",
"245 270.5 OFFCURVE",
"225.5 270.5 CURVE SMOOTH",
"206.5 270.5 LINE SMOOTH",
"191.5 270.5 OFFCURVE",
"181 269.5 OFFCURVE",
"175 261.5 CURVE SMOOTH",
"112.5 167.5 LINE",
"110 168.5 LINE",
"110 254 LINE SMOOTH",
"110 265 OFFCURVE",
"101.5 270.5 OFFCURVE",
"79.5 270.5 CURVE SMOOTH",
"65 270.5 LINE SMOOTH",
"43 270.5 OFFCURVE",
"34.5 265 OFFCURVE",
"34.5 254 CURVE SMOOTH",
"34.5 15.5 LINE SMOOTH",
"34.5 4.5 OFFCURVE",
"43 -1 OFFCURVE",
"65 -1 CURVE SMOOTH"
);
}
);
width = 269;
}
);
unicode = 0138;
},
{
glyphname = l;
lastChange = "2015-01-29 02:55:36 +0000";
layers = (
{
anchors = (
{
name = bottom;
position = "{92.5, 0}";
},
{
name = caron;
position = "{86, 362}";
},
{
name = center;
position = "{144, 172.5}";
},
{
name = top;
position = "{64, 371.5}";
}
);
layerId = "30990018-E5AF-4C66-A976-C36FA03CF41D";
name = Regular;
paths = (
{
closed = 1;
nodes = (
"123 -3.5 OFFCURVE",
"146.5 -1.5 OFFCURVE",
"146.5 12 CURVE SMOOTH",
"146.5 16.5 OFFCURVE",
"143 36.5 OFFCURVE",
"135.5 36.5 CURVE SMOOTH",
"131 36.5 OFFCURVE",
"128.5 34.5 OFFCURVE",
"113.5 34.5 CURVE SMOOTH",
"98.5 34.5 OFFCURVE",
"86 41.5 OFFCURVE",
"86 72 CURVE SMOOTH",
"86 376.5 LINE SMOOTH",
"86 383.5 OFFCURVE",
"79.5 388 OFFCURVE",
"65 388 CURVE SMOOTH",
"63 388 LINE SMOOTH",
"48.5 388 OFFCURVE",
"42 383.5 OFFCURVE",
"42 376.5 CURVE SMOOTH",
"42 68 LINE SMOOTH",
"42 8.5 OFFCURVE",
"83 -3.5 OFFCURVE",
"109 -3.5 CURVE SMOOTH"
);
}
);
width = 153.5;
},
{
anchors = (
{
name = bottom;
position = "{94.5, 0}";
},
{
name = caron;
position = "{99.5, 388}";
},
{
name = center;
position = "{157, 172.5}";
},
{
name = top;
position = "{70.5, 371.5}";
}
);
layerId = "73D3DE9D-4D16-48FA-A6EF-561C99E37BFC";
name = Bold;
paths = (
{
closed = 1;
nodes = (
"124 -4 OFFCURVE",
"157 -3 OFFCURVE",
"157 21 CURVE SMOOTH",
"157 25.5 OFFCURVE",
"151.5 58 OFFCURVE",
"141 58 CURVE SMOOTH",
"138.5 58 OFFCURVE",
"132.5 56.5 OFFCURVE",
"127.5 56.5 CURVE SMOOTH",
"114 56.5 OFFCURVE",
"109 63 OFFCURVE",
"109 78.5 CURVE SMOOTH",
"109 372.5 LINE SMOOTH",
"109 383 OFFCURVE",
"99.5 389 OFFCURVE",
"78 389 CURVE SMOOTH",
"63.5 389 LINE SMOOTH",
"41.5 389 OFFCURVE",
"32.5 383 OFFCURVE",
"32.5 372.5 CURVE SMOOTH",
"32.5 79.5 LINE SMOOTH",
"32.5 22 OFFCURVE",
"59 -4 OFFCURVE",
"108 -4 CURVE SMOOTH"
);
}
);
width = 153.5;
}
);
unicode = 006C;
},
{
glyphname = lslash;
lastChange = "2015-01-29 02:55:36 +0000";
layers = (
{
layerId = "30990018-E5AF-4C66-A976-C36FA03CF41D";
name = Regular;
paths = (
{
closed = 1;
nodes = (
"122 -3.5 OFFCURVE",
"145.5 -1.5 OFFCURVE",
"145.5 12 CURVE SMOOTH",
"145.5 16.5 OFFCURVE",
"141.5 36.5 OFFCURVE",
"134.5 36.5 CURVE SMOOTH",
"130 36.5 OFFCURVE",
"127.5 34.5 OFFCURVE",
"112.5 34.5 CURVE SMOOTH",
"97.5 34.5 OFFCURVE",
"84.5 41.5 OFFCURVE",
"84.5 72 CURVE SMOOTH",
"84.5 207.5 LINE",
"106.5 220.5 LINE SMOOTH",
"112.5 223.5 OFFCURVE",
"116 228.5 OFFCURVE",
"116 236 CURVE SMOOTH",
"116 239 LINE SMOOTH",
"116 243.5 OFFCURVE",
"114 246.5 OFFCURVE",
"111.5 246.5 CURVE SMOOTH",
"110 246.5 OFFCURVE",
"108.5 245 OFFCURVE",
"106.5 244 CURVE SMOOTH",
"84.5 231.5 LINE",
"84.5 376.5 LINE SMOOTH",
"84.5 383.5 OFFCURVE",
"78.5 388 OFFCURVE",
"64 388 CURVE SMOOTH",
"62 388 LINE SMOOTH",
"47.5 388 OFFCURVE",
"41.5 383.5 OFFCURVE",
"41.5 376.5 CURVE SMOOTH",
"41.5 205.5 LINE",
"19.5 193 LINE SMOOTH",
"13.5 189.5 OFFCURVE",
"10 185 OFFCURVE",
"10 177.5 CURVE SMOOTH",
"10 174.5 LINE SMOOTH",
"10 170 OFFCURVE",
"11.5 167 OFFCURVE",
"14.5 167 CURVE SMOOTH",
"15.5 167 OFFCURVE",
"17.5 167.5 OFFCURVE",
"19.5 169.5 CURVE SMOOTH",
"41.5 182 LINE",
"41.5 68 LINE SMOOTH",
"41.5 8.5 OFFCURVE",
"82 -3.5 OFFCURVE",
"108 -3.5 CURVE SMOOTH"
);
}
);
width = 151;
},
{
layerId = "73D3DE9D-4D16-48FA-A6EF-561C99E37BFC";
name = Bold;
paths = (
{
closed = 1;
nodes = (
"122 -4 OFFCURVE",
"155.5 -3 OFFCURVE",
"155.5 21 CURVE SMOOTH",
"155.5 25.5 OFFCURVE",
"149.5 58 OFFCURVE",
"139.5 58 CURVE SMOOTH",
"136 58 OFFCURVE",
"130 56.5 OFFCURVE",
"125 56.5 CURVE SMOOTH",
"112 56.5 OFFCURVE",
"107 63 OFFCURVE",
"107 78.5 CURVE SMOOTH",
"107 212.5 LINE",
"119 220.5 LINE SMOOTH",
"128.5 226 OFFCURVE",
"133 232 OFFCURVE",
"133 243.5 CURVE SMOOTH",
"133 254 LINE SMOOTH",
"133 261.5 OFFCURVE",
"130.5 264 OFFCURVE",
"127 264 CURVE SMOOTH",
"125 264 OFFCURVE",
"122.5 263 OFFCURVE",
"119 262 CURVE SMOOTH",
"107 254 LINE",
"107 372.5 LINE SMOOTH",
"107 383 OFFCURVE",
"97.5 389 OFFCURVE",
"76 389 CURVE SMOOTH",
"61.5 389 LINE SMOOTH",
"40 389 OFFCURVE",
"30.5 383 OFFCURVE",
"30.5 372.5 CURVE SMOOTH",
"30.5 208 LINE",
"19 201 LINE SMOOTH",
"10 195.5 OFFCURVE",
"5.5 188 OFFCURVE",
"5.5 177.5 CURVE SMOOTH",
"5.5 167 LINE SMOOTH",
"5.5 160 OFFCURVE",
"7 156.5 OFFCURVE",
"11 156.5 CURVE SMOOTH",
"12.5 156.5 OFFCURVE",
"15.5 157.5 OFFCURVE",
"19 160 CURVE SMOOTH",
"30.5 166.5 LINE",
"30.5 79.5 LINE SMOOTH",
"30.5 22 OFFCURVE",
"57 -4 OFFCURVE",
"105.5 -4 CURVE SMOOTH"
);
}
);
width = 151;
}
);
unicode = 0142;
},
{
glyphname = m;
lastChange = "2015-01-29 02:55:36 +0000";
layers = (
{
layerId = "30990018-E5AF-4C66-A976-C36FA03CF41D";
name = Regular;
paths = (
{
closed = 1;
nodes = (
"66.5 -1 LINE SMOOTH",
"81 -1 OFFCURVE",
"87.5 3.5 OFFCURVE",
"87.5 10.5 CURVE SMOOTH",
"87.5 200 LINE",
"87.5 200 OFFCURVE",
"112.5 235 OFFCURVE",
"150 235 CURVE SMOOTH",
"183 235 OFFCURVE",
"200 216 OFFCURVE",
"200 185.5 CURVE SMOOTH",
"200 10.5 LINE SMOOTH",
"200 3.5 OFFCURVE",
"206 -1 OFFCURVE",
"220.5 -1 CURVE SMOOTH",
"222.5 -1 LINE SMOOTH",
"237 -1 OFFCURVE",
"243 3.5 OFFCURVE",
"243 10.5 CURVE SMOOTH",
"243 188.5 LINE SMOOTH",
"243 196.5 OFFCURVE",
"242.5 205.5 OFFCURVE",
"239 213 CURVE",
"239.5 195.5 LINE",
"242 198 OFFCURVE",
"269 235 OFFCURVE",
"306 235 CURVE SMOOTH",
"338.5 235 OFFCURVE",
"355.5 216 OFFCURVE",
"355.5 185.5 CURVE SMOOTH",
"355.5 10.5 LINE SMOOTH",
"355.5 3.5 OFFCURVE",
"361.5 -1 OFFCURVE",
"376 -1 CURVE SMOOTH",
"378 -1 LINE SMOOTH",
"392.5 -1 OFFCURVE",
"398.5 3.5 OFFCURVE",
"398.5 10.5 CURVE SMOOTH",
"398.5 189.5 LINE SMOOTH",
"398.5 259.5 OFFCURVE",
"351 273 OFFCURVE",
"317.5 273 CURVE SMOOTH",
"285 273 OFFCURVE",
"255 253.5 OFFCURVE",
"236 230.5 CURVE",
"221.5 265 OFFCURVE",
"187 273 OFFCURVE",
"162 273 CURVE SMOOTH",
"129 273 OFFCURVE",
"100.5 254 OFFCURVE",
"83.5 234 CURVE",
"80.5 247.5 OFFCURVE",
"78 268.5 OFFCURVE",
"65.5 268.5 CURVE SMOOTH",
"58.5 268.5 OFFCURVE",
"37.5 266 OFFCURVE",
"37.5 256.5 CURVE SMOOTH",
"37.5 254 OFFCURVE",
"43.5 233.5 OFFCURVE",
"43.5 191.5 CURVE SMOOTH",
"43.5 10.5 LINE SMOOTH",
"43.5 3.5 OFFCURVE",
"50 -1 OFFCURVE",
"64 -1 CURVE SMOOTH"
);
}
);
width = 437.5;
},
{
layerId = "73D3DE9D-4D16-48FA-A6EF-561C99E37BFC";
name = Bold;
paths = (
{
closed = 1;
nodes = (
"77.5 -1 LINE SMOOTH",
"99 -1 OFFCURVE",
"108.5 4.5 OFFCURVE",
"108.5 15.5 CURVE SMOOTH",
"108.5 181 LINE",
"114.5 193 OFFCURVE",
"128 211 OFFCURVE",
"149 211 CURVE SMOOTH",
"171.5 211 OFFCURVE",
"179.5 199.5 OFFCURVE",
"179.5 179 CURVE SMOOTH",
"179.5 15.5 LINE SMOOTH",
"179.5 4.5 OFFCURVE",
"188.5 -1 OFFCURVE",
"210.5 -1 CURVE SMOOTH",
"224.5 -1 LINE SMOOTH",
"246.5 -1 OFFCURVE",
"255.5 4.5 OFFCURVE",
"255.5 15.5 CURVE SMOOTH",
"255.5 188.5 LINE SMOOTH",
"255.5 197.5 OFFCURVE",
"254 207 OFFCURVE",
"252 216 CURVE",
"252 174 LINE",
"254 176.5 OFFCURVE",
"266 211 OFFCURVE",
"296.5 211 CURVE SMOOTH",
"319.5 211 OFFCURVE",
"327 199.5 OFFCURVE",
"327 179 CURVE SMOOTH",
"327 15.5 LINE SMOOTH",
"327 4.5 OFFCURVE",
"336.5 -1 OFFCURVE",
"358 -1 CURVE SMOOTH",
"372.5 -1 LINE SMOOTH",
"394 -1 OFFCURVE",
"403.5 4.5 OFFCURVE",
"403.5 15.5 CURVE SMOOTH",
"403.5 190.5 LINE SMOOTH",
"403.5 247.5 OFFCURVE",
"379.5 274 OFFCURVE",
"328 274 CURVE SMOOTH",
"293.5 274 OFFCURVE",
"264 254 OFFCURVE",
"248.5 234.5 CURVE",
"238.5 262 OFFCURVE",
"216.5 274 OFFCURVE",
"180.5 274 CURVE SMOOTH",
"147 274 OFFCURVE",
"119 254 OFFCURVE",
"104 234.5 CURVE",
"101.5 247.5 OFFCURVE",
"100 268.5 OFFCURVE",
"83.5 268.5 CURVE SMOOTH",
"71 268.5 OFFCURVE",
"26 264 OFFCURVE",
"26 252 CURVE SMOOTH",
"26 241.5 OFFCURVE",
"32 231 OFFCURVE",
"32 179 CURVE SMOOTH",
"32 15.5 LINE SMOOTH",
"32 4.5 OFFCURVE",
"41.5 -1 OFFCURVE",
"63 -1 CURVE SMOOTH"
);
}
);
width = 437.5;
}
);
unicode = 006D;
},
{
glyphname = n;
lastChange = "2015-01-29 02:55:36 +0000";
layers = (
{
anchors = (
{
name = bottom;
position = "{144, 0}";
},
{
name = top;
position = "{144, 269.5}";
}
);
layerId = "30990018-E5AF-4C66-A976-C36FA03CF41D";
name = Regular;
paths = (
{
closed = 1;
nodes = (
"67 -1 LINE SMOOTH",
"81.5 -1 OFFCURVE",
"87.5 3.5 OFFCURVE",
"87.5 10.5 CURVE SMOOTH",
"87.5 199.5 LINE",
"104.5 221.5 OFFCURVE",
"129.5 235 OFFCURVE",
"153 235 CURVE SMOOTH",
"186 235 OFFCURVE",
"205.5 216.5 OFFCURVE",
"205.5 185.5 CURVE SMOOTH",
"205.5 10.5 LINE SMOOTH",
"205.5 3.5 OFFCURVE",
"211.5 -1 OFFCURVE",
"226 -1 CURVE SMOOTH",
"228 -1 LINE SMOOTH",
"242.5 -1 OFFCURVE",
"248.5 3.5 OFFCURVE",
"248.5 10.5 CURVE SMOOTH",
"248.5 189.5 LINE SMOOTH",
"248.5 241.5 OFFCURVE",
"217 273 OFFCURVE",
"164.5 273 CURVE SMOOTH",
"135.5 273 OFFCURVE",
"105.5 258.5 OFFCURVE",
"84 234 CURVE",
"81 247.5 OFFCURVE",
"78.5 268.5 OFFCURVE",
"66 268.5 CURVE SMOOTH",
"59 268.5 OFFCURVE",
"38 266 OFFCURVE",
"38 256.5 CURVE SMOOTH",
"38 254 OFFCURVE",
"44.5 233.5 OFFCURVE",
"44.5 191.5 CURVE SMOOTH",
"44.5 10.5 LINE SMOOTH",
"44.5 3.5 OFFCURVE",
"50.5 -1 OFFCURVE",
"65 -1 CURVE SMOOTH"
);
}
);
width = 287.5;
},
{
anchors = (
{
name = bottom;
position = "{144, 0}";
},
{
name = top;
position = "{144, 269.5}";
}
);
layerId = "73D3DE9D-4D16-48FA-A6EF-561C99E37BFC";
name = Bold;
paths = (
{
closed = 1;
nodes = (
"77.5 -1 LINE SMOOTH",
"99 -1 OFFCURVE",
"108.5 4.5 OFFCURVE",
"108.5 15.5 CURVE SMOOTH",
"108.5 181 LINE",
"114.5 193 OFFCURVE",
"128.5 211 OFFCURVE",
"149.5 211 CURVE SMOOTH",
"172 211 OFFCURVE",
"180.5 199.5 OFFCURVE",
"180.5 179 CURVE SMOOTH",
"180.5 15.5 LINE SMOOTH",
"180.5 4.5 OFFCURVE",
"190 -1 OFFCURVE",
"211.5 -1 CURVE SMOOTH",
"226 -1 LINE SMOOTH",
"247.5 -1 OFFCURVE",
"257 4.5 OFFCURVE",
"257 15.5 CURVE SMOOTH",
"257 190.5 LINE SMOOTH",
"257 247.5 OFFCURVE",
"232.5 274 OFFCURVE",
"181 274 CURVE SMOOTH",
"148 274 OFFCURVE",
"119 254 OFFCURVE",
"104 234.5 CURVE",
"101.5 247.5 OFFCURVE",
"100 268.5 OFFCURVE",
"83.5 268.5 CURVE SMOOTH",
"71 268.5 OFFCURVE",
"26 264 OFFCURVE",
"26 252 CURVE SMOOTH",
"26 241.5 OFFCURVE",
"32 231 OFFCURVE",
"32 179 CURVE SMOOTH",
"32 15.5 LINE SMOOTH",
"32 4.5 OFFCURVE",
"41.5 -1 OFFCURVE",
"63 -1 CURVE SMOOTH"
);
}
);
width = 287.5;
}
);
unicode = 006E;
},
{
glyphname = eng;
lastChange = "2015-01-29 02:55:36 +0000";
layers = (
{
layerId = "30990018-E5AF-4C66-A976-C36FA03CF41D";
name = Regular;
paths = (
{
closed = 1;
nodes = (
"208 -109.5 OFFCURVE",
"248.5 -98 OFFCURVE",
"248.5 -38 CURVE SMOOTH",
"248.5 189.5 LINE SMOOTH",
"248.5 241.5 OFFCURVE",
"217 273 OFFCURVE",
"164.5 273 CURVE SMOOTH",
"135.5 273 OFFCURVE",
"105.5 258.5 OFFCURVE",
"84 234 CURVE",
"81 247.5 OFFCURVE",
"78.5 268.5 OFFCURVE",
"66 268.5 CURVE SMOOTH",
"59 268.5 OFFCURVE",
"38 266 OFFCURVE",
"38 256.5 CURVE SMOOTH",
"38 254 OFFCURVE",
"44.5 233.5 OFFCURVE",
"44.5 191.5 CURVE SMOOTH",
"44.5 10.5 LINE SMOOTH",
"44.5 3.5 OFFCURVE",
"50.5 -1 OFFCURVE",
"65 -1 CURVE SMOOTH",
"67 -1 LINE SMOOTH",
"81.5 -1 OFFCURVE",
"87.5 3.5 OFFCURVE",
"87.5 10.5 CURVE SMOOTH",
"87.5 199.5 LINE",
"104.5 221.5 OFFCURVE",
"129.5 235 OFFCURVE",
"153 235 CURVE SMOOTH",
"186 235 OFFCURVE",
"205.5 216.5 OFFCURVE",
"205.5 185.5 CURVE SMOOTH",
"205.5 -34.5 LINE SMOOTH",
"205.5 -65 OFFCURVE",
"192.5 -72 OFFCURVE",
"177.5 -72 CURVE SMOOTH",
"162.5 -72 OFFCURVE",
"160 -69.5 OFFCURVE",
"155.5 -69.5 CURVE SMOOTH",
"148 -69.5 OFFCURVE",
"144.5 -89.5 OFFCURVE",
"144.5 -94 CURVE SMOOTH",
"144.5 -108 OFFCURVE",
"168.5 -109.5 OFFCURVE",
"182 -109.5 CURVE SMOOTH"
);
}
);
width = 287.5;
},
{
layerId = "73D3DE9D-4D16-48FA-A6EF-561C99E37BFC";
name = Bold;
paths = (
{
closed = 1;
nodes = (
"224 -109.5 OFFCURVE",
"257 -82 OFFCURVE",
"257 -26 CURVE SMOOTH",
"257 190.5 LINE SMOOTH",
"257 247.5 OFFCURVE",
"232.5 274 OFFCURVE",
"181 274 CURVE SMOOTH",
"148 274 OFFCURVE",
"119 254 OFFCURVE",
"104 234.5 CURVE",
"101.5 247.5 OFFCURVE",
"100 268.5 OFFCURVE",
"83.5 268.5 CURVE SMOOTH",
"71 268.5 OFFCURVE",
"26 264 OFFCURVE",
"26 252 CURVE SMOOTH",
"26 241.5 OFFCURVE",
"32 231 OFFCURVE",
"32 179 CURVE SMOOTH",
"32 15.5 LINE SMOOTH",
"32 4.5 OFFCURVE",
"41.5 -1 OFFCURVE",
"63 -1 CURVE SMOOTH",
"77.5 -1 LINE SMOOTH",
"99 -1 OFFCURVE",
"108.5 4.5 OFFCURVE",
"108.5 15.5 CURVE SMOOTH",
"108.5 181 LINE",
"114.5 193 OFFCURVE",
"128.5 211 OFFCURVE",
"149.5 211 CURVE SMOOTH",
"172 211 OFFCURVE",
"180.5 199.5 OFFCURVE",
"180.5 179 CURVE SMOOTH",
"180.5 -26.5 LINE SMOOTH",
"180.5 -42 OFFCURVE",
"175.5 -49.5 OFFCURVE",
"162 -49.5 CURVE SMOOTH",
"156 -49.5 OFFCURVE",
"149.5 -47 OFFCURVE",
"146.5 -47 CURVE SMOOTH",
"135.5 -47 OFFCURVE",
"128 -71 OFFCURVE",
"128 -82.5 CURVE SMOOTH",
"128 -102.5 OFFCURVE",
"140.5 -109.5 OFFCURVE",
"181.5 -109.5 CURVE SMOOTH"
);
}
);
width = 287.5;
}
);
unicode = 014B;
},
{
glyphname = o;
lastChange = "2015-01-29 02:55:36 +0000";
layers = (
{
anchors = (
{
name = bottom;
position = "{150, 0}";
},
{
name = horn;
position = "{193.5, 260.5}";
},
{
name = ogonek;
position = "{177, 0}";
},
{
name = top;
position = "{147, 269.5}";
}
);
layerId = "30990018-E5AF-4C66-A976-C36FA03CF41D";
name = Regular;
paths = (
{
closed = 1;
nodes = (
"224.5 -3.5 OFFCURVE",
"265 44.5 OFFCURVE",
"265 133.5 CURVE SMOOTH",
"265 223.5 OFFCURVE",
"223.5 273 OFFCURVE",
"148 273 CURVE SMOOTH",
"71.5 273 OFFCURVE",
"28 223 OFFCURVE",
"28 133.5 CURVE SMOOTH",
"28 45 OFFCURVE",
"70.5 -3.5 OFFCURVE",
"148 -3.5 CURVE SMOOTH"
);
},
{
closed = 1;
nodes = (
"96 34.5 OFFCURVE",
"73.5 66 OFFCURVE",
"73.5 134.5 CURVE SMOOTH",
"73.5 203.5 OFFCURVE",
"96.5 236 OFFCURVE",
"146.5 236 CURVE SMOOTH",
"197 236 OFFCURVE",
"220.5 203 OFFCURVE",
"220.5 134.5 CURVE SMOOTH",
"220.5 66 OFFCURVE",
"197 34.5 OFFCURVE",
"146.5 34.5 CURVE SMOOTH"
);
}
);
width = 293.5;
},
{
anchors = (
{
name = bottom;
position = "{150, 0}";
},
{
name = horn;
position = "{200, 260.5}";
},
{
name = ogonek;
position = "{182, 0}";
},
{
name = top;
position = "{147, 269.5}";
}
);
layerId = "73D3DE9D-4D16-48FA-A6EF-561C99E37BFC";
name = Bold;
paths = (
{
closed = 1;
nodes = (
"229 -4 OFFCURVE",
"272 45.5 OFFCURVE",
"272 135 CURVE SMOOTH",
"272 224.5 OFFCURVE",
"229 274 OFFCURVE",
"147 274 CURVE SMOOTH",
"65 274 OFFCURVE",
"21.5 224.5 OFFCURVE",
"21.5 135 CURVE SMOOTH",
"21.5 45.5 OFFCURVE",
"65 -4 OFFCURVE",
"147 -4 CURVE SMOOTH"
);
},
{
closed = 1;
nodes = (
"114 56.5 OFFCURVE",
"99 83.5 OFFCURVE",
"99 135 CURVE SMOOTH",
"99 186.5 OFFCURVE",
"114 213.5 OFFCURVE",
"147 213.5 CURVE SMOOTH",
"180 213.5 OFFCURVE",
"194.5 186.5 OFFCURVE",
"194.5 135 CURVE SMOOTH",
"194.5 83.5 OFFCURVE",
"180 56.5 OFFCURVE",
"147 56.5 CURVE SMOOTH"
);
}
);
width = 293.5;
}
);
leftKerningGroup = o;
rightKerningGroup = o;
unicode = 006F;
},
{
glyphname = oslash;
lastChange = "2015-01-29 02:55:36 +0000";
layers = (
{
anchors = (
{
name = top;
position = "{147, 269.5}";
}
);
layerId = "30990018-E5AF-4C66-A976-C36FA03CF41D";
name = Regular;
paths = (
{
closed = 1;
nodes = (
"201.5 -3 OFFCURVE",
"265 17.5 OFFCURVE",
"265 133.5 CURVE SMOOTH",
"265 176.5 OFFCURVE",
"256.5 206.5 OFFCURVE",
"242.5 227.5 CURVE",
"262.5 250.5 LINE SMOOTH",
"264.5 253.5 OFFCURVE",
"265.5 255 OFFCURVE",
"265.5 258 CURVE SMOOTH",
"265.5 262 OFFCURVE",
"258.5 269 OFFCURVE",
"254 269 CURVE SMOOTH",
"252 269 OFFCURVE",
"249.5 267.5 OFFCURVE",
"247 264.5 CURVE SMOOTH",
"229.5 244 LINE",
"206.5 266 OFFCURVE",
"176 272.5 OFFCURVE",
"148 272.5 CURVE SMOOTH",
"94.5 272.5 OFFCURVE",
"28 249.5 OFFCURVE",
"28 133.5 CURVE SMOOTH",
"28 89 OFFCURVE",
"37.5 58.5 OFFCURVE",
"52.5 38 CURVE",
"36.5 19 LINE SMOOTH",
"34.5 16.5 OFFCURVE",
"33 14.5 OFFCURVE",
"33 11.5 CURVE SMOOTH",
"33 7.5 OFFCURVE",
"40.5 1 OFFCURVE",
"45 1 CURVE SMOOTH",
"47.5 1 OFFCURVE",
"49.5 3 OFFCURVE",
"52 5 CURVE SMOOTH",
"67 22.5 LINE",
"90 3 OFFCURVE",
"120.5 -3 OFFCURVE",
"148 -3 CURVE SMOOTH"
);
},
{
closed = 1;
nodes = (
"124.5 34.5 OFFCURVE",
"107 40.5 OFFCURVE",
"94.5 54 CURVE",
"212 192 LINE",
"217.5 177 OFFCURVE",
"220.5 158.5 OFFCURVE",
"220.5 134.5 CURVE SMOOTH",
"220.5 60 OFFCURVE",
"192.5 34.5 OFFCURVE",
"146.5 34.5 CURVE SMOOTH"
);
},
{
closed = 1;
nodes = (
"76.5 88 OFFCURVE",
"73 108.5 OFFCURVE",
"73 134.5 CURVE SMOOTH",
"73 209 OFFCURVE",
"100.5 235 OFFCURVE",
"146.5 235 CURVE SMOOTH",
"170 235 OFFCURVE",
"188.5 228.5 OFFCURVE",
"201.5 211.5 CURVE",
"82.5 73 LINE"
);
}
);
width = 293.5;
},
{
anchors = (
{
name = top;
position = "{147, 269.5}";
}
);
layerId = "73D3DE9D-4D16-48FA-A6EF-561C99E37BFC";
name = Bold;
paths = (
{
closed = 1;
nodes = (
"229 -4 OFFCURVE",
"272 45.5 OFFCURVE",
"272 135 CURVE SMOOTH",
"272 172 OFFCURVE",
"264 202.5 OFFCURVE",
"249.5 225.5 CURVE",
"268.5 247 LINE SMOOTH",
"271 250.5 OFFCURVE",
"273.5 254 OFFCURVE",
"273.5 258 CURVE SMOOTH",
"273.5 267 OFFCURVE",
"257 280.5 OFFCURVE",
"248.5 280.5 CURVE SMOOTH",
"245 280.5 OFFCURVE",
"241 278 OFFCURVE",
"237.5 274 CURVE SMOOTH",
"221 254.5 LINE",
"201.5 267.5 OFFCURVE",
"177 274 OFFCURVE",
"147 274 CURVE SMOOTH",
"65 274 OFFCURVE",
"21.5 224.5 OFFCURVE",
"21.5 135 CURVE SMOOTH",
"21.5 99 OFFCURVE",
"28 69.5 OFFCURVE",
"42 47 CURVE",
"25.5 27 LINE SMOOTH",
"21.5 23 OFFCURVE",
"20 20 OFFCURVE",
"20 16.5 CURVE SMOOTH",
"20 6.5 OFFCURVE",
"36.5 -6 OFFCURVE",
"45 -6 CURVE SMOOTH",
"48.5 -6 OFFCURVE",
"52 -4 OFFCURVE",
"56 0.5 CURVE SMOOTH",
"70.5 17 LINE",
"89.5 3.5 OFFCURVE",
"115.5 -4 OFFCURVE",
"147 -4 CURVE SMOOTH"
);
},
{
closed = 1;
nodes = (
"133.5 56.5 OFFCURVE",
"123.5 61 OFFCURVE",
"115.5 69.5 CURVE",
"193 160 LINE",
"193.5 152 OFFCURVE",
"194.5 144 OFFCURVE",
"194.5 135 CURVE SMOOTH",
"194.5 83.5 OFFCURVE",
"180 56.5 OFFCURVE",
"147 56.5 CURVE SMOOTH"
);
},
{
closed = 1;
nodes = (
"99.5 120.5 OFFCURVE",
"99 127.5 OFFCURVE",
"99 135 CURVE SMOOTH",
"99 186.5 OFFCURVE",
"114 213.5 OFFCURVE",
"147 213.5 CURVE SMOOTH",
"159 213.5 OFFCURVE",
"169 210 OFFCURVE",
"176 202.5 CURVE",
"100 114 LINE"
);
}
);
width = 293.5;
}
);
unicode = 00F8;
},
{
glyphname = oe;
lastChange = "2015-01-29 02:55:36 +0000";
layers = (
{
anchors = (
{
name = top;
position = "{224.5, 269.5}";
}
);
components = (
{
name = e;
transform = "{1, 0, 0, 1, 166.108, 0}";
}
);
layerId = "30990018-E5AF-4C66-A976-C36FA03CF41D";
name = Regular;
paths = (
{
closed = 1;
nodes = (
"183 -3.5 OFFCURVE",
"211 6.5 OFFCURVE",
"231 26 CURVE",
"230.5 242.5 LINE",
"210.5 262.5 OFFCURVE",
"182.5 273 OFFCURVE",
"148 273 CURVE SMOOTH",
"71.5 273 OFFCURVE",
"28 223 OFFCURVE",
"28 133.5 CURVE SMOOTH",
"28 45 OFFCURVE",
"70.5 -3.5 OFFCURVE",
"148 -3.5 CURVE SMOOTH"
);
},
{
closed = 1;
nodes = (
"96 34.5 OFFCURVE",
"73.5 66 OFFCURVE",
"73.5 134.5 CURVE SMOOTH",
"73.5 203.5 OFFCURVE",
"96.5 236 OFFCURVE",
"146.5 236 CURVE SMOOTH",
"202 236 OFFCURVE",
"227 203 OFFCURVE",
"227 134.5 CURVE SMOOTH",
"227 66 OFFCURVE",
"202 34.5 OFFCURVE",
"146.5 34.5 CURVE SMOOTH"
);
}
);
width = 449.5;
},
{
anchors = (
{
name = top;
position = "{224.5, 269.5}";
}
);
components = (
{
name = e;
transform = "{1, 0, 0, 1, 172.814, 0}";
}
);
layerId = "73D3DE9D-4D16-48FA-A6EF-561C99E37BFC";
name = Bold;
paths = (
{
closed = 1;
nodes = (
"184.5 -4 OFFCURVE",
"213 8.5 OFFCURVE",
"234 27.5 CURVE",
"232.5 242.5 LINE",
"212 262 OFFCURVE",
"183 274 OFFCURVE",
"146.5 274 CURVE SMOOTH",
"64 274 OFFCURVE",
"21 224.5 OFFCURVE",
"21 135 CURVE SMOOTH",
"21 45.5 OFFCURVE",
"64 -4 OFFCURVE",
"146.5 -4 CURVE SMOOTH"
);
},
{
closed = 1;
nodes = (
"113.5 56.5 OFFCURVE",
"98.5 83.5 OFFCURVE",
"98.5 135 CURVE SMOOTH",
"98.5 186.5 OFFCURVE",
"113.5 213.5 OFFCURVE",
"146.5 213.5 CURVE SMOOTH",
"179.5 213.5 OFFCURVE",
"193.5 186.5 OFFCURVE",
"193.5 135 CURVE SMOOTH",
"193.5 83.5 OFFCURVE",
"179.5 56.5 OFFCURVE",
"146.5 56.5 CURVE SMOOTH"
);
}
);
width = 449.5;
}
);
unicode = 0153;
},
{
glyphname = p;
lastChange = "2015-01-29 02:55:36 +0000";
layers = (
{
layerId = "30990018-E5AF-4C66-A976-C36FA03CF41D";
name = Regular;
paths = (
{
closed = 1;
nodes = (
"67 -107.5 LINE SMOOTH",
"81.5 -107.5 OFFCURVE",
"87.5 -103 OFFCURVE",
"87.5 -96 CURVE SMOOTH",
"87.5 23 LINE",
"108 7.5 OFFCURVE",
"129.5 -3.5 OFFCURVE",
"161.5 -3.5 CURVE SMOOTH",
"223 -3.5 OFFCURVE",
"266 45.5 OFFCURVE",
"266 134.5 CURVE SMOOTH",
"266 214 OFFCURVE",
"230.5 273 OFFCURVE",
"166 273 CURVE SMOOTH",
"136.5 273 OFFCURVE",
"109.5 260.5 OFFCURVE",
"84 234 CURVE",
"81 247.5 OFFCURVE",
"78.5 268.5 OFFCURVE",
"66 268.5 CURVE SMOOTH",
"59 268.5 OFFCURVE",
"38 266 OFFCURVE",
"38 256.5 CURVE SMOOTH",
"38 254 OFFCURVE",
"44.5 233.5 OFFCURVE",
"44.5 191.5 CURVE SMOOTH",
"44.5 -96 LINE SMOOTH",
"44.5 -103 OFFCURVE",
"50.5 -107.5 OFFCURVE",
"65 -107.5 CURVE SMOOTH"
);
},
{
closed = 1;
nodes = (
"128 35 OFFCURVE",
"106.5 42.5 OFFCURVE",
"87.5 58 CURVE",
"87.5 200 LINE",
"109 223 OFFCURVE",
"134.5 235 OFFCURVE",
"157 235 CURVE SMOOTH",
"198 235 OFFCURVE",
"221 197.5 OFFCURVE",
"221 131 CURVE SMOOTH",
"221 69.5 OFFCURVE",
"197.5 36 OFFCURVE",
"151.5 35 CURVE SMOOTH"
);
}
);
width = 295.5;
},
{
layerId = "73D3DE9D-4D16-48FA-A6EF-561C99E37BFC";
name = Bold;
paths = (
{
closed = 1;
nodes = (
"81.5 -106.5 LINE SMOOTH",
"103 -106.5 OFFCURVE",
"112.5 -100.5 OFFCURVE",
"112.5 -89.5 CURVE SMOOTH",
"112.5 11.5 LINE",
"123.5 4 OFFCURVE",
"140.5 -4 OFFCURVE",
"165 -4 CURVE SMOOTH",
"234.5 -4 OFFCURVE",
"274 50.5 OFFCURVE",
"274 134.5 CURVE SMOOTH",
"274 224 OFFCURVE",
"233 274 OFFCURVE",
"177.5 274 CURVE SMOOTH",
"145.5 274 OFFCURVE",
"120 257.5 OFFCURVE",
"108.5 235 CURVE",
"105 247.5 OFFCURVE",
"104 268.5 OFFCURVE",
"87.5 268.5 CURVE SMOOTH",
"74.5 268.5 OFFCURVE",
"30 264 OFFCURVE",
"30 252 CURVE SMOOTH",
"30 241.5 OFFCURVE",
"36 231 OFFCURVE",
"36 179 CURVE SMOOTH",
"36 -89.5 LINE SMOOTH",
"36 -100.5 OFFCURVE",
"45.5 -106.5 OFFCURVE",
"67 -106.5 CURVE SMOOTH"
);
},
{
closed = 1;
nodes = (
"133 56.5 OFFCURVE",
"120.5 61.5 OFFCURVE",
"112.5 66 CURVE",
"112.5 181 LINE",
"122 197 OFFCURVE",
"135 211.5 OFFCURVE",
"155 211.5 CURVE SMOOTH",
"183 211.5 OFFCURVE",
"196.5 185 OFFCURVE",
"196.5 134.5 CURVE SMOOTH",
"196.5 83 OFFCURVE",
"181 56.5 OFFCURVE",
"148.5 56.5 CURVE SMOOTH"
);
}
);
width = 295.5;
}
);
unicode = 0070;
},
{
glyphname = thorn;
lastChange = "2015-01-29 02:55:36 +0000";
layers = (
{
layerId = "30990018-E5AF-4C66-A976-C36FA03CF41D";
name = Regular;
paths = (
{
closed = 1;
nodes = (
"66.5 -107.5 LINE SMOOTH",
"81 -107.5 OFFCURVE",
"87.5 -103 OFFCURVE",
"87.5 -96 CURVE SMOOTH",
"87.5 23 LINE",
"107.5 7.5 OFFCURVE",
"129 -3.5 OFFCURVE",
"161 -3.5 CURVE SMOOTH",
"222.5 -3.5 OFFCURVE",
"265.5 45.5 OFFCURVE",
"265.5 134 CURVE SMOOTH",
"265.5 215.5 OFFCURVE",
"227.5 273 OFFCURVE",
"165.5 273 CURVE SMOOTH",
"138 273 OFFCURVE",
"111.5 262 OFFCURVE",
"87.5 238 CURVE",
"87.5 376.5 LINE SMOOTH",
"87.5 383.5 OFFCURVE",
"81 388 OFFCURVE",
"66.5 388 CURVE SMOOTH",
"64 388 LINE SMOOTH",
"50 388 OFFCURVE",
"43.5 383.5 OFFCURVE",
"43.5 376.5 CURVE SMOOTH",
"43.5 -96 LINE SMOOTH",
"43.5 -103 OFFCURVE",
"50 -107.5 OFFCURVE",
"64 -107.5 CURVE SMOOTH"
);
},
{
closed = 1;
nodes = (
"127.5 35 OFFCURVE",
"105.5 42.5 OFFCURVE",
"87.5 58 CURVE",
"87.5 200 LINE",
"108.5 223 OFFCURVE",
"134 235 OFFCURVE",
"156.5 235 CURVE SMOOTH",
"197.5 235 OFFCURVE",
"220.5 197.5 OFFCURVE",
"220.5 131 CURVE SMOOTH",
"220.5 69.5 OFFCURVE",
"197 36 OFFCURVE",
"151 35 CURVE SMOOTH"
);
}
);
width = 294;
},
{
layerId = "73D3DE9D-4D16-48FA-A6EF-561C99E37BFC";
name = Bold;
paths = (
{
closed = 1;
nodes = (
"79 -106.5 LINE SMOOTH",
"100.5 -106.5 OFFCURVE",
"110 -100.5 OFFCURVE",
"110 -89.5 CURVE SMOOTH",
"110 11.5 LINE",
"120.5 4 OFFCURVE",
"138.5 -4 OFFCURVE",
"162.5 -4 CURVE SMOOTH",
"232 -4 OFFCURVE",
"271 50.5 OFFCURVE",
"271 134.5 CURVE SMOOTH",
"271 224 OFFCURVE",
"231 274 OFFCURVE",
"175 274 CURVE SMOOTH",
"146.5 274 OFFCURVE",
"123 261.5 OFFCURVE",
"110 242.5 CURVE",
"110 372.5 LINE SMOOTH",
"110 383 OFFCURVE",
"100.5 389 OFFCURVE",
"79 389 CURVE SMOOTH",
"64 389 LINE SMOOTH",
"42.5 389 OFFCURVE",
"34 383 OFFCURVE",
"34 372.5 CURVE SMOOTH",
"34 -89.5 LINE SMOOTH",
"34 -100.5 OFFCURVE",
"42.5 -106.5 OFFCURVE",
"64 -106.5 CURVE SMOOTH"
);
},
{
closed = 1;
nodes = (
"130 56.5 OFFCURVE",
"118 61.5 OFFCURVE",
"110 66 CURVE",
"110 181 LINE",
"119 197 OFFCURVE",
"133 211.5 OFFCURVE",
"152 211.5 CURVE SMOOTH",
"180.5 211.5 OFFCURVE",
"193.5 185 OFFCURVE",
"193.5 134.5 CURVE SMOOTH",
"193.5 83 OFFCURVE",
"178 56.5 OFFCURVE",
"146 56.5 CURVE SMOOTH"
);
}
);
width = 294;
}
);
unicode = 00FE;
},
{
glyphname = q;
lastChange = "2015-01-29 02:55:36 +0000";
layers = (
{
layerId = "30990018-E5AF-4C66-A976-C36FA03CF41D";
name = Regular;
paths = (
{
closed = 1;
nodes = (
"228 -107.5 LINE SMOOTH",
"242.5 -107.5 OFFCURVE",
"248.5 -103 OFFCURVE",
"248.5 -96 CURVE SMOOTH",
"248.5 259.5 LINE SMOOTH",
"248.5 267 OFFCURVE",
"244 270.5 OFFCURVE",
"233 270.5 CURVE SMOOTH",
"231.5 270.5 LINE SMOOTH",
"223.5 270.5 OFFCURVE",
"219 269.5 OFFCURVE",
"217 264.5 CURVE SMOOTH",
"213 254 OFFCURVE",
"211 244.5 OFFCURVE",
"208.5 234 CURVE",
"184 260.5 OFFCURVE",
"156 273 OFFCURVE",
"127 273 CURVE SMOOTH",
"65 273 OFFCURVE",
"26.5 215.5 OFFCURVE",
"26.5 134 CURVE SMOOTH",
"26.5 45.5 OFFCURVE",
"70.5 -3.5 OFFCURVE",
"131.5 -3.5 CURVE SMOOTH",
"163.5 -3.5 OFFCURVE",
"185.5 7.5 OFFCURVE",
"205.5 23 CURVE",
"205.5 -96 LINE SMOOTH",
"205.5 -103 OFFCURVE",
"211.5 -107.5 OFFCURVE",
"226 -107.5 CURVE SMOOTH"
);
},
{
closed = 1;
nodes = (
"95 36 OFFCURVE",
"72 69.5 OFFCURVE",
"72 131 CURVE SMOOTH",
"72 197.5 OFFCURVE",
"94.5 235 OFFCURVE",
"135.5 235 CURVE SMOOTH",
"158.5 235 OFFCURVE",
"184.5 223 OFFCURVE",
"205.5 200 CURVE",
"205.5 58 LINE",
"186.5 42.5 OFFCURVE",
"165 35 OFFCURVE",
"141 35 CURVE SMOOTH"
);
}
);
width = 292;
},
{
layerId = "73D3DE9D-4D16-48FA-A6EF-561C99E37BFC";
name = Bold;
paths = (
{
closed = 1;
nodes = (
"231.5 -106.5 LINE SMOOTH",
"253 -106.5 OFFCURVE",
"262 -100.5 OFFCURVE",
"262 -89.5 CURVE SMOOTH",
"262 254 LINE SMOOTH",
"262 265 OFFCURVE",
"253 270.5 OFFCURVE",
"231.5 270.5 CURVE SMOOTH",
"224.5 270.5 LINE SMOOTH",
"208.5 270.5 OFFCURVE",
"197.5 269 OFFCURVE",
"195 257.5 CURVE SMOOTH",
"193 250 OFFCURVE",
"191.5 242.5 OFFCURVE",
"190 235 CURVE",
"178 257.5 OFFCURVE",
"153 274 OFFCURVE",
"120.5 274 CURVE SMOOTH",
"63.5 274 OFFCURVE",
"21.5 224 OFFCURVE",
"21.5 134.5 CURVE SMOOTH",
"21.5 50.5 OFFCURVE",
"62 -4 OFFCURVE",
"133 -4 CURVE SMOOTH",
"157 -4 OFFCURVE",
"175 4 OFFCURVE",
"186 11.5 CURVE",
"186 -89.5 LINE SMOOTH",
"186 -100.5 OFFCURVE",
"195 -106.5 OFFCURVE",
"216.5 -106.5 CURVE SMOOTH"
);
},
{
closed = 1;
nodes = (
"115.5 56.5 OFFCURVE",
"99 83 OFFCURVE",
"99 134.5 CURVE SMOOTH",
"99 185 OFFCURVE",
"113.5 211.5 OFFCURVE",
"143.5 211.5 CURVE SMOOTH",
"163.5 211.5 OFFCURVE",
"176.5 197 OFFCURVE",
"186 181 CURVE",
"186 66 LINE",
"177.5 61.5 OFFCURVE",
"165.5 56.5 OFFCURVE",
"149.5 56.5 CURVE SMOOTH"
);
}
);
width = 292;
}
);
unicode = 0071;
},
{
glyphname = r;
lastChange = "2015-01-29 02:55:36 +0000";
layers = (
{
anchors = (
{
name = bottom;
position = "{69, -1}";
},
{
name = top;
position = "{68, 268.5}";
}
);
layerId = "30990018-E5AF-4C66-A976-C36FA03CF41D";
name = Regular;
paths = (
{
closed = 1;
nodes = (
"69 -1 LINE SMOOTH",
"83.5 -1 OFFCURVE",
"89.5 3.5 OFFCURVE",
"89.5 10.5 CURVE SMOOTH",
"89.5 199.5 LINE",
"89.5 199.5 OFFCURVE",
"110 231 OFFCURVE",
"137.5 231 CURVE SMOOTH",
"155 231 OFFCURVE",
"159 224.5 OFFCURVE",
"165.5 224.5 CURVE SMOOTH",
"171.5 224.5 OFFCURVE",
"176 243 OFFCURVE",
"176 253 CURVE SMOOTH",
"176 264 OFFCURVE",
"166 273 OFFCURVE",
"146 273 CURVE SMOOTH",
"124.5 273 OFFCURVE",
"103.5 259 OFFCURVE",
"86.5 234 CURVE",
"83 247.5 OFFCURVE",
"80.5 268.5 OFFCURVE",
"68 268.5 CURVE SMOOTH",
"61.5 268.5 OFFCURVE",
"40.5 266 OFFCURVE",
"40.5 256.5 CURVE SMOOTH",
"40.5 254 OFFCURVE",
"46.5 233.5 OFFCURVE",
"46.5 191.5 CURVE SMOOTH",
"46.5 10.5 LINE SMOOTH",
"46.5 3.5 OFFCURVE",
"52.5 -1 OFFCURVE",
"67 -1 CURVE SMOOTH"
);
}
);
width = 188.5;
},
{
anchors = (
{
name = bottom;
position = "{77.5, -1}";
},
{
name = top;
position = "{68.5, 269.5}";
}
);
layerId = "73D3DE9D-4D16-48FA-A6EF-561C99E37BFC";
name = Bold;
paths = (
{
closed = 1;
nodes = (
"77.5 -1 LINE SMOOTH",
"99 -1 OFFCURVE",
"108.5 4.5 OFFCURVE",
"108.5 15.5 CURVE SMOOTH",
"108.5 181 LINE",
"114.5 191.5 OFFCURVE",
"128.5 207 OFFCURVE",
"149.5 207 CURVE SMOOTH",
"160 207 OFFCURVE",
"166.5 202.5 OFFCURVE",
"174 202.5 CURVE SMOOTH",
"184.5 202.5 OFFCURVE",
"190 236.5 OFFCURVE",
"190 246.5 CURVE SMOOTH",
"190 256.5 OFFCURVE",
"186 274 OFFCURVE",
"160.5 274 CURVE SMOOTH",
"130.5 274 OFFCURVE",
"115 254 OFFCURVE",
"104 234.5 CURVE",
"101.5 247.5 OFFCURVE",
"100 268.5 OFFCURVE",
"83.5 268.5 CURVE SMOOTH",
"71 268.5 OFFCURVE",
"26 264 OFFCURVE",
"26 252 CURVE SMOOTH",
"26 241.5 OFFCURVE",
"32 231 OFFCURVE",
"32 179 CURVE SMOOTH",
"32 15.5 LINE SMOOTH",
"32 4.5 OFFCURVE",
"41.5 -1 OFFCURVE",
"63 -1 CURVE SMOOTH"
);
}
);
width = 188.5;
}
);
unicode = 0072;
},
{
glyphname = s;
lastChange = "2015-01-29 02:55:36 +0000";
layers = (
{
anchors = (
{
name = bottom;
position = "{107, 0}";
},
{
name = top;
position = "{107, 269.5}";
}
);
layerId = "30990018-E5AF-4C66-A976-C36FA03CF41D";
name = Regular;
paths = (
{
closed = 1;
nodes = (
"151 -4.5 OFFCURVE",
"191.5 29.5 OFFCURVE",
"191.5 76 CURVE SMOOTH",
"191.5 123 OFFCURVE",
"172 140 OFFCURVE",
"109 159.5 CURVE SMOOTH",
"79.5 168.5 OFFCURVE",
"68.5 181 OFFCURVE",
"68.5 204 CURVE SMOOTH",
"68.5 224 OFFCURVE",
"88.5 237 OFFCURVE",
"114.5 237 CURVE SMOOTH",
"142 237 OFFCURVE",
"159 223.5 OFFCURVE",
"161.5 223.5 CURVE SMOOTH",
"168.5 223.5 OFFCURVE",
"178 243 OFFCURVE",
"178 251.5 CURVE SMOOTH",
"178 262.5 OFFCURVE",
"145 273.5 OFFCURVE",
"110 273.5 CURVE SMOOTH",
"60 273.5 OFFCURVE",
"24.5 242 OFFCURVE",
"24.5 198.5 CURVE SMOOTH",
"24.5 160 OFFCURVE",
"40.5 138 OFFCURVE",
"96 121 CURVE SMOOTH",
"134.5 110 OFFCURVE",
"148 98 OFFCURVE",
"148 74.5 CURVE SMOOTH",
"148 46.5 OFFCURVE",
"130 33 OFFCURVE",
"97 33 CURVE SMOOTH",
"60.5 33 OFFCURVE",
"40 53.5 OFFCURVE",
"36 53.5 CURVE SMOOTH",
"29 53.5 OFFCURVE",
"18.5 34 OFFCURVE",
"18.5 27.5 CURVE SMOOTH",
"18.5 16 OFFCURVE",
"53 -4.5 OFFCURVE",
"100 -4.5 CURVE SMOOTH"
);
}
);
width = 213;
},
{
anchors = (
{
name = bottom;
position = "{107, 0}";
},
{
name = top;
position = "{107, 269.5}";
}
);
layerId = "73D3DE9D-4D16-48FA-A6EF-561C99E37BFC";
name = Bold;
paths = (
{
closed = 1;
nodes = (
"166 -4 OFFCURVE",
"202.5 31.5 OFFCURVE",
"202.5 84 CURVE SMOOTH",
"202.5 125 OFFCURVE",
"181 144 OFFCURVE",
"157.5 155.5 CURVE SMOOTH",
"130.5 168.5 OFFCURVE",
"99.5 173 OFFCURVE",
"99.5 196 CURVE SMOOTH",
"99.5 208.5 OFFCURVE",
"110 214 OFFCURVE",
"127 214 CURVE SMOOTH",
"151 214 OFFCURVE",
"165.5 203 OFFCURVE",
"171 203 CURVE SMOOTH",
"181 203 OFFCURVE",
"193 232.5 OFFCURVE",
"193 244 CURVE SMOOTH",
"193 265.5 OFFCURVE",
"146 274 OFFCURVE",
"116 274 CURVE SMOOTH",
"58.5 274 OFFCURVE",
"22 243 OFFCURVE",
"22 189.5 CURVE SMOOTH",
"22 138 OFFCURVE",
"56 122 OFFCURVE",
"81 112 CURVE SMOOTH",
"104 102.5 OFFCURVE",
"125 97.5 OFFCURVE",
"125 78 CURVE SMOOTH",
"125 64 OFFCURVE",
"115 56.5 OFFCURVE",
"95 56.5 CURVE SMOOTH",
"68 56.5 OFFCURVE",
"51 71 OFFCURVE",
"43 71 CURVE SMOOTH",
"33 71 OFFCURVE",
"16 44.5 OFFCURVE",
"16 31 CURVE SMOOTH",
"16 9 OFFCURVE",
"63 -4 OFFCURVE",
"102 -4 CURVE SMOOTH"
);
}
);
width = 213;
}
);
unicode = 0073;
},
{
glyphname = germandbls;
lastChange = "2015-01-29 02:55:36 +0000";
layers = (
{
layerId = "30990018-E5AF-4C66-A976-C36FA03CF41D";
name = Regular;
paths = (
{
closed = 1;
nodes = (
"69 -1 LINE SMOOTH",
"83.5 -1 OFFCURVE",
"89.5 3.5 OFFCURVE",
"89.5 10.5 CURVE SMOOTH",
"89.5 269 LINE SMOOTH",
"89.5 305 OFFCURVE",
"112 327 OFFCURVE",
"147 327 CURVE SMOOTH",
"174.5 327 OFFCURVE",
"204 316.5 OFFCURVE",
"204 272.5 CURVE SMOOTH",
"204 239 OFFCURVE",
"174.5 212.5 OFFCURVE",
"143 212.5 CURVE SMOOTH",
"138 212.5 LINE SMOOTH",
"130.5 212.5 OFFCURVE",
"127.5 208 OFFCURVE",
"127.5 197 CURVE SMOOTH",
"127.5 191 LINE SMOOTH",
"127.5 180 OFFCURVE",
"130.5 175.5 OFFCURVE",
"138 175.5 CURVE SMOOTH",
"155 175.5 LINE SMOOTH",
"191 175.5 OFFCURVE",
"219.5 149.5 OFFCURVE",
"219.5 106.5 CURVE SMOOTH",
"219.5 62.5 OFFCURVE",
"191 37 OFFCURVE",
"155 37 CURVE SMOOTH",
"138 37 LINE SMOOTH",
"130.5 37 OFFCURVE",
"127.5 32.5 OFFCURVE",
"127.5 21.5 CURVE SMOOTH",
"127.5 15.5 LINE SMOOTH",
"127.5 4.5 OFFCURVE",
"130.5 0 OFFCURVE",
"138 0 CURVE SMOOTH",
"154.5 0 LINE SMOOTH",
"216 0 OFFCURVE",
"265 37 OFFCURVE",
"265 106.5 CURVE SMOOTH",
"265 150.5 OFFCURVE",
"241.5 187.5 OFFCURVE",
"197.5 198 CURVE",
"197.5 200 LINE",
"229 213 OFFCURVE",
"250 246.5 OFFCURVE",
"250 276.5 CURVE SMOOTH",
"250 342 OFFCURVE",
"204 364 OFFCURVE",
"148 364 CURVE SMOOTH",
"87 364 OFFCURVE",
"46.5 325 OFFCURVE",
"46.5 269 CURVE SMOOTH",
"46.5 10.5 LINE SMOOTH",
"46.5 3.5 OFFCURVE",
"52.5 -1 OFFCURVE",
"67 -1 CURVE SMOOTH"
);
}
);
width = 285.5;
},
{
layerId = "73D3DE9D-4D16-48FA-A6EF-561C99E37BFC";
name = Bold;
paths = (
{
closed = 1;
nodes = (
"75.5 -1 LINE SMOOTH",
"97 -1 OFFCURVE",
"106.5 4.5 OFFCURVE",
"106.5 15.5 CURVE SMOOTH",
"106.5 259 LINE SMOOTH",
"106.5 283.5 OFFCURVE",
"122 300.5 OFFCURVE",
"147 300.5 CURVE SMOOTH",
"174.5 300.5 OFFCURVE",
"185 279 OFFCURVE",
"185 263.5 CURVE SMOOTH",
"185 239.5 OFFCURVE",
"168.5 221 OFFCURVE",
"142 221 CURVE",
"140.5 221 LINE",
"131.5 221 OFFCURVE",
"127 212 OFFCURVE",
"127 195 CURVE SMOOTH",
"127 186 LINE SMOOTH",
"127 168.5 OFFCURVE",
"131.5 160.5 OFFCURVE",
"142 160.5 CURVE",
"143.5 160.5 LINE",
"177.5 160.5 OFFCURVE",
"197.5 139.5 OFFCURVE",
"197.5 108.5 CURVE SMOOTH",
"197.5 79.5 OFFCURVE",
"178 60.5 OFFCURVE",
"149.5 60.5 CURVE SMOOTH",
"142 60.5 LINE SMOOTH",
"131.5 60.5 OFFCURVE",
"127 52.5 OFFCURVE",
"127 34.5 CURVE SMOOTH",
"127 26 LINE SMOOTH",
"127 7.5 OFFCURVE",
"131.5 0 OFFCURVE",
"142 0 CURVE SMOOTH",
"154.5 0 LINE SMOOTH",
"229 0 OFFCURVE",
"275 46.5 OFFCURVE",
"275 108.5 CURVE SMOOTH",
"275 153 OFFCURVE",
"257 181 OFFCURVE",
"214 197.5 CURVE",
"214 200 LINE",
"246 212.5 OFFCURVE",
"262 239 OFFCURVE",
"262 273.5 CURVE SMOOTH",
"262 330.5 OFFCURVE",
"213 365.5 OFFCURVE",
"148 365.5 CURVE SMOOTH",
"79.5 365.5 OFFCURVE",
"30 321.5 OFFCURVE",
"30 253 CURVE SMOOTH",
"30 15.5 LINE SMOOTH",
"30 4.5 OFFCURVE",
"39.5 -1 OFFCURVE",
"61 -1 CURVE SMOOTH"
);
}
);
width = 285.5;
}
);
unicode = 00DF;
},
{
glyphname = longs;
lastChange = "2015-01-29 02:55:36 +0000";
layers = (
{
layerId = "30990018-E5AF-4C66-A976-C36FA03CF41D";
name = Regular;
paths = (
{
closed = 1;
nodes = (
"78.5 -1 LINE SMOOTH",
"93 -1 OFFCURVE",
"99 3.5 OFFCURVE",
"99 10.5 CURVE",
"99 315 LINE",
"99 348.5 OFFCURVE",
"112 352.5 OFFCURVE",
"127 352.5 CURVE SMOOTH",
"141.5 352.5 OFFCURVE",
"144.5 350.5 OFFCURVE",
"149 350.5 CURVE SMOOTH",
"156 350.5 OFFCURVE",
"160 370.5 OFFCURVE",
"160 374.5 CURVE SMOOTH",
"160 388.5 OFFCURVE",
"136 390 OFFCURVE",
"122.5 390 CURVE SMOOTH",
"96.5 390 OFFCURVE",
"56 380.5 OFFCURVE",
"56 319 CURVE SMOOTH",
"56 269.5 LINE",
"35 269.5 LINE SMOOTH",
"27.5 269.5 OFFCURVE",
"25 265 OFFCURVE",
"25 254 CURVE SMOOTH",
"25 248 LINE SMOOTH",
"25 237.5 OFFCURVE",
"27.5 232.5 OFFCURVE",
"35 232.5 CURVE SMOOTH",
"56 232.5 LINE",
"56 10.5 LINE SMOOTH",
"56 3.5 OFFCURVE",
"62 -1 OFFCURVE",
"76.5 -1 CURVE SMOOTH"
);
}
);
width = 167.5;
},
{
layerId = "73D3DE9D-4D16-48FA-A6EF-561C99E37BFC";
name = Bold;
paths = (
{
closed = 1;
nodes = (
"86.5 -1 LINE SMOOTH",
"108 -1 OFFCURVE",
"117.5 4.5 OFFCURVE",
"117.5 15.5 CURVE",
"117.5 309.5 LINE",
"117.5 325 OFFCURVE",
"122.5 331.5 OFFCURVE",
"135.5 331.5 CURVE SMOOTH",
"140.5 331.5 OFFCURVE",
"148 330 OFFCURVE",
"151.5 330 CURVE SMOOTH",
"162 330 OFFCURVE",
"167.5 362.5 OFFCURVE",
"167.5 367 CURVE SMOOTH",
"167.5 391 OFFCURVE",
"133 392 OFFCURVE",
"116 392 CURVE SMOOTH",
"67.5 392 OFFCURVE",
"41 366 OFFCURVE",
"41 308.5 CURVE SMOOTH",
"41 269.5 LINE",
"31.5 269.5 LINE SMOOTH",
"20.5 269.5 OFFCURVE",
"16 262 OFFCURVE",
"16 244 CURVE SMOOTH",
"16 235 LINE SMOOTH",
"16 217 OFFCURVE",
"20.5 209 OFFCURVE",
"31.5 209 CURVE SMOOTH",
"41 209 LINE",
"41 15.5 LINE SMOOTH",
"41 4.5 OFFCURVE",
"50 -1 OFFCURVE",
"72 -1 CURVE SMOOTH"
);
}
);
width = 167.5;
}
);
unicode = 017F;
},
{
glyphname = t;
lastChange = "2015-01-29 02:55:36 +0000";
layers = (
{
anchors = (
{
name = bottom;
position = "{111.5, 0}";
},
{
name = caron;
position = "{96, 388}";
},
{
name = center;
position = "{88, 150.5}";
}
);
layerId = "30990018-E5AF-4C66-A976-C36FA03CF41D";
name = Regular;
paths = (
{
closed = 1;
nodes = (
"135.5 -3.5 OFFCURVE",
"159.5 -1.5 OFFCURVE",
"159.5 12 CURVE SMOOTH",
"159.5 16.5 OFFCURVE",
"155.5 36.5 OFFCURVE",
"148.5 36.5 CURVE SMOOTH",
"144 36.5 OFFCURVE",
"141 34.5 OFFCURVE",
"126 34.5 CURVE SMOOTH",
"111.5 34.5 OFFCURVE",
"98.5 41.5 OFFCURVE",
"98.5 72 CURVE SMOOTH",
"98.5 232.5 LINE",
"141.5 232.5 LINE SMOOTH",
"149 232.5 OFFCURVE",
"152 237.5 OFFCURVE",
"152 248 CURVE SMOOTH",
"152 254 LINE SMOOTH",
"152 265 OFFCURVE",
"149 269.5 OFFCURVE",
"141.5 269.5 CURVE SMOOTH",
"98.5 269.5 LINE",
"98.5 324 LINE SMOOTH",
"98.5 331 OFFCURVE",
"94 335.5 OFFCURVE",
"83 335.5 CURVE SMOOTH",
"78 335.5 LINE SMOOTH",
"67 335.5 OFFCURVE",
"62 331 OFFCURVE",
"61.5 324 CURVE SMOOTH",
"55.5 269.5 LINE",
"29.5 269.5 LINE SMOOTH",
"22 269.5 OFFCURVE",
"19 265 OFFCURVE",
"19 254 CURVE SMOOTH",
"19 248 LINE SMOOTH",
"19 237.5 OFFCURVE",
"22 232.5 OFFCURVE",
"29.5 232.5 CURVE SMOOTH",
"55.5 232.5 LINE",
"55.5 68 LINE SMOOTH",
"55.5 8.5 OFFCURVE",
"96 -3.5 OFFCURVE",
"122 -3.5 CURVE SMOOTH"
);
}
);
width = 176.5;
},
{
anchors = (
{
name = bottom;
position = "{103.5, 0}";
},
{
name = caron;
position = "{108.5, 388}";
},
{
name = center;
position = "{87.5, 150.5}";
}
);
layerId = "73D3DE9D-4D16-48FA-A6EF-561C99E37BFC";
name = Bold;
paths = (
{
closed = 1;
nodes = (
"131 -4 OFFCURVE",
"164.5 -3 OFFCURVE",
"164.5 21 CURVE SMOOTH",
"164.5 25.5 OFFCURVE",
"159 58 OFFCURVE",
"148.5 58 CURVE SMOOTH",
"145.5 58 OFFCURVE",
"139.5 56.5 OFFCURVE",
"134.5 56.5 CURVE SMOOTH",
"121 56.5 OFFCURVE",
"116 63 OFFCURVE",
"116 78.5 CURVE SMOOTH",
"116 209 LINE",
"141 209 LINE SMOOTH",
"152 209 OFFCURVE",
"156.5 217 OFFCURVE",
"156.5 235 CURVE SMOOTH",
"156.5 244 LINE SMOOTH",
"156.5 262 OFFCURVE",
"152 269.5 OFFCURVE",
"141 269.5 CURVE SMOOTH",
"116 269.5 LINE",
"116 319 LINE SMOOTH",
"116 330 OFFCURVE",
"108.5 335.5 OFFCURVE",
"90 335.5 CURVE SMOOTH",
"74 335.5 LINE SMOOTH",
"57 335.5 OFFCURVE",
"48 330 OFFCURVE",
"46.5 319 CURVE SMOOTH",
"40 269.5 LINE",
"31.5 269.5 LINE SMOOTH",
"20.5 269.5 OFFCURVE",
"16 262 OFFCURVE",
"16 244 CURVE SMOOTH",
"16 235 LINE SMOOTH",
"16 217 OFFCURVE",
"20.5 209 OFFCURVE",
"31.5 209 CURVE SMOOTH",
"40 209 LINE",
"40 79.5 LINE SMOOTH",
"40 22 OFFCURVE",
"66.5 -4 OFFCURVE",
"115 -4 CURVE SMOOTH"
);
}
);
width = 176.5;
}
);
unicode = 0074;
},
{
glyphname = u;
lastChange = "2015-01-29 02:55:36 +0000";
layers = (
{
anchors = (
{
name = bottom;
position = "{129.5, 0}";
},
{
name = horn;
position = "{220.5, 270.5}";
},
{
name = ogonek;
position = "{241.5, 5}";
},
{
name = top;
position = "{144, 269.5}";
}
);
hints = (
{
horizontal = 1;
origin = "{0, 38}";
target = "{0, 23}";
},
{
horizontal = 1;
origin = "{0, 31}";
target = down;
type = TopGhost;
},
{
horizontal = 1;
origin = "{0, 5}";
target = up;
type = BottomGhost;
},
{
origin = "{0, 35}";
target = "{0, 26}";
},
{
origin = "{0, 20}";
target = "{0, 11}";
}
);
layerId = "30990018-E5AF-4C66-A976-C36FA03CF41D";
name = Regular;
paths = (
{
closed = 1;
nodes = (
"151.5 -3.5 OFFCURVE",
"181.5 11.5 OFFCURVE",
"203 35.5 CURVE",
"206.5 21 OFFCURVE",
"208.5 -0.5 OFFCURVE",
"221.5 -0.5 CURVE SMOOTH",
"228 -0.5 OFFCURVE",
"249 1.5 OFFCURVE",
"249 11.5 CURVE SMOOTH",
"249 14 OFFCURVE",
"243 34.5 OFFCURVE",
"243 76.5 CURVE SMOOTH",
"243 259.5 LINE SMOOTH",
"243 267 OFFCURVE",
"237 270.5 OFFCURVE",
"222.5 270.5 CURVE SMOOTH",
"220.5 270.5 LINE SMOOTH",
"206 270.5 OFFCURVE",
"200 267 OFFCURVE",
"200 259.5 CURVE SMOOTH",
"200 71 LINE",
"182.5 48.5 OFFCURVE",
"157.5 34.5 OFFCURVE",
"134.5 34.5 CURVE SMOOTH",
"101.5 34.5 OFFCURVE",
"82 53 OFFCURVE",
"82 84.5 CURVE SMOOTH",
"82 259.5 LINE SMOOTH",
"82 267 OFFCURVE",
"76 270.5 OFFCURVE",
"61.5 270.5 CURVE SMOOTH",
"59 270.5 LINE SMOOTH",
"45 270.5 OFFCURVE",
"38.5 267 OFFCURVE",
"38.5 259.5 CURVE SMOOTH",
"38.5 80.5 LINE SMOOTH",
"38.5 28 OFFCURVE",
"70.5 -3.5 OFFCURVE",
"123 -3.5 CURVE SMOOTH"
);
}
);
width = 287.5;
},
{
anchors = (
{
name = bottom;
position = "{129.5, 0}";
},
{
name = horn;
position = "{210, 270.5}";
},
{
name = ogonek;
position = "{234, 5}";
},
{
name = top;
position = "{144, 269.5}";
}
);
hints = (
{
horizontal = 1;
origin = "{0, 5}";
target = up;
type = BottomGhost;
},
{
horizontal = 1;
origin = "{0, 31}";
target = down;
type = TopGhost;
},
{
horizontal = 1;
origin = "{0, 38}";
target = "{0, 23}";
},
{
origin = "{0, 35}";
target = "{0, 26}";
},
{
origin = "{0, 20}";
target = "{0, 11}";
}
);
layerId = "73D3DE9D-4D16-48FA-A6EF-561C99E37BFC";
name = Bold;
paths = (
{
closed = 1;
nodes = (
"140 -4 OFFCURVE",
"168.5 15.5 OFFCURVE",
"183 35 CURVE",
"186 21 OFFCURVE",
"187 -0.5 OFFCURVE",
"203.5 -0.5 CURVE SMOOTH",
"216.5 -0.5 OFFCURVE",
"262 4 OFFCURVE",
"262 16 CURVE SMOOTH",
"262 26.5 OFFCURVE",
"255 37.5 OFFCURVE",
"255 91 CURVE SMOOTH",
"255 254 LINE SMOOTH",
"255 265 OFFCURVE",
"246.5 270.5 OFFCURVE",
"224 270.5 CURVE SMOOTH",
"210 270.5 LINE SMOOTH",
"188 270.5 OFFCURVE",
"179 265 OFFCURVE",
"179 254 CURVE SMOOTH",
"179 88.5 LINE",
"172.5 77 OFFCURVE",
"159 58.5 OFFCURVE",
"138 58.5 CURVE SMOOTH",
"115 58.5 OFFCURVE",
"107 71 OFFCURVE",
"107 91 CURVE SMOOTH",
"107 254 LINE SMOOTH",
"107 265 OFFCURVE",
"97.5 270.5 OFFCURVE",
"76 270.5 CURVE SMOOTH",
"61.5 270.5 LINE SMOOTH",
"40 270.5 OFFCURVE",
"30.5 265 OFFCURVE",
"30.5 254 CURVE SMOOTH",
"30.5 79.5 LINE SMOOTH",
"30.5 22 OFFCURVE",
"55 -4 OFFCURVE",
"106.5 -4 CURVE SMOOTH"
);
}
);
width = 287.5;
}
);
unicode = 0075;
},
{
glyphname = v;
lastChange = "2015-01-29 02:55:36 +0000";
layers = (
{
layerId = "30990018-E5AF-4C66-A976-C36FA03CF41D";
name = Regular;
paths = (
{
closed = 1;
nodes = (
"134 -1 LINE SMOOTH",
"144.5 -1 OFFCURVE",
"153 1 OFFCURVE",
"155 7 CURVE SMOOTH",
"238 254.5 LINE SMOOTH",
"239 258 OFFCURVE",
"239 260 OFFCURVE",
"239 262 CURVE SMOOTH",
"239 268 OFFCURVE",
"233.5 270.5 OFFCURVE",
"220.5 270.5 CURVE",
"218.5 270.5 LINE",
"208 270.5 OFFCURVE",
"200 269 OFFCURVE",
"197.5 262.5 CURVE SMOOTH",
"144.5 97 LINE SMOOTH",
"138.5 77.5 OFFCURVE",
"133 51 OFFCURVE",
"129 34 CURVE",
"127 34 LINE",
"122.5 51 OFFCURVE",
"115.5 77.5 OFFCURVE",
"109 98 CURVE SMOOTH",
"56.5 262.5 LINE SMOOTH",
"54 269 OFFCURVE",
"46 270.5 OFFCURVE",
"35.5 270.5 CURVE SMOOTH",
"33 270.5 LINE SMOOTH",
"17.5 270.5 OFFCURVE",
"11 267.5 OFFCURVE",
"11 262 CURVE SMOOTH",
"11 260 OFFCURVE",
"11.5 257 OFFCURVE",
"12 255 CURVE SMOOTH",
"95 7 LINE SMOOTH",
"97.5 1 OFFCURVE",
"105.5 -1 OFFCURVE",
"116 -1 CURVE SMOOTH"
);
}
);
width = 250;
},
{
layerId = "73D3DE9D-4D16-48FA-A6EF-561C99E37BFC";
name = Bold;
paths = (
{
closed = 1;
nodes = (
"133 -1 LINE SMOOTH",
"148 -1 OFFCURVE",
"159.5 1.5 OFFCURVE",
"162 10 CURVE SMOOTH",
"244 250 LINE SMOOTH",
"245 254 OFFCURVE",
"246 257 OFFCURVE",
"246 259.5 CURVE SMOOTH",
"246 267 OFFCURVE",
"236.5 270.5 OFFCURVE",
"215 270.5 CURVE SMOOTH",
"201.5 270.5 LINE SMOOTH",
"186.5 270.5 OFFCURVE",
"175.5 268.5 OFFCURVE",
"172.5 260 CURVE SMOOTH",
"142 164.5 LINE SMOOTH",
"139 153 OFFCURVE",
"133 125 OFFCURVE",
"128 102.5 CURVE",
"125.5 102.5 LINE",
"120.5 125 OFFCURVE",
"115 152 OFFCURVE",
"111.5 164.5 CURVE SMOOTH",
"81 260 LINE SMOOTH",
"78.5 268.5 OFFCURVE",
"67 270.5 OFFCURVE",
"52 270.5 CURVE SMOOTH",
"35 270.5 LINE SMOOTH",
"13.5 270.5 OFFCURVE",
"4 267 OFFCURVE",
"4 259.5 CURVE SMOOTH",
"4 257 OFFCURVE",
"4.5 254 OFFCURVE",
"5.5 250 CURVE SMOOTH",
"87.5 10 LINE SMOOTH",
"90 1.5 OFFCURVE",
"102 -1 OFFCURVE",
"117 -1 CURVE SMOOTH"
);
}
);
width = 250;
}
);
leftKerningGroup = v;
rightKerningGroup = v;
unicode = 0076;
},
{
glyphname = w;
lastChange = "2015-01-29 02:55:36 +0000";
layers = (
{
anchors = (
{
name = top;
position = "{193, 269.5}";
}
);
layerId = "30990018-E5AF-4C66-A976-C36FA03CF41D";
name = Regular;
paths = (
{
closed = 1;
nodes = (
"122.5 -1 LINE SMOOTH",
"133 -1 OFFCURVE",
"141 1 OFFCURVE",
"143 7 CURVE SMOOTH",
"185.5 171 LINE SMOOTH",
"188 182.5 OFFCURVE",
"191 197.5 OFFCURVE",
"193 211 CURVE",
"195 197.5 OFFCURVE",
"197.5 182.5 OFFCURVE",
"201 170.5 CURVE SMOOTH",
"242 7 LINE SMOOTH",
"243.5 1 OFFCURVE",
"252 -1 OFFCURVE",
"262 -1 CURVE SMOOTH",
"277.5 -1 LINE SMOOTH",
"288 -1 OFFCURVE",
"296.5 1 OFFCURVE",
"298.5 7 CURVE SMOOTH",
"367.5 254.5 LINE SMOOTH",
"368 258 OFFCURVE",
"368.5 260 OFFCURVE",
"368.5 262 CURVE SMOOTH",
"368.5 268 OFFCURVE",
"362 270.5 OFFCURVE",
"348 270.5 CURVE SMOOTH",
"337.5 270.5 OFFCURVE",
"329 269 OFFCURVE",
"327 262.5 CURVE SMOOTH",
"284 97 LINE SMOOTH",
"279.5 81 OFFCURVE",
"275.5 57.5 OFFCURVE",
"272 39.5 CURVE",
"268.5 57.5 OFFCURVE",
"267 68.5 OFFCURVE",
"259 98 CURVE SMOOTH",
"216 262 LINE SMOOTH",
"213.5 269 OFFCURVE",
"206 270.5 OFFCURVE",
"195.5 270.5 CURVE SMOOTH",
"192 270.5 LINE SMOOTH",
"181.5 270.5 OFFCURVE",
"173 269 OFFCURVE",
"171.5 262 CURVE SMOOTH",
"129 98 LINE SMOOTH",
"124.5 81.5 OFFCURVE",
"119 57 OFFCURVE",
"116 38.5 CURVE",
"112 57.5 OFFCURVE",
"106.5 85 OFFCURVE",
"103 97.5 CURVE SMOOTH",
"60 262.5 LINE SMOOTH",
"58 269 OFFCURVE",
"49.5 270.5 OFFCURVE",
"39.5 270.5 CURVE SMOOTH",
"22 270.5 OFFCURVE",
"15.5 267.5 OFFCURVE",
"15.5 262 CURVE SMOOTH",
"15.5 260 OFFCURVE",
"17 254.5 OFFCURVE",
"18.5 252 CURVE SMOOTH",
"86.5 7 LINE",
"87.5 1 OFFCURVE",
"96.5 -1 OFFCURVE",
"107 -1 CURVE SMOOTH"
);
}
);
width = 385;
},
{
anchors = (
{
name = top;
position = "{193, 269.5}";
}
);
layerId = "73D3DE9D-4D16-48FA-A6EF-561C99E37BFC";
name = Bold;
paths = (
{
closed = 1;
nodes = (
"129 -1 LINE SMOOTH",
"143.5 -1 OFFCURVE",
"155.5 3 OFFCURVE",
"157 10 CURVE SMOOTH",
"186.5 132.5 LINE",
"188.5 140 OFFCURVE",
"190.5 147 OFFCURVE",
"192.5 155 CURVE",
"194.5 148 OFFCURVE",
"196 140 OFFCURVE",
"198 133 CURVE",
"229.5 10 LINE SMOOTH",
"231.5 3 OFFCURVE",
"241.5 -1 OFFCURVE",
"258 -1 CURVE SMOOTH",
"283.5 -1 LINE SMOOTH",
"298 -1 OFFCURVE",
"309.5 3 OFFCURVE",
"311.5 10 CURVE SMOOTH",
"372.5 249.5 LINE SMOOTH",
"373 253 OFFCURVE",
"373.5 255 OFFCURVE",
"373.5 257.5 CURVE SMOOTH",
"373.5 265.5 OFFCURVE",
"363.5 270.5 OFFCURVE",
"341.5 270.5 CURVE SMOOTH",
"322.5 270.5 OFFCURVE",
"313.5 267.5 OFFCURVE",
"311 260 CURVE SMOOTH",
"275.5 124 LINE",
"273.5 116 OFFCURVE",
"271 109 OFFCURVE",
"269.5 101.5 CURVE",
"268 108.5 OFFCURVE",
"265.5 115 OFFCURVE",
"264 122.5 CURVE",
"231.5 260 LINE SMOOTH",
"229.5 267.5 OFFCURVE",
"217 270.5 OFFCURVE",
"202.5 270.5 CURVE SMOOTH",
"190.5 270.5 LINE SMOOTH",
"174 270.5 OFFCURVE",
"163.5 267.5 OFFCURVE",
"162 260 CURVE SMOOTH",
"129 125 LINE",
"127 117.5 OFFCURVE",
"125 109.5 OFFCURVE",
"123 101.5 CURVE",
"120.5 109 OFFCURVE",
"119 116 OFFCURVE",
"117.5 124 CURVE",
"82 260 LINE SMOOTH",
"79.5 268 OFFCURVE",
"69 270.5 OFFCURVE",
"41.5 270.5 CURVE SMOOTH",
"19 270.5 OFFCURVE",
"9.5 265.5 OFFCURVE",
"9.5 257.5 CURVE SMOOTH",
"9.5 255 OFFCURVE",
"9.5 253 OFFCURVE",
"10.5 249.5 CURVE SMOOTH",
"75.5 10 LINE SMOOTH",
"77.5 3 OFFCURVE",
"87 -1 OFFCURVE",
"103.5 -1 CURVE SMOOTH"
);
}
);
width = 385;
}
);
leftKerningGroup = v;
rightKerningGroup = v;
unicode = 0077;
},
{
glyphname = x;
lastChange = "2015-01-29 02:55:36 +0000";
layers = (
{
layerId = "30990018-E5AF-4C66-A976-C36FA03CF41D";
name = Regular;
paths = (
{
closed = 1;
nodes = (
"34.5 -1 LINE",
"44.5 -1 OFFCURVE",
"53 0.5 OFFCURVE",
"57 6 CURVE SMOOTH",
"113 88.5 LINE SMOOTH",
"119 98 OFFCURVE",
"122 103 OFFCURVE",
"124 107 CURVE",
"125.5 103 OFFCURVE",
"128.5 98 OFFCURVE",
"134.5 88.5 CURVE SMOOTH",
"189.5 6.5 LINE SMOOTH",
"193 0.5 OFFCURVE",
"201 -1 OFFCURVE",
"211.5 -1 CURVE SMOOTH",
"216.5 -1 LINE SMOOTH",
"233.5 -1 OFFCURVE",
"239.5 2 OFFCURVE",
"239.5 7.5 CURVE SMOOTH",
"239.5 10.5 OFFCURVE",
"238.5 13.5 OFFCURVE",
"236 17 CURVE SMOOTH",
"152 139.5 LINE",
"230.5 253 LINE SMOOTH",
"232.5 256.5 OFFCURVE",
"234 259.5 OFFCURVE",
"234 262 CURVE SMOOTH",
"234 268.5 OFFCURVE",
"228 270.5 OFFCURVE",
"212.5 270.5 CURVE",
"210.5 270.5 LINE",
"200.5 270.5 OFFCURVE",
"191 269.5 OFFCURVE",
"187 263.5 CURVE SMOOTH",
"138 189.5 LINE SMOOTH",
"131.5 180 OFFCURVE",
"129 175 OFFCURVE",
"127 171 CURVE",
"125 175 OFFCURVE",
"122.5 180 OFFCURVE",
"116 189.5 CURVE SMOOTH",
"67 263 LINE SMOOTH",
"63 269.5 OFFCURVE",
"56 270.5 OFFCURVE",
"45 270.5 CURVE SMOOTH",
"40.5 270.5 LINE SMOOTH",
"22.5 270.5 OFFCURVE",
"16.5 268 OFFCURVE",
"16.5 262 CURVE SMOOTH",
"16.5 259.5 OFFCURVE",
"18.5 256.5 OFFCURVE",
"20.5 253 CURVE SMOOTH",
"98 138.5 LINE",
"14.5 17 LINE SMOOTH",
"11.5 13.5 OFFCURVE",
"10.5 10.5 OFFCURVE",
"10.5 7.5 CURVE SMOOTH",
"10.5 1.5 OFFCURVE",
"16.5 -1 OFFCURVE",
"32.5 -1 CURVE"
);
}
);
width = 250;
},
{
layerId = "73D3DE9D-4D16-48FA-A6EF-561C99E37BFC";
name = Bold;
paths = (
{
closed = 1;
nodes = (
"50.5 -1 LINE SMOOTH",
"65.5 -1 OFFCURVE",
"76.5 -0.5 OFFCURVE",
"82 9 CURVE SMOOTH",
"118 65.5 LINE SMOOTH",
"120 69 OFFCURVE",
"123 72.5 OFFCURVE",
"125 76.5 CURVE",
"127 72.5 OFFCURVE",
"129.5 69 OFFCURVE",
"131.5 65.5 CURVE SMOOTH",
"167 9 LINE SMOOTH",
"172.5 -0.5 OFFCURVE",
"184 -1 OFFCURVE",
"198.5 -1 CURVE SMOOTH",
"215.5 -1 LINE SMOOTH",
"237.5 -1 OFFCURVE",
"247.5 3 OFFCURVE",
"247.5 8.5 CURVE SMOOTH",
"247.5 11.5 OFFCURVE",
"246 16 OFFCURVE",
"242 21.5 CURVE SMOOTH",
"165.5 137.5 LINE",
"241 248.5 LINE SMOOTH",
"244.5 254 OFFCURVE",
"246.5 258.5 OFFCURVE",
"246.5 262 CURVE SMOOTH",
"246.5 267.5 OFFCURVE",
"236.5 270.5 OFFCURVE",
"214 270.5 CURVE SMOOTH",
"199.5 270.5 LINE SMOOTH",
"184.5 270.5 OFFCURVE",
"173 270 OFFCURVE",
"167.5 261.5 CURVE SMOOTH",
"135.5 211 LINE SMOOTH",
"133 206.5 OFFCURVE",
"130 202 OFFCURVE",
"127 197.5 CURVE",
"124.5 201.5 OFFCURVE",
"122 206 OFFCURVE",
"119 210 CURVE SMOOTH",
"87.5 261.5 LINE SMOOTH",
"82 270 OFFCURVE",
"71.5 270.5 OFFCURVE",
"56.5 270.5 CURVE SMOOTH",
"40 270.5 LINE SMOOTH",
"17.5 270.5 OFFCURVE",
"7 267.5 OFFCURVE",
"7 262 CURVE SMOOTH",
"7 258 OFFCURVE",
"9.5 254 OFFCURVE",
"12.5 248 CURVE SMOOTH",
"86.5 136.5 LINE",
"8.5 21 LINE SMOOTH",
"4.5 15.5 OFFCURVE",
"3 11.5 OFFCURVE",
"3 8.5 CURVE SMOOTH",
"3 3 OFFCURVE",
"12.5 -1 OFFCURVE",
"35 -1 CURVE SMOOTH"
);
}
);
width = 250;
}
);
unicode = 0078;
},
{
glyphname = y;
lastChange = "2015-01-29 02:55:36 +0000";
layers = (
{
anchors = (
{
name = bottom;
position = "{178, 0}";
},
{
name = top;
position = "{124.5, 269.5}";
}
);
layerId = "30990018-E5AF-4C66-A976-C36FA03CF41D";
name = Regular;
paths = (
{
closed = 1;
nodes = (
"79.5 -107.5 LINE SMOOTH",
"92.5 -107.5 OFFCURVE",
"101.5 -104 OFFCURVE",
"104 -96.5 CURVE SMOOTH",
"237 254.5 LINE SMOOTH",
"238 258 OFFCURVE",
"238.5 260 OFFCURVE",
"238.5 262 CURVE SMOOTH",
"238.5 268 OFFCURVE",
"232 270.5 OFFCURVE",
"217.5 270.5 CURVE",
"216.5 270.5 LINE",
"205.5 270.5 OFFCURVE",
"197 269 OFFCURVE",
"195 262.5 CURVE SMOOTH",
"143.5 123 LINE SMOOTH",
"137.5 107 OFFCURVE",
"131.5 87 OFFCURVE",
"126 71 CURVE",
"125 71 LINE",
"120.5 87.5 OFFCURVE",
"115 105.5 OFFCURVE",
"109 123 CURVE SMOOTH",
"56.5 262.5 LINE SMOOTH",
"53.5 269 OFFCURVE",
"46 270.5 OFFCURVE",
"35.5 270.5 CURVE SMOOTH",
"31.5 270.5 LINE SMOOTH",
"16 270.5 OFFCURVE",
"9.5 267.5 OFFCURVE",
"9.5 262 CURVE SMOOTH",
"9.5 260 OFFCURVE",
"10.5 257 OFFCURVE",
"11 255 CURVE SMOOTH",
"101.5 14.5 LINE",
"57.5 -90 LINE",
"55.5 -97 OFFCURVE",
"55.5 -98 OFFCURVE",
"55.5 -99 CURVE SMOOTH",
"55.5 -104 OFFCURVE",
"61 -107.5 OFFCURVE",
"72 -107.5 CURVE SMOOTH"
);
}
);
width = 248;
},
{
anchors = (
{
name = bottom;
position = "{186, 0}";
},
{
name = top;
position = "{124.5, 269.5}";
}
);
layerId = "73D3DE9D-4D16-48FA-A6EF-561C99E37BFC";
name = Bold;
paths = (
{
closed = 1;
nodes = (
"97.5 -106.5 LINE SMOOTH",
"112.5 -106.5 OFFCURVE",
"123.5 -103.5 OFFCURVE",
"126 -95 CURVE SMOOTH",
"244.5 250 LINE SMOOTH",
"246 254 OFFCURVE",
"246.5 257 OFFCURVE",
"246.5 259.5 CURVE SMOOTH",
"246.5 267 OFFCURVE",
"237 270.5 OFFCURVE",
"215.5 270.5 CURVE SMOOTH",
"202.5 270.5 LINE SMOOTH",
"187.5 270.5 OFFCURVE",
"176.5 268.5 OFFCURVE",
"174 260 CURVE SMOOTH",
"143.5 164.5 LINE SMOOTH",
"140 153.5 OFFCURVE",
"133.5 124.5 OFFCURVE",
"129 102.5 CURVE",
"127 102.5 LINE",
"122.5 124.5 OFFCURVE",
"116 153 OFFCURVE",
"112.5 164.5 CURVE SMOOTH",
"82 260 LINE SMOOTH",
"79.5 268.5 OFFCURVE",
"68 270.5 OFFCURVE",
"53 270.5 CURVE SMOOTH",
"36.5 270.5 LINE SMOOTH",
"15 270.5 OFFCURVE",
"5 267 OFFCURVE",
"5 259.5 CURVE SMOOTH",
"5 257 OFFCURVE",
"6 254 OFFCURVE",
"7 250 CURVE SMOOTH",
"92.5 0 LINE",
"60 -86.5 LINE SMOOTH",
"58 -89.5 OFFCURVE",
"57.5 -93 OFFCURVE",
"57.5 -95 CURVE SMOOTH",
"57.5 -102.5 OFFCURVE",
"67.5 -106.5 OFFCURVE",
"88.5 -106.5 CURVE SMOOTH"
);
}
);
width = 248;
}
);
rightKerningGroup = v;
unicode = 0079;
},
{
glyphname = z;
lastChange = "2015-01-29 02:55:36 +0000";
layers = (
{
anchors = (
{
name = bottom;
position = "{123, 0}";
},
{
name = top;
position = "{126, 269.5}";
}
);
layerId = "30990018-E5AF-4C66-A976-C36FA03CF41D";
name = Regular;
paths = (
{
closed = 1;
nodes = (
"221.5 0 LINE SMOOTH",
"228.5 0 OFFCURVE",
"231.5 4.5 OFFCURVE",
"231.5 15.5 CURVE SMOOTH",
"231.5 21.5 LINE SMOOTH",
"231.5 32.5 OFFCURVE",
"228.5 37 OFFCURVE",
"221.5 37 CURVE SMOOTH",
"79.5 37 LINE",
"230.5 238 LINE SMOOTH",
"231 239 OFFCURVE",
"231.5 240 OFFCURVE",
"231.5 243 CURVE SMOOTH",
"231.5 252.5 OFFCURVE",
"226 269.5 OFFCURVE",
"221 269.5 CURVE SMOOTH",
"40 269.5 LINE SMOOTH",
"32.5 269.5 OFFCURVE",
"29.5 265 OFFCURVE",
"29.5 254 CURVE SMOOTH",
"29.5 248 LINE SMOOTH",
"29.5 237.5 OFFCURVE",
"32.5 232.5 OFFCURVE",
"40 232.5 CURVE SMOOTH",
"171.5 232.5 LINE",
"20.5 32 LINE SMOOTH",
"19.5 30.5 OFFCURVE",
"19 28 OFFCURVE",
"19 26.5 CURVE SMOOTH",
"19 16 OFFCURVE",
"26.5 0 OFFCURVE",
"30.5 0 CURVE"
);
}
);
width = 252.5;
},
{
anchors = (
{
name = bottom;
position = "{124.5, 0}";
},
{
name = top;
position = "{126, 269.5}";
}
);
layerId = "73D3DE9D-4D16-48FA-A6EF-561C99E37BFC";
name = Bold;
paths = (
{
closed = 1;
nodes = (
"222 0 LINE SMOOTH",
"232.5 0 OFFCURVE",
"237.5 7.5 OFFCURVE",
"237.5 26 CURVE SMOOTH",
"237.5 34.5 LINE SMOOTH",
"237.5 52.5 OFFCURVE",
"232.5 60.5 OFFCURVE",
"222 60.5 CURVE SMOOTH",
"116 60.5 LINE",
"233.5 222.5 LINE SMOOTH",
"234.5 223.5 OFFCURVE",
"235 226.5 OFFCURVE",
"235 230.5 CURVE SMOOTH",
"235 244.5 OFFCURVE",
"226 269.5 OFFCURVE",
"220.5 269.5 CURVE SMOOTH",
"37.5 269.5 LINE SMOOTH",
"26.5 269.5 OFFCURVE",
"22 262 OFFCURVE",
"22 244 CURVE SMOOTH",
"22 235 LINE SMOOTH",
"22 217 OFFCURVE",
"26.5 209 OFFCURVE",
"37.5 209 CURVE SMOOTH",
"133.5 209 LINE",
"15.5 46.5 LINE SMOOTH",
"14.5 45 OFFCURVE",
"14 42 OFFCURVE",
"14 39.5 CURVE SMOOTH",
"14 26 OFFCURVE",
"22 0 OFFCURVE",
"29 0 CURVE"
);
}
);
width = 252.5;
}
);
unicode = 007A;
},
{
glyphname = y.loclGUA;
lastChange = "2015-01-29 02:55:36 +0000";
layers = (
{
anchors = (
{
name = bottom;
position = "{269, 0}";
},
{
name = top;
position = "{144, 269.5}";
}
);
layerId = "30990018-E5AF-4C66-A976-C36FA03CF41D";
name = Regular;
paths = (
{
closed = 1;
nodes = (
"208 -109.5 OFFCURVE",
"243 -72 OFFCURVE",
"243 51 CURVE SMOOTH",
"243 259.5 LINE SMOOTH",
"243 267 OFFCURVE",
"237 270.5 OFFCURVE",
"222.5 270.5 CURVE SMOOTH",
"220.5 270.5 LINE SMOOTH",
"206 270.5 OFFCURVE",
"200 267 OFFCURVE",
"200 259.5 CURVE SMOOTH",
"200 71 LINE",
"182.5 48.5 OFFCURVE",
"157.5 34.5 OFFCURVE",
"134.5 34.5 CURVE SMOOTH",
"101.5 34.5 OFFCURVE",
"82 53 OFFCURVE",
"82 84.5 CURVE SMOOTH",
"82 259.5 LINE SMOOTH",
"82 267 OFFCURVE",
"76 270.5 OFFCURVE",
"61.5 270.5 CURVE SMOOTH",
"59 270.5 LINE SMOOTH",
"45 270.5 OFFCURVE",
"38.5 267 OFFCURVE",
"38.5 259.5 CURVE SMOOTH",
"38.5 80.5 LINE SMOOTH",
"38.5 28 OFFCURVE",
"70.5 -3.5 OFFCURVE",
"123 -3.5 CURVE SMOOTH",
"154.5 -3.5 OFFCURVE",
"187 14.5 OFFCURVE",
"208.5 42.5 CURVE",
"200.5 53.5 LINE",
"200.5 32 LINE",
"200.5 -42.5 OFFCURVE",
"175 -72 OFFCURVE",
"130 -72 CURVE SMOOTH",
"76.5 -72 OFFCURVE",
"52 -44.5 OFFCURVE",
"46 -44.5 CURVE SMOOTH",
"43.5 -44.5 OFFCURVE",
"41 -46.5 OFFCURVE",
"41 -60 CURVE SMOOTH",
"41 -63.5 OFFCURVE",
"41 -67.5 OFFCURVE",
"41.5 -72.5 CURVE SMOOTH",
"43 -88 OFFCURVE",
"81.5 -109.5 OFFCURVE",
"134 -109.5 CURVE SMOOTH"
);
}
);
width = 287.5;
},
{
anchors = (
{
name = bottom;
position = "{274, 0}";
},
{
name = top;
position = "{144, 269.5}";
}
);
layerId = "73D3DE9D-4D16-48FA-A6EF-561C99E37BFC";
name = Bold;
paths = (
{
closed = 1;
nodes = (
"221 -109.5 OFFCURVE",
"256.5 -57 OFFCURVE",
"255 48 CURVE",
"255 254 LINE SMOOTH",
"255 265 OFFCURVE",
"246.5 270.5 OFFCURVE",
"224 270.5 CURVE SMOOTH",
"210 270.5 LINE SMOOTH",
"188 270.5 OFFCURVE",
"179 265 OFFCURVE",
"179 254 CURVE SMOOTH",
"179 88.5 LINE",
"172.5 77 OFFCURVE",
"159 58.5 OFFCURVE",
"138 58.5 CURVE SMOOTH",
"115 58.5 OFFCURVE",
"107 71 OFFCURVE",
"107 91 CURVE SMOOTH",
"107 254 LINE SMOOTH",
"107 265 OFFCURVE",
"97.5 270.5 OFFCURVE",
"76 270.5 CURVE SMOOTH",
"61.5 270.5 LINE SMOOTH",
"40 270.5 OFFCURVE",
"30.5 265 OFFCURVE",
"30.5 254 CURVE SMOOTH",
"30.5 79.5 LINE SMOOTH",
"30.5 22 OFFCURVE",
"55 -4 OFFCURVE",
"106.5 -4 CURVE SMOOTH",
"148.5 -4 OFFCURVE",
"182.5 26.5 OFFCURVE",
"192 50 CURVE",
"183 69.5 LINE",
"183 17 LINE SMOOTH",
"183 -25.5 OFFCURVE",
"158.5 -49.5 OFFCURVE",
"118.5 -49.5 CURVE SMOOTH",
"78.5 -49.5 OFFCURVE",
"52.5 -27.5 OFFCURVE",
"46.5 -27.5 CURVE SMOOTH",
"42.5 -27.5 OFFCURVE",
"40 -33 OFFCURVE",
"40 -48.5 CURVE SMOOTH",
"40 -55 OFFCURVE",
"40.5 -63 OFFCURVE",
"41.5 -72.5 CURVE SMOOTH",
"43 -94.5 OFFCURVE",
"87.5 -109.5 OFFCURVE",
"140.5 -109.5 CURVE SMOOTH"
);
}
);
width = 287.5;
}
);
},
{
glyphname = g.ss01;
lastChange = "2015-01-29 02:55:36 +0000";
layers = (
{
anchors = (
{
name = top;
position = "{134, 269.5}";
}
);
layerId = "30990018-E5AF-4C66-A976-C36FA03CF41D";
name = Regular;
paths = (
{
closed = 1;
nodes = (
"203.5 -109.5 OFFCURVE",
"239 -72 OFFCURVE",
"239 51 CURVE SMOOTH",
"239 260 LINE",
"238.5 267 OFFCURVE",
"235 270.5 OFFCURVE",
"224.5 270.5 CURVE SMOOTH",
"222 270.5 LINE SMOOTH",
"207.5 270.5 OFFCURVE",
"205.5 260 OFFCURVE",
"201.5 245 CURVE",
"188.5 255.5 OFFCURVE",
"163.5 273 OFFCURVE",
"130.5 273 CURVE SMOOTH",
"60 273 OFFCURVE",
"17.5 217 OFFCURVE",
"17.5 135.5 CURVE SMOOTH",
"17.5 72 OFFCURVE",
"45.5 0 OFFCURVE",
"119 0 CURVE SMOOTH",
"154.5 0 OFFCURVE",
"186 19.5 OFFCURVE",
"202 72 CURVE",
"196 78.5 LINE",
"196 43 LINE",
"196 -40 OFFCURVE",
"173 -72 OFFCURVE",
"125.5 -72 CURVE SMOOTH",
"72 -72 OFFCURVE",
"48 -44.5 OFFCURVE",
"41.5 -44.5 CURVE SMOOTH",
"40 -44.5 OFFCURVE",
"36.5 -46.5 OFFCURVE",
"36.5 -60 CURVE SMOOTH",
"36.5 -63.5 OFFCURVE",
"36.5 -67.5 OFFCURVE",
"37 -72.5 CURVE SMOOTH",
"39.5 -88 OFFCURVE",
"77.5 -109.5 OFFCURVE",
"130 -109.5 CURVE SMOOTH"
);
},
{
closed = 1;
nodes = (
"73.5 37.5 OFFCURVE",
"62 90 OFFCURVE",
"62 140.5 CURVE SMOOTH",
"62 191.5 OFFCURVE",
"79.5 235 OFFCURVE",
"139 235 CURVE SMOOTH",
"165.5 235 OFFCURVE",
"186 223 OFFCURVE",
"197 215.5 CURVE",
"196.5 207 OFFCURVE",
"195.5 198.5 OFFCURVE",
"195.5 189.5 CURVE",
"195.5 125.5 LINE",
"181 57 OFFCURVE",
"148 37.5 OFFCURVE",
"125 37.5 CURVE SMOOTH"
);
}
);
width = 281.5;
},
{
anchors = (
{
name = top;
position = "{129.5, 269.5}";
}
);
layerId = "73D3DE9D-4D16-48FA-A6EF-561C99E37BFC";
name = Bold;
paths = (
{
closed = 1;
nodes = (
"216 -109.5 OFFCURVE",
"249.5 -57 OFFCURVE",
"249.5 48 CURVE SMOOTH",
"249.5 258 LINE",
"249 266 OFFCURVE",
"239 270.5 OFFCURVE",
"218 270.5 CURVE SMOOTH",
"212 270.5 LINE SMOOTH",
"186 270 OFFCURVE",
"185 265 OFFCURVE",
"180.5 247 CURVE",
"169 257.5 OFFCURVE",
"145 274 OFFCURVE",
"116 274 CURVE SMOOTH",
"52.5 274 OFFCURVE",
"11.5 220.5 OFFCURVE",
"11.5 138.5 CURVE SMOOTH",
"11.5 83.5 OFFCURVE",
"31.5 2 OFFCURVE",
"113.5 2 CURVE SMOOTH",
"148 2 OFFCURVE",
"174 25 OFFCURVE",
"183 51 CURVE",
"173 67 LINE",
"173 17 LINE SMOOTH",
"174 -25.5 OFFCURVE",
"153.5 -49.5 OFFCURVE",
"113.5 -49.5 CURVE SMOOTH",
"73 -49.5 OFFCURVE",
"47.5 -27.5 OFFCURVE",
"41.5 -27.5 CURVE SMOOTH",
"37.5 -27.5 OFFCURVE",
"34.5 -33 OFFCURVE",
"34.5 -48.5 CURVE SMOOTH",
"34.5 -55 OFFCURVE",
"35 -63 OFFCURVE",
"36 -72.5 CURVE SMOOTH",
"38 -94.5 OFFCURVE",
"82 -109.5 OFFCURVE",
"135 -109.5 CURVE SMOOTH"
);
},
{
closed = 1;
nodes = (
"95 64 OFFCURVE",
"88.5 104 OFFCURVE",
"88.5 139 CURVE SMOOTH",
"88.5 187.5 OFFCURVE",
"107.5 213.5 OFFCURVE",
"140 213.5 CURVE SMOOTH",
"154 213.5 OFFCURVE",
"165.5 207.5 OFFCURVE",
"175 200.5 CURVE",
"174.5 193.5 OFFCURVE",
"173 182 OFFCURVE",
"173 167.5 CURVE",
"173 94.5 LINE",
"164.5 78.5 OFFCURVE",
"153 64 OFFCURVE",
"136 64 CURVE SMOOTH"
);
}
);
width = 281.5;
}
);
},
{
glyphname = fi;
lastChange = "2015-01-29 02:55:36 +0000";
layers = (
{
layerId = "30990018-E5AF-4C66-A976-C36FA03CF41D";
name = Regular;
paths = (
{
closed = 1;
nodes = (
"78.5 -1 LINE SMOOTH",
"93 -1 OFFCURVE",
"99 3.5 OFFCURVE",
"99 10.5 CURVE SMOOTH",
"99 232.5 LINE",
"144 232.5 LINE SMOOTH",
"151 232.5 OFFCURVE",
"154.5 237.5 OFFCURVE",
"154.5 248 CURVE SMOOTH",
"154.5 254 LINE SMOOTH",
"154.5 265 OFFCURVE",
"151 269.5 OFFCURVE",
"144 269.5 CURVE SMOOTH",
"99 269.5 LINE",
"99 315 LINE SMOOTH",
"99 348.5 OFFCURVE",
"112 352.5 OFFCURVE",
"127 352.5 CURVE SMOOTH",
"141.5 352.5 OFFCURVE",
"144.5 350.5 OFFCURVE",
"149 350.5 CURVE SMOOTH",
"156 350.5 OFFCURVE",
"160 370.5 OFFCURVE",
"160 374.5 CURVE SMOOTH",
"160 388.5 OFFCURVE",
"136 390 OFFCURVE",
"122.5 390 CURVE SMOOTH",
"96.5 390 OFFCURVE",
"56 380.5 OFFCURVE",
"56 319 CURVE SMOOTH",
"56 269.5 LINE",
"35 269.5 LINE SMOOTH",
"27.5 269.5 OFFCURVE",
"25 265 OFFCURVE",
"25 254 CURVE SMOOTH",
"25 248 LINE SMOOTH",
"25 237.5 OFFCURVE",
"27.5 232.5 OFFCURVE",
"35 232.5 CURVE SMOOTH",
"56 232.5 LINE",
"56 10.5 LINE SMOOTH",
"56 3.5 OFFCURVE",
"62 -1 OFFCURVE",
"76.5 -1 CURVE SMOOTH"
);
},
{
closed = 1;
nodes = (
"223.5 -1 LINE SMOOTH",
"238 -1 OFFCURVE",
"244 3.5 OFFCURVE",
"244 10.5 CURVE SMOOTH",
"244 259.5 LINE SMOOTH",
"244 267 OFFCURVE",
"238 270.5 OFFCURVE",
"223.5 270.5 CURVE SMOOTH",
"221.5 270.5 LINE SMOOTH",
"207 270.5 OFFCURVE",
"201 267 OFFCURVE",
"201 259.5 CURVE SMOOTH",
"201 10.5 LINE SMOOTH",
"201 3.5 OFFCURVE",
"207 -1 OFFCURVE",
"221.5 -1 CURVE SMOOTH"
);
},
{
closed = 1;
nodes = (
"225.5 335 LINE SMOOTH",
"239.5 335 OFFCURVE",
"246.5 338.5 OFFCURVE",
"246.5 346 CURVE SMOOTH",
"246.5 376.5 LINE SMOOTH",
"246.5 383.5 OFFCURVE",
"239.5 388 OFFCURVE",
"225.5 388 CURVE SMOOTH",
"219 388 LINE SMOOTH",
"205 388 OFFCURVE",
"198.5 383.5 OFFCURVE",
"198.5 376.5 CURVE SMOOTH",
"198.5 346 LINE SMOOTH",
"198.5 338.5 OFFCURVE",
"205 335 OFFCURVE",
"219 335 CURVE"
);
}
);
width = 290.5;
},
{
layerId = "73D3DE9D-4D16-48FA-A6EF-561C99E37BFC";
name = Bold;
paths = (
{
closed = 1;
nodes = (
"79 -1 LINE SMOOTH",
"100.5 -1 OFFCURVE",
"110 4.5 OFFCURVE",
"110 15.5 CURVE SMOOTH",
"110 209 LINE",
"135.5 209 LINE SMOOTH",
"146.5 209 OFFCURVE",
"151 217 OFFCURVE",
"151 235 CURVE SMOOTH",
"151 244 LINE SMOOTH",
"151 262 OFFCURVE",
"146.5 269.5 OFFCURVE",
"135.5 269.5 CURVE SMOOTH",
"110 269.5 LINE",
"110 309.5 LINE SMOOTH",
"110 325 OFFCURVE",
"115 331.5 OFFCURVE",
"128.5 331.5 CURVE SMOOTH",
"133.5 331.5 OFFCURVE",
"140.5 330 OFFCURVE",
"144.5 330 CURVE SMOOTH",
"155 330 OFFCURVE",
"160.5 362.5 OFFCURVE",
"160.5 367 CURVE SMOOTH",
"160.5 391 OFFCURVE",
"125 392 OFFCURVE",
"109 392 CURVE SMOOTH",
"60.5 392 OFFCURVE",
"34 366 OFFCURVE",
"34 308.5 CURVE SMOOTH",
"34 269.5 LINE",
"24.5 269.5 LINE SMOOTH",
"13.5 269.5 OFFCURVE",
"9 262 OFFCURVE",
"9 244 CURVE SMOOTH",
"9 235 LINE SMOOTH",
"9 217 OFFCURVE",
"13.5 209 OFFCURVE",
"24.5 209 CURVE SMOOTH",
"34 209 LINE",
"34 15.5 LINE SMOOTH",
"34 4.5 OFFCURVE",
"42.5 -1 OFFCURVE",
"64 -1 CURVE SMOOTH"
);
},
{
closed = 1;
nodes = (
"229.5 -1 LINE SMOOTH",
"251.5 -1 OFFCURVE",
"260.5 4.5 OFFCURVE",
"260.5 15.5 CURVE SMOOTH",
"260.5 254 LINE SMOOTH",
"260.5 265 OFFCURVE",
"251.5 270.5 OFFCURVE",
"229.5 270.5 CURVE SMOOTH",
"215.5 270.5 LINE SMOOTH",
"193 270.5 OFFCURVE",
"184.5 265 OFFCURVE",
"184.5 254 CURVE SMOOTH",
"184.5 15.5 LINE SMOOTH",
"184.5 4.5 OFFCURVE",
"193 -1 OFFCURVE",
"215.5 -1 CURVE SMOOTH"
);
},
{
closed = 1;
nodes = (
"229.5 314.5 LINE SMOOTH",
"251.5 314.5 OFFCURVE",
"260.5 320 OFFCURVE",
"260.5 330.5 CURVE SMOOTH",
"260.5 372.5 LINE SMOOTH",
"260.5 383 OFFCURVE",
"251.5 389 OFFCURVE",
"229.5 389 CURVE SMOOTH",
"215.5 389 LINE SMOOTH",
"193 389 OFFCURVE",
"184.5 383 OFFCURVE",
"184.5 372.5 CURVE SMOOTH",
"184.5 330.5 LINE SMOOTH",
"184.5 320 OFFCURVE",
"193 314.5 OFFCURVE",
"215.5 314.5 CURVE"
);
}
);
width = 290.5;
}
);
unicode = FB01;
},
{
glyphname = fl;
lastChange = "2015-01-29 02:55:36 +0000";
layers = (
{
layerId = "30990018-E5AF-4C66-A976-C36FA03CF41D";
name = Regular;
paths = (
{
closed = 1;
nodes = (
"78.5 -1 LINE SMOOTH",
"93 -1 OFFCURVE",
"99 3.5 OFFCURVE",
"99 10.5 CURVE SMOOTH",
"99 232.5 LINE",
"144 232.5 LINE SMOOTH",
"151 232.5 OFFCURVE",
"154.5 237.5 OFFCURVE",
"154.5 248 CURVE SMOOTH",
"154.5 254 LINE SMOOTH",
"154.5 265 OFFCURVE",
"151 269.5 OFFCURVE",
"144 269.5 CURVE SMOOTH",
"99 269.5 LINE",
"99 315 LINE SMOOTH",
"99 348.5 OFFCURVE",
"112 352.5 OFFCURVE",
"127 352.5 CURVE SMOOTH",
"141.5 352.5 OFFCURVE",
"144.5 350.5 OFFCURVE",
"149 350.5 CURVE SMOOTH",
"156 350.5 OFFCURVE",
"160 370.5 OFFCURVE",
"160 374.5 CURVE SMOOTH",
"160 388.5 OFFCURVE",
"136 390 OFFCURVE",
"122.5 390 CURVE SMOOTH",
"96.5 390 OFFCURVE",
"56 380.5 OFFCURVE",
"56 319 CURVE SMOOTH",
"56 269.5 LINE",
"35 269.5 LINE SMOOTH",
"27.5 269.5 OFFCURVE",
"25 265 OFFCURVE",
"25 254 CURVE SMOOTH",
"25 248 LINE SMOOTH",
"25 237.5 OFFCURVE",
"27.5 232.5 OFFCURVE",
"35 232.5 CURVE SMOOTH",
"56 232.5 LINE",
"56 10.5 LINE SMOOTH",
"56 3.5 OFFCURVE",
"62 -1 OFFCURVE",
"76.5 -1 CURVE SMOOTH"
);
},
{
closed = 1;
nodes = (
"276.5 -3.5 OFFCURVE",
"300 -1.5 OFFCURVE",
"300 12 CURVE SMOOTH",
"300 16.5 OFFCURVE",
"296.5 36.5 OFFCURVE",
"289.5 36.5 CURVE SMOOTH",
"284.5 36.5 OFFCURVE",
"282.5 34.5 OFFCURVE",
"267.5 34.5 CURVE SMOOTH",
"252.5 34.5 OFFCURVE",
"239 41.5 OFFCURVE",
"239 72 CURVE SMOOTH",
"239 376.5 LINE SMOOTH",
"239 383.5 OFFCURVE",
"233 388 OFFCURVE",
"218.5 388 CURVE SMOOTH",
"216.5 388 LINE SMOOTH",
"202 388 OFFCURVE",
"196 383.5 OFFCURVE",
"196 376.5 CURVE SMOOTH",
"196 68 LINE SMOOTH",
"196 8.5 OFFCURVE",
"237 -3.5 OFFCURVE",
"262.5 -3.5 CURVE SMOOTH"
);
}
);
width = 305;
},
{
layerId = "73D3DE9D-4D16-48FA-A6EF-561C99E37BFC";
name = Bold;
paths = (
{
closed = 1;
nodes = (
"79 -1 LINE SMOOTH",
"100.5 -1 OFFCURVE",
"110 4.5 OFFCURVE",
"110 15.5 CURVE SMOOTH",
"110 209 LINE",
"135.5 209 LINE SMOOTH",
"146.5 209 OFFCURVE",
"151 217 OFFCURVE",
"151 235 CURVE SMOOTH",
"151 244 LINE SMOOTH",
"151 262 OFFCURVE",
"146.5 269.5 OFFCURVE",
"135.5 269.5 CURVE SMOOTH",
"110 269.5 LINE",
"110 309.5 LINE SMOOTH",
"110 325 OFFCURVE",
"115 331.5 OFFCURVE",
"128.5 331.5 CURVE SMOOTH",
"133.5 331.5 OFFCURVE",
"140.5 330 OFFCURVE",
"144.5 330 CURVE SMOOTH",
"155 330 OFFCURVE",
"160.5 362.5 OFFCURVE",
"160.5 367 CURVE SMOOTH",
"160.5 391 OFFCURVE",
"125 392 OFFCURVE",
"109 392 CURVE SMOOTH",
"60.5 392 OFFCURVE",
"34 366 OFFCURVE",
"34 308.5 CURVE SMOOTH",
"34 269.5 LINE",
"24.5 269.5 LINE SMOOTH",
"13.5 269.5 OFFCURVE",
"9 262 OFFCURVE",
"9 244 CURVE SMOOTH",
"9 235 LINE SMOOTH",
"9 217 OFFCURVE",
"13.5 209 OFFCURVE",
"24.5 209 CURVE SMOOTH",
"34 209 LINE",
"34 15.5 LINE SMOOTH",
"34 4.5 OFFCURVE",
"42.5 -1 OFFCURVE",
"64 -1 CURVE SMOOTH"
);
},
{
closed = 1;
nodes = (
"275.5 -4 OFFCURVE",
"309 -3 OFFCURVE",
"309 21 CURVE SMOOTH",
"309 25.5 OFFCURVE",
"303.5 58 OFFCURVE",
"293 58 CURVE SMOOTH",
"290 58 OFFCURVE",
"284 56.5 OFFCURVE",
"279 56.5 CURVE SMOOTH",
"265.5 56.5 OFFCURVE",
"260.5 63 OFFCURVE",
"260.5 78.5 CURVE SMOOTH",
"260.5 372.5 LINE SMOOTH",
"260.5 383 OFFCURVE",
"251.5 389 OFFCURVE",
"229.5 389 CURVE SMOOTH",
"215.5 389 LINE SMOOTH",
"193 389 OFFCURVE",
"184.5 383 OFFCURVE",
"184.5 372.5 CURVE SMOOTH",
"184.5 79.5 LINE SMOOTH",
"184.5 22 OFFCURVE",
"211 -4 OFFCURVE",
"259.5 -4 CURVE SMOOTH"
);
}
);
width = 305;
}
);
unicode = FB02;
},
{
glyphname = ordfeminine;
lastChange = "2015-01-29 02:55:36 +0000";
layers = (
{
layerId = "30990018-E5AF-4C66-A976-C36FA03CF41D";
name = Regular;
paths = (
{
closed = 1;
nodes = (
"86.5 227.5 OFFCURVE",
"100 236.5 OFFCURVE",
"110 247 CURVE",
"110.5 239.5 OFFCURVE",
"112.5 229 OFFCURVE",
"118.5 229 CURVE SMOOTH",
"122 229 OFFCURVE",
"133 230.5 OFFCURVE",
"133 234.5 CURVE SMOOTH",
"133 236.5 OFFCURVE",
"129.5 246.5 OFFCURVE",
"129.5 267 CURVE SMOOTH",
"129.5 324 LINE SMOOTH",
"129.5 349.5 OFFCURVE",
"110 364 OFFCURVE",
"79 364 CURVE SMOOTH",
"53.5 364 OFFCURVE",
"31 354 OFFCURVE",
"31 347.5 CURVE SMOOTH",
"31 345 OFFCURVE",
"36.5 335.5 OFFCURVE",
"40.5 335.5 CURVE SMOOTH",
"42.5 335.5 OFFCURVE",
"57 345.5 OFFCURVE",
"79.5 345.5 CURVE SMOOTH",
"101.5 345.5 OFFCURVE",
"108.5 336 OFFCURVE",
"108.5 324.5 CURVE SMOOTH",
"108.5 312 LINE",
"68.5 311.5 OFFCURVE",
"23 309 OFFCURVE",
"23 265.5 CURVE SMOOTH",
"23 239.5 OFFCURVE",
"42 227.5 OFFCURVE",
"66.5 227.5 CURVE SMOOTH"
);
},
{
closed = 1;
nodes = (
"53.5 246.5 OFFCURVE",
"46.5 253.5 OFFCURVE",
"46.5 267.5 CURVE SMOOTH",
"46.5 294 OFFCURVE",
"81.5 294 OFFCURVE",
"108.5 294 CURVE",
"108.5 263.5 LINE",
"98 254 OFFCURVE",
"87 246.5 OFFCURVE",
"67.5 246.5 CURVE SMOOTH"
);
}
);
width = 164.5;
},
{
layerId = "73D3DE9D-4D16-48FA-A6EF-561C99E37BFC";
name = Bold;
paths = (
{
closed = 1;
nodes = (
"83 227 OFFCURVE",
"96 243 OFFCURVE",
"97.5 246.5 CURVE",
"99 239 OFFCURVE",
"99.5 228.5 OFFCURVE",
"107.5 228.5 CURVE SMOOTH",
"114 228.5 OFFCURVE",
"136 231 OFFCURVE",
"136 237.5 CURVE SMOOTH",
"136 242 OFFCURVE",
"133 247.5 OFFCURVE",
"133 274 CURVE SMOOTH",
"133 322 LINE SMOOTH",
"133 347 OFFCURVE",
"118.5 365.5 OFFCURVE",
"78.5 365.5 CURVE SMOOTH",
"49.5 365.5 OFFCURVE",
"29.5 356 OFFCURVE",
"29.5 347.5 CURVE SMOOTH",
"29.5 342 OFFCURVE",
"37 327 OFFCURVE",
"42 327 CURVE SMOOTH",
"45.5 327 OFFCURVE",
"56.5 335 OFFCURVE",
"75.5 335 CURVE SMOOTH",
"89 335 OFFCURVE",
"95 330.5 OFFCURVE",
"95 320.5 CURVE SMOOTH",
"95 312 LINE",
"30.5 312 OFFCURVE",
"21.5 285 OFFCURVE",
"21.5 264 CURVE SMOOTH",
"21.5 243 OFFCURVE",
"32 227 OFFCURVE",
"59 227 CURVE SMOOTH"
);
},
{
closed = 1;
nodes = (
"63.5 257 OFFCURVE",
"59 262 OFFCURVE",
"59 268.5 CURVE SMOOTH",
"59 280.5 OFFCURVE",
"71.5 286.5 OFFCURVE",
"95 286.5 CURVE",
"95 273 LINE",
"91.5 263.5 OFFCURVE",
"82 257 OFFCURVE",
"72 257 CURVE SMOOTH"
);
}
);
width = 164.5;
}
);
unicode = 00AA;
},
{
glyphname = ordmasculine;
lastChange = "2015-01-29 02:55:36 +0000";
layers = (
{
layerId = "30990018-E5AF-4C66-A976-C36FA03CF41D";
name = Regular;
paths = (
{
closed = 1;
nodes = (
"125 227.5 OFFCURVE",
"145.5 251.5 OFFCURVE",
"145.5 295 CURVE SMOOTH",
"145.5 340 OFFCURVE",
"125 364 OFFCURVE",
"87.5 364 CURVE SMOOTH",
"49.5 364 OFFCURVE",
"28 339.5 OFFCURVE",
"28 295 CURVE SMOOTH",
"28 251.5 OFFCURVE",
"49.5 227.5 OFFCURVE",
"87.5 227.5 CURVE SMOOTH"
);
},
{
closed = 1;
nodes = (
"62 246.5 OFFCURVE",
"50.5 262 OFFCURVE",
"50.5 295.5 CURVE SMOOTH",
"50.5 330 OFFCURVE",
"62 345.5 OFFCURVE",
"87 345.5 CURVE SMOOTH",
"112 345.5 OFFCURVE",
"123.5 330 OFFCURVE",
"123.5 295.5 CURVE SMOOTH",
"123.5 262 OFFCURVE",
"112 246.5 OFFCURVE",
"87 246.5 CURVE SMOOTH"
);
}
);
width = 174;
},
{
layerId = "73D3DE9D-4D16-48FA-A6EF-561C99E37BFC";
name = Bold;
paths = (
{
closed = 1;
nodes = (
"127.5 227.5 OFFCURVE",
"148.5 252 OFFCURVE",
"148.5 296.5 CURVE SMOOTH",
"148.5 341 OFFCURVE",
"127.5 365.5 OFFCURVE",
"87 365.5 CURVE SMOOTH",
"46 365.5 OFFCURVE",
"24.5 341 OFFCURVE",
"24.5 296.5 CURVE SMOOTH",
"24.5 252 OFFCURVE",
"46 227.5 OFFCURVE",
"87 227.5 CURVE SMOOTH"
);
},
{
closed = 1;
nodes = (
"70.5 257.5 OFFCURVE",
"63 270.5 OFFCURVE",
"63 296.5 CURVE SMOOTH",
"63 322 OFFCURVE",
"70.5 335.5 OFFCURVE",
"87 335.5 CURVE SMOOTH",
"103 335.5 OFFCURVE",
"110 322 OFFCURVE",
"110 296.5 CURVE SMOOTH",
"110 270.5 OFFCURVE",
"103 257.5 OFFCURVE",
"87 257.5 CURVE SMOOTH"
);
}
);
width = 174;
}
);
unicode = 00BA;
},
